<?xml version="1.0" encoding="utf-8" standalone="no"?>
<!DOCTYPE svg PUBLIC "-//W3C//DTD SVG 1.1//EN"
  "http://www.w3.org/Graphics/SVG/1.1/DTD/svg11.dtd">
<svg xmlns:xlink="http://www.w3.org/1999/xlink" width="273.6pt" height="295.488pt" viewBox="0 0 273.6 295.488" xmlns="http://www.w3.org/2000/svg" version="1.1">
 <metadata>
  <rdf:RDF xmlns:dc="http://purl.org/dc/elements/1.1/" xmlns:cc="http://creativecommons.org/ns#" xmlns:rdf="http://www.w3.org/1999/02/22-rdf-syntax-ns#">
   <cc:Work>
    <dc:type rdf:resource="http://purl.org/dc/dcmitype/StillImage"/>
    <dc:date>2026-05-07T15:03:14.406212</dc:date>
    <dc:format>image/svg+xml</dc:format>
    <dc:creator>
     <cc:Agent>
      <dc:title>Matplotlib v3.10.8, https://matplotlib.org/</dc:title>
     </cc:Agent>
    </dc:creator>
   </cc:Work>
  </rdf:RDF>
 </metadata>
 <defs>
  <style type="text/css">*{stroke-linejoin: round; stroke-linecap: butt}</style>
 </defs>
 <g id="figure_1">
  <g id="patch_1">
   <path d="M 0 295.488 
L 273.6 295.488 
L 273.6 0 
L 0 0 
z
" style="fill: #ffffff"/>
  </g>
  <g id="axes_1">
   <g id="patch_2">
    <path d="M 47.81 253.891 
L 262.8 253.891 
L 262.8 38.901 
L 47.81 38.901 
z
" style="fill: #ffffff"/>
   </g>
   <g id="FillBetweenPolyCollection_1">
    <path d="M 57.582273 219.865905 
L 57.582273 244.118727 
L 57.777914 244.118727 
L 57.973555 244.118727 
L 58.169196 244.118727 
L 58.364837 244.118727 
L 58.560478 244.118727 
L 58.756119 244.118727 
L 58.95176 244.118727 
L 59.147401 244.118727 
L 59.343043 244.118727 
L 59.538684 244.118727 
L 59.734325 242.905153 
L 59.929966 242.881731 
L 60.125607 242.850207 
L 60.321248 242.815758 
L 60.516889 242.798371 
L 60.71253 242.798371 
L 60.908171 242.798371 
L 61.103812 242.798371 
L 61.299454 242.798371 
L 61.495095 242.798371 
L 61.690736 242.79815 
L 61.886377 242.789391 
L 62.082018 242.649487 
L 62.277659 241.675659 
L 62.4733 241.547912 
L 62.668941 241.478016 
L 62.864582 241.36786 
L 63.060223 241.20574 
L 63.255865 240.313758 
L 63.451506 240.130045 
L 63.647147 240.130045 
L 63.842788 240.019185 
L 64.038429 239.902708 
L 64.23407 239.902708 
L 64.429711 238.534571 
L 64.625352 237.474247 
L 64.820993 237.192817 
L 65.016634 236.14535 
L 65.212275 236.14535 
L 65.407917 235.977956 
L 65.603558 235.919642 
L 65.799199 235.746887 
L 65.99484 235.559295 
L 66.190481 235.559295 
L 66.386122 235.06769 
L 66.581763 234.751221 
L 66.777404 234.62116 
L 66.973045 234.420815 
L 67.168686 234.420815 
L 67.364328 234.347972 
L 67.559969 234.347972 
L 67.75561 234.347972 
L 67.951251 234.346455 
L 68.146892 233.628486 
L 68.342533 233.484037 
L 68.538174 233.411209 
L 68.733815 233.409387 
L 68.929456 233.264365 
L 69.125097 233.035399 
L 69.320738 233.035399 
L 69.51638 233.029623 
L 69.712021 233.029623 
L 69.907662 232.874057 
L 70.103303 232.872077 
L 70.298944 232.872077 
L 70.494585 232.872077 
L 70.690226 232.872077 
L 70.885867 232.872077 
L 71.081508 232.872077 
L 71.277149 232.705854 
L 71.472791 232.475565 
L 71.668432 232.46966 
L 71.864073 232.317206 
L 72.059714 232.317206 
L 72.255355 232.317206 
L 72.450996 232.317206 
L 72.646637 232.317206 
L 72.842278 232.235525 
L 73.037919 232.235525 
L 73.23356 232.235525 
L 73.429201 232.235525 
L 73.624843 232.235525 
L 73.820484 232.07479 
L 74.016125 232.07479 
L 74.211766 232.07479 
L 74.407407 231.90757 
L 74.603048 231.90757 
L 74.798689 231.90757 
L 74.99433 231.90757 
L 75.189971 231.90757 
L 75.385612 231.818179 
L 75.581254 231.733505 
L 75.776895 231.645682 
L 75.972536 231.645682 
L 76.168177 231.468473 
L 76.363818 231.468473 
L 76.559459 231.345209 
L 76.7551 231.17955 
L 76.950741 231.005926 
L 77.146382 231.005926 
L 77.342023 231.005926 
L 77.537664 231.005926 
L 77.733306 230.915169 
L 77.928947 230.915169 
L 78.124588 230.915169 
L 78.320229 230.84937 
L 78.51587 230.84937 
L 78.711511 230.84937 
L 78.907152 230.84937 
L 79.102793 230.84937 
L 79.298434 230.769002 
L 79.494075 230.769002 
L 79.689717 230.765311 
L 79.885358 230.765311 
L 80.080999 230.765311 
L 80.27664 230.765311 
L 80.472281 230.642038 
L 80.667922 230.598403 
L 80.863563 230.16566 
L 81.059204 230.16566 
L 81.254845 230.060414 
L 81.450486 229.95856 
L 81.646127 229.95856 
L 81.841769 229.853933 
L 82.03741 229.787725 
L 82.233051 229.787725 
L 82.428692 229.787725 
L 82.624333 229.787725 
L 82.819974 229.692273 
L 83.015615 229.692273 
L 83.211256 229.689868 
L 83.406897 229.689868 
L 83.602538 229.689868 
L 83.79818 229.594813 
L 83.993821 229.594813 
L 84.189462 229.282709 
L 84.385103 228.874116 
L 84.580744 228.874116 
L 84.776385 228.874116 
L 84.972026 228.850093 
L 85.167667 228.850093 
L 85.363308 228.656764 
L 85.558949 228.656764 
L 85.75459 228.656764 
L 85.950232 228.626743 
L 86.145873 228.486666 
L 86.341514 228.380777 
L 86.537155 228.242268 
L 86.732796 227.93556 
L 86.928437 227.262979 
L 87.124078 227.262979 
L 87.319719 227.126527 
L 87.51536 227.126527 
L 87.711001 227.12347 
L 87.906643 227.12347 
L 88.102284 227.12347 
L 88.297925 226.952872 
L 88.493566 226.910732 
L 88.689207 226.910732 
L 88.884848 226.479749 
L 89.080489 226.479749 
L 89.27613 226.479749 
L 89.471771 226.479749 
L 89.667412 226.479749 
L 89.863054 226.120114 
L 90.058695 226.120114 
L 90.254336 226.09939 
L 90.449977 226.09939 
L 90.645618 225.680477 
L 90.841259 225.566697 
L 91.0369 225.120362 
L 91.232541 224.9614 
L 91.428182 224.718911 
L 91.623823 224.574182 
L 91.819464 224.574182 
L 92.015106 224.44629 
L 92.210747 224.29473 
L 92.406388 223.428426 
L 92.602029 223.428426 
L 92.79767 223.428426 
L 92.993311 223.138245 
L 93.188952 222.575432 
L 93.384593 222.141892 
L 93.580234 222.141892 
L 93.775875 221.823913 
L 93.971517 221.713683 
L 94.167158 221.37012 
L 94.362799 221.061427 
L 94.55844 219.378796 
L 94.754081 219.069547 
L 94.949722 219.028603 
L 95.145363 218.581738 
L 95.341004 217.88881 
L 95.536645 217.884438 
L 95.732286 217.810654 
L 95.927927 216.994406 
L 96.123569 216.994406 
L 96.31921 215.644407 
L 96.514851 215.644407 
L 96.710492 215.077298 
L 96.906133 215.077298 
L 97.101774 215.077298 
L 97.297415 213.967263 
L 97.493056 213.967263 
L 97.688697 213.549088 
L 97.884338 213.549088 
L 98.07998 213.549088 
L 98.275621 213.549088 
L 98.471262 213.549088 
L 98.666903 213.191807 
L 98.862544 212.42913 
L 99.058185 212.01935 
L 99.253826 211.766449 
L 99.449467 211.766449 
L 99.645108 210.927135 
L 99.840749 210.036442 
L 100.03639 209.633952 
L 100.232032 209.633952 
L 100.427673 207.932511 
L 100.623314 207.932511 
L 100.818955 207.925125 
L 101.014596 205.901726 
L 101.210237 205.901726 
L 101.405878 205.879399 
L 101.601519 204.78885 
L 101.79716 203.378174 
L 101.992801 203.243774 
L 102.188443 202.262651 
L 102.384084 201.41111 
L 102.579725 201.41111 
L 102.775366 200.855619 
L 102.971007 200.386369 
L 103.166648 200.14948 
L 103.362289 198.798511 
L 103.55793 198.148224 
L 103.753571 196.320462 
L 103.949212 195.936328 
L 104.144853 195.926697 
L 104.340495 195.593827 
L 104.536136 193.946459 
L 104.731777 193.946459 
L 104.927418 193.901021 
L 105.123059 193.901021 
L 105.3187 193.639438 
L 105.514341 193.596513 
L 105.709982 193.596513 
L 105.905623 193.596513 
L 106.101264 193.502152 
L 106.296906 193.502152 
L 106.492547 192.828985 
L 106.688188 192.828985 
L 106.883829 192.828985 
L 107.07947 192.241846 
L 107.275111 192.183649 
L 107.470752 191.917482 
L 107.666393 191.445484 
L 107.862034 191.445484 
L 108.057675 191.336971 
L 108.253316 191.336971 
L 108.448958 190.938034 
L 108.644599 190.59755 
L 108.84024 190.59755 
L 109.035881 190.443772 
L 109.231522 190.122212 
L 109.427163 190.059346 
L 109.622804 190.059346 
L 109.818445 190.059346 
L 110.014086 190.033847 
L 110.209727 189.678837 
L 110.405369 189.35243 
L 110.60101 189.35243 
L 110.796651 188.812619 
L 110.992292 188.676477 
L 111.187933 188.676477 
L 111.383574 188.676477 
L 111.579215 188.485776 
L 111.774856 188.282264 
L 111.970497 188.282264 
L 112.166138 187.72906 
L 112.36178 187.378783 
L 112.557421 187.220876 
L 112.753062 187.220876 
L 112.948703 187.168963 
L 113.144344 187.065835 
L 113.339985 187.065835 
L 113.535626 186.885682 
L 113.731267 186.484195 
L 113.926908 186.484195 
L 114.122549 186.348638 
L 114.31819 186.348638 
L 114.513832 186.058082 
L 114.709473 186.058082 
L 114.905114 186.058082 
L 115.100755 185.904699 
L 115.296396 185.900932 
L 115.492037 185.900932 
L 115.687678 185.900932 
L 115.883319 185.900932 
L 116.07896 185.900932 
L 116.274601 185.900932 
L 116.470243 185.900932 
L 116.665884 185.900932 
L 116.861525 185.135941 
L 117.057166 185.135941 
L 117.252807 184.9744 
L 117.448448 184.9744 
L 117.644089 184.857525 
L 117.83973 184.857525 
L 118.035371 184.857525 
L 118.231012 184.857525 
L 118.426653 183.29709 
L 118.622295 183.220698 
L 118.817936 183.130916 
L 119.013577 183.130916 
L 119.209218 183.130916 
L 119.404859 183.130916 
L 119.6005 182.961003 
L 119.796141 182.961003 
L 119.991782 182.961003 
L 120.187423 182.961003 
L 120.383064 182.961003 
L 120.578706 182.961003 
L 120.774347 182.187221 
L 120.969988 182.187221 
L 121.165629 182.187221 
L 121.36127 182.187221 
L 121.556911 182.187221 
L 121.752552 182.187221 
L 121.948193 182.187221 
L 122.143834 181.172592 
L 122.339475 181.172592 
L 122.535116 181.172592 
L 122.730758 181.156433 
L 122.926399 181.156433 
L 123.12204 181.156433 
L 123.317681 181.156433 
L 123.513322 181.073922 
L 123.708963 181.073922 
L 123.904604 181.073922 
L 124.100245 181.073922 
L 124.295886 180.705425 
L 124.491527 180.704427 
L 124.687169 180.704427 
L 124.88281 180.601381 
L 125.078451 180.601381 
L 125.274092 180.601381 
L 125.469733 180.334289 
L 125.665374 180.334289 
L 125.861015 180.334289 
L 126.056656 179.874308 
L 126.252297 179.874308 
L 126.447938 179.874308 
L 126.643579 178.992554 
L 126.839221 178.533004 
L 127.034862 178.533004 
L 127.230503 178.533004 
L 127.426144 178.505599 
L 127.621785 178.505599 
L 127.817426 177.803704 
L 128.013067 177.803704 
L 128.208708 177.803704 
L 128.404349 177.585519 
L 128.59999 177.585519 
L 128.795632 177.585519 
L 128.991273 177.554724 
L 129.186914 176.872505 
L 129.382555 176.814058 
L 129.578196 176.6797 
L 129.773837 176.6797 
L 129.969478 176.6797 
L 130.165119 176.372102 
L 130.36076 176.372102 
L 130.556401 176.367991 
L 130.752042 176.367991 
L 130.947684 176.364303 
L 131.143325 176.364303 
L 131.338966 175.859625 
L 131.534607 175.856911 
L 131.730248 175.856911 
L 131.925889 175.856911 
L 132.12153 175.782794 
L 132.317171 175.644979 
L 132.512812 175.644979 
L 132.708453 175.644979 
L 132.904095 175.291565 
L 133.099736 173.640849 
L 133.295377 172.932927 
L 133.491018 172.556723 
L 133.686659 172.556723 
L 133.8823 172.556723 
L 134.077941 172.556723 
L 134.273582 172.547152 
L 134.469223 172.547152 
L 134.664864 172.328056 
L 134.860506 171.842976 
L 135.056147 171.532351 
L 135.251788 171.532351 
L 135.447429 171.365736 
L 135.64307 171.365736 
L 135.838711 171.365736 
L 136.034352 171.365736 
L 136.229993 170.293019 
L 136.425634 170.293019 
L 136.621275 169.726513 
L 136.816916 169.046963 
L 137.012558 169.046963 
L 137.208199 168.850844 
L 137.40384 168.666535 
L 137.599481 167.455866 
L 137.795122 167.168651 
L 137.990763 167.168651 
L 138.186404 166.793642 
L 138.382045 166.680728 
L 138.577686 166.680728 
L 138.773327 166.680728 
L 138.968969 166.680728 
L 139.16461 166.680728 
L 139.360251 166.680728 
L 139.555892 166.224353 
L 139.751533 166.224353 
L 139.947174 165.947379 
L 140.142815 165.947379 
L 140.338456 165.947379 
L 140.534097 165.947379 
L 140.729738 165.947379 
L 140.925379 165.428977 
L 141.121021 164.962571 
L 141.316662 164.962571 
L 141.512303 164.811114 
L 141.707944 164.12173 
L 141.903585 164.12173 
L 142.099226 163.713952 
L 142.294867 163.486232 
L 142.490508 163.486232 
L 142.686149 163.393485 
L 142.88179 163.393485 
L 143.077432 163.393485 
L 143.273073 162.991791 
L 143.468714 162.991791 
L 143.664355 162.991791 
L 143.859996 162.806716 
L 144.055637 162.806716 
L 144.251278 162.806716 
L 144.446919 162.462658 
L 144.64256 162.462658 
L 144.838201 162.042346 
L 145.033842 161.571011 
L 145.229484 161.571011 
L 145.425125 161.571011 
L 145.620766 161.571011 
L 145.816407 161.571011 
L 146.012048 161.245978 
L 146.207689 160.733509 
L 146.40333 160.733509 
L 146.598971 160.733509 
L 146.794612 160.733509 
L 146.990253 160.365697 
L 147.185895 160.16468 
L 147.381536 160.159995 
L 147.577177 160.159764 
L 147.772818 159.225015 
L 147.968459 159.225015 
L 148.1641 159.225015 
L 148.359741 159.225015 
L 148.555382 159.225015 
L 148.751023 159.215588 
L 148.946664 159.215588 
L 149.142305 159.031184 
L 149.337947 159.031184 
L 149.533588 159.031184 
L 149.729229 158.615207 
L 149.92487 158.615207 
L 150.120511 158.384691 
L 150.316152 157.74239 
L 150.511793 157.726171 
L 150.707434 157.726171 
L 150.903075 157.726171 
L 151.098716 157.726171 
L 151.294358 157.261368 
L 151.489999 157.261368 
L 151.68564 157.261368 
L 151.881281 156.984358 
L 152.076922 156.984358 
L 152.272563 156.984358 
L 152.468204 156.984358 
L 152.663845 156.984358 
L 152.859486 156.984358 
L 153.055127 156.942093 
L 153.250768 156.508782 
L 153.44641 156.508782 
L 153.642051 156.508782 
L 153.837692 156.508782 
L 154.033333 156.508782 
L 154.228974 156.113598 
L 154.424615 155.767664 
L 154.620256 155.767664 
L 154.815897 155.767664 
L 155.011538 155.767664 
L 155.207179 155.767664 
L 155.402821 155.767664 
L 155.598462 155.767664 
L 155.794103 155.767664 
L 155.989744 155.767664 
L 156.185385 155.767664 
L 156.381026 155.643208 
L 156.576667 155.535536 
L 156.772308 155.535536 
L 156.967949 155.535536 
L 157.16359 155.535536 
L 157.359232 155.535536 
L 157.554873 155.535536 
L 157.750514 154.934238 
L 157.946155 154.934238 
L 158.141796 154.934238 
L 158.337437 154.894341 
L 158.533078 154.811325 
L 158.728719 154.811325 
L 158.92436 154.542428 
L 159.120001 154.542428 
L 159.315642 154.542428 
L 159.511284 154.324967 
L 159.706925 154.319464 
L 159.902566 153.617997 
L 160.098207 153.617997 
L 160.293848 153.517263 
L 160.489489 153.517263 
L 160.68513 153.517263 
L 160.880771 153.517263 
L 161.076412 153.335754 
L 161.272053 153.335754 
L 161.467695 153.335754 
L 161.663336 153.335754 
L 161.858977 153.279214 
L 162.054618 153.279214 
L 162.250259 152.910848 
L 162.4459 152.745862 
L 162.641541 152.745862 
L 162.837182 152.662311 
L 163.032823 152.386055 
L 163.228464 152.362342 
L 163.424105 152.300115 
L 163.619747 152.298715 
L 163.815388 152.222488 
L 164.011029 152.003505 
L 164.20667 151.691865 
L 164.402311 151.691865 
L 164.597952 151.468485 
L 164.793593 151.468485 
L 164.989234 151.468485 
L 165.184875 151.468485 
L 165.380516 151.252873 
L 165.576158 151.252873 
L 165.771799 150.765425 
L 165.96744 150.308981 
L 166.163081 149.963844 
L 166.358722 149.963844 
L 166.554363 149.912489 
L 166.750004 149.678726 
L 166.945645 149.678726 
L 167.141286 149.675286 
L 167.336927 149.675286 
L 167.532568 149.675286 
L 167.72821 149.675286 
L 167.923851 149.675286 
L 168.119492 149.039945 
L 168.315133 149.037155 
L 168.510774 148.380411 
L 168.706415 147.845709 
L 168.902056 147.845709 
L 169.097697 147.845709 
L 169.293338 147.735132 
L 169.488979 147.735132 
L 169.684621 147.735132 
L 169.880262 147.735132 
L 170.075903 147.735132 
L 170.271544 147.735132 
L 170.467185 147.735132 
L 170.662826 147.71703 
L 170.858467 147.71703 
L 171.054108 147.71703 
L 171.249749 147.71703 
L 171.44539 147.71703 
L 171.641031 147.71703 
L 171.836673 147.69941 
L 172.032314 147.69941 
L 172.227955 147.69941 
L 172.423596 147.69941 
L 172.619237 147.618317 
L 172.814878 147.618317 
L 173.010519 147.043611 
L 173.20616 145.812936 
L 173.401801 145.812936 
L 173.597442 145.796757 
L 173.793084 145.773758 
L 173.988725 145.740978 
L 174.184366 145.740978 
L 174.380007 145.740143 
L 174.575648 145.731443 
L 174.771289 145.731443 
L 174.96693 145.693208 
L 175.162571 145.693208 
L 175.358212 145.693208 
L 175.553853 145.693208 
L 175.749494 145.693208 
L 175.945136 145.023495 
L 176.140777 145.023495 
L 176.336418 145.023495 
L 176.532059 144.54096 
L 176.7277 144.54096 
L 176.923341 143.802481 
L 177.118982 143.802481 
L 177.314623 143.133548 
L 177.510264 143.116714 
L 177.705905 143.116714 
L 177.901547 143.116714 
L 178.097188 143.116714 
L 178.292829 143.116714 
L 178.48847 143.116714 
L 178.684111 143.116714 
L 178.879752 143.116714 
L 179.075393 142.935307 
L 179.271034 142.935307 
L 179.466675 142.496933 
L 179.662316 141.761151 
L 179.857958 141.761151 
L 180.053599 141.761151 
L 180.24924 141.761151 
L 180.444881 141.742537 
L 180.640522 141.742537 
L 180.836163 141.615624 
L 181.031804 141.478153 
L 181.227445 140.493285 
L 181.423086 140.493285 
L 181.618727 140.493285 
L 181.814368 140.036181 
L 182.01001 139.977736 
L 182.205651 139.977736 
L 182.401292 139.797692 
L 182.596933 138.685993 
L 182.792574 138.685993 
L 182.988215 138.552935 
L 183.183856 138.474463 
L 183.379497 138.257942 
L 183.575138 138.140609 
L 183.770779 138.140609 
L 183.966421 138.022716 
L 184.162062 137.873604 
L 184.357703 137.398197 
L 184.553344 137.031575 
L 184.748985 137.025328 
L 184.944626 137.025328 
L 185.140267 136.82059 
L 185.335908 136.82059 
L 185.531549 136.82059 
L 185.72719 136.762714 
L 185.922831 136.561399 
L 186.118473 136.561399 
L 186.314114 136.561399 
L 186.509755 135.854122 
L 186.705396 135.854122 
L 186.901037 135.854122 
L 187.096678 135.854122 
L 187.292319 135.70028 
L 187.48796 135.70028 
L 187.683601 135.70028 
L 187.879242 135.246427 
L 188.074884 135.246427 
L 188.270525 135.246427 
L 188.466166 135.246427 
L 188.661807 134.184842 
L 188.857448 134.184842 
L 189.053089 134.184842 
L 189.24873 134.184842 
L 189.444371 133.938839 
L 189.640012 133.018249 
L 189.835653 133.018249 
L 190.031294 132.983733 
L 190.226936 132.269083 
L 190.422577 132.050482 
L 190.618218 132.050482 
L 190.813859 131.84664 
L 191.0095 131.515946 
L 191.205141 131.515946 
L 191.400782 131.515946 
L 191.596423 131.515946 
L 191.792064 131.515946 
L 191.987705 131.515946 
L 192.183347 131.418966 
L 192.378988 130.977358 
L 192.574629 130.838332 
L 192.77027 130.76178 
L 192.965911 130.76178 
L 193.161552 130.680409 
L 193.357193 130.680409 
L 193.552834 130.340649 
L 193.748475 130.33199 
L 193.944116 130.33199 
L 194.139757 130.228701 
L 194.335399 130.111808 
L 194.53104 129.784798 
L 194.726681 129.552985 
L 194.922322 129.552985 
L 195.117963 129.313836 
L 195.313604 128.503106 
L 195.509245 128.163141 
L 195.704886 127.690671 
L 195.900527 127.690671 
L 196.096168 127.383815 
L 196.29181 126.615475 
L 196.487451 126.615475 
L 196.683092 126.371628 
L 196.878733 126.322987 
L 197.074374 126.322987 
L 197.270015 126.070715 
L 197.465656 126.070715 
L 197.661297 125.750353 
L 197.856938 125.052105 
L 198.052579 125.052105 
L 198.24822 125.052105 
L 198.443862 125.052105 
L 198.639503 125.052105 
L 198.835144 125.052105 
L 199.030785 124.758921 
L 199.226426 124.605497 
L 199.422067 124.461832 
L 199.617708 123.747526 
L 199.813349 122.812924 
L 200.00899 122.486098 
L 200.204631 122.451375 
L 200.400273 122.146388 
L 200.595914 121.969208 
L 200.791555 121.464349 
L 200.987196 121.464349 
L 201.182837 121.464349 
L 201.378478 120.96991 
L 201.574119 120.96991 
L 201.76976 120.96991 
L 201.965401 120.878184 
L 202.161042 120.755538 
L 202.356684 120.222454 
L 202.552325 119.637305 
L 202.747966 119.508773 
L 202.943607 119.508773 
L 203.139248 119.419546 
L 203.334889 119.419546 
L 203.53053 119.419546 
L 203.726171 118.572583 
L 203.921812 118.572583 
L 204.117453 118.572583 
L 204.313094 117.015726 
L 204.508736 117.015726 
L 204.704377 117.015726 
L 204.900018 116.924598 
L 205.095659 116.342383 
L 205.2913 116.342383 
L 205.486941 115.573521 
L 205.682582 115.573521 
L 205.878223 115.473577 
L 206.073864 115.214475 
L 206.269505 115.125392 
L 206.465147 115.125392 
L 206.660788 115.100482 
L 206.856429 115.052179 
L 207.05207 115.052179 
L 207.247711 114.258926 
L 207.443352 114.234497 
L 207.638993 114.234497 
L 207.834634 113.821758 
L 208.030275 113.821758 
L 208.225916 113.353548 
L 208.421557 113.353548 
L 208.617199 112.519427 
L 208.81284 112.408319 
L 209.008481 112.282924 
L 209.204122 111.386236 
L 209.399763 111.217096 
L 209.595404 111.05364 
L 209.791045 111.05364 
L 209.986686 111.05364 
L 210.182327 110.990721 
L 210.377968 110.337268 
L 210.57361 110.337268 
L 210.769251 110.337268 
L 210.964892 110.102812 
L 211.160533 109.992231 
L 211.356174 109.836985 
L 211.551815 109.597176 
L 211.747456 109.573403 
L 211.943097 109.572943 
L 212.138738 108.917569 
L 212.334379 108.81291 
L 212.53002 108.705633 
L 212.725662 108.705633 
L 212.921303 108.705633 
L 213.116944 107.185033 
L 213.312585 107.185033 
L 213.508226 106.742193 
L 213.703867 106.715294 
L 213.899508 106.715294 
L 214.095149 106.00974 
L 214.29079 106.00974 
L 214.486431 105.218049 
L 214.682073 105.218049 
L 214.877714 105.0524 
L 215.073355 104.523556 
L 215.268996 104.523556 
L 215.464637 103.693789 
L 215.660278 102.988014 
L 215.855919 102.495062 
L 216.05156 102.491586 
L 216.247201 102.422543 
L 216.442842 102.353674 
L 216.638483 102.325641 
L 216.834125 101.755837 
L 217.029766 101.755837 
L 217.225407 101.755837 
L 217.421048 101.439297 
L 217.616689 101.412998 
L 217.81233 101.055019 
L 218.007971 101.05239 
L 218.203612 101.05239 
L 218.399253 101.05239 
L 218.594894 100.609827 
L 218.790536 99.83704 
L 218.986177 99.83704 
L 219.181818 99.663321 
L 219.377459 99.154825 
L 219.5731 99.154825 
L 219.768741 99.073192 
L 219.964382 99.073192 
L 220.160023 98.826729 
L 220.355664 98.826729 
L 220.551305 98.493345 
L 220.746946 98.493345 
L 220.942588 97.223265 
L 221.138229 97.223265 
L 221.33387 97.223265 
L 221.529511 96.827471 
L 221.725152 96.51581 
L 221.920793 96.316495 
L 222.116434 95.438554 
L 222.312075 95.410881 
L 222.507716 94.737662 
L 222.703357 94.286793 
L 222.898999 93.993958 
L 223.09464 93.975668 
L 223.290281 93.781048 
L 223.485922 93.054166 
L 223.681563 93.054166 
L 223.877204 93.029901 
L 224.072845 93.029901 
L 224.268486 92.975629 
L 224.464127 92.279638 
L 224.659768 91.343093 
L 224.85541 91.048733 
L 225.051051 91.048733 
L 225.246692 90.652636 
L 225.442333 90.093158 
L 225.637974 90.093158 
L 225.833615 88.608262 
L 226.029256 88.560802 
L 226.224897 88.335355 
L 226.420538 88.335355 
L 226.616179 88.242364 
L 226.81182 88.242364 
L 227.007462 88.030138 
L 227.203103 87.26745 
L 227.398744 87.26745 
L 227.594385 86.847873 
L 227.790026 86.424327 
L 227.985667 86.204192 
L 228.181308 86.204192 
L 228.376949 85.720107 
L 228.57259 85.720107 
L 228.768231 85.720107 
L 228.963873 85.577408 
L 229.159514 85.550418 
L 229.355155 85.239374 
L 229.550796 84.917096 
L 229.746437 84.452912 
L 229.942078 84.214616 
L 230.137719 84.214616 
L 230.33336 84.20881 
L 230.529001 83.829188 
L 230.724642 82.206921 
L 230.920283 82.206921 
L 231.115925 81.943874 
L 231.311566 81.691509 
L 231.507207 81.691509 
L 231.702848 81.480617 
L 231.898489 81.480617 
L 232.09413 81.25321 
L 232.289771 80.829622 
L 232.485412 80.555153 
L 232.681053 79.959023 
L 232.876694 79.891612 
L 233.072336 79.467523 
L 233.267977 79.462625 
L 233.463618 79.462625 
L 233.659259 79.214619 
L 233.8549 78.648931 
L 234.050541 78.648931 
L 234.246182 77.875629 
L 234.441823 77.875629 
L 234.637464 77.784195 
L 234.833105 77.78217 
L 235.028746 77.677539 
L 235.224388 77.677539 
L 235.420029 77.456126 
L 235.61567 77.279433 
L 235.811311 77.178218 
L 236.006952 77.178218 
L 236.202593 77.149444 
L 236.398234 77.002453 
L 236.593875 76.599074 
L 236.789516 76.013576 
L 236.985157 76.013576 
L 237.180799 75.58365 
L 237.37644 75.501202 
L 237.572081 75.391595 
L 237.767722 75.158876 
L 237.963363 75.152979 
L 238.159004 75.152979 
L 238.354645 75.011767 
L 238.550286 74.659193 
L 238.745927 74.490908 
L 238.941568 73.855401 
L 239.137209 73.766471 
L 239.332851 73.451744 
L 239.528492 72.423386 
L 239.724133 71.606969 
L 239.919774 71.606969 
L 240.115415 71.228309 
L 240.311056 70.689617 
L 240.506697 70.543924 
L 240.702338 69.918066 
L 240.897979 69.708315 
L 241.09362 69.661742 
L 241.289262 69.440002 
L 241.484903 69.403261 
L 241.680544 68.733746 
L 241.876185 68.095198 
L 242.071826 67.24027 
L 242.267467 67.24027 
L 242.463108 67.161356 
L 242.658749 67.161356 
L 242.85439 66.320739 
L 243.050031 66.320739 
L 243.245672 66.081993 
L 243.441314 66.07595 
L 243.636955 65.993343 
L 243.832596 65.993343 
L 244.028237 65.499703 
L 244.223878 65.065693 
L 244.419519 64.717802 
L 244.61516 64.520201 
L 244.810801 64.107121 
L 245.006442 64.004849 
L 245.202083 64.004849 
L 245.397725 63.433612 
L 245.593366 63.262882 
L 245.789007 62.84264 
L 245.984648 62.725136 
L 246.180289 62.444234 
L 246.37593 61.618838 
L 246.571571 61.618838 
L 246.767212 61.386036 
L 246.962853 60.72128 
L 247.158494 60.72128 
L 247.354135 60.72128 
L 247.549777 60.56254 
L 247.745418 60.56254 
L 247.941059 60.56254 
L 248.1367 60.558469 
L 248.332341 60.402961 
L 248.527982 59.609209 
L 248.723623 59.09703 
L 248.919264 58.243925 
L 249.114905 57.683298 
L 249.310546 57.67405 
L 249.506188 57.67405 
L 249.701829 57.67405 
L 249.89747 57.67405 
L 250.093111 57.67405 
L 250.288752 57.67405 
L 250.484393 57.557157 
L 250.680034 56.598085 
L 250.875675 55.555155 
L 251.071316 55.018904 
L 251.266957 55.018904 
L 251.462599 55.018904 
L 251.65824 55.018904 
L 251.853881 55.018904 
L 252.049522 55.018904 
L 252.245163 55.018904 
L 252.440804 55.018904 
L 252.636445 55.018904 
L 252.832086 55.018904 
L 253.027727 48.673273 
L 253.027727 48.673273 
L 253.027727 48.673273 
L 252.832086 48.673273 
L 252.636445 48.673273 
L 252.440804 48.673273 
L 252.245163 48.673273 
L 252.049522 48.673273 
L 251.853881 48.673273 
L 251.65824 48.673273 
L 251.462599 48.673273 
L 251.266957 48.673273 
L 251.071316 48.673273 
L 250.875675 48.673273 
L 250.680034 48.673273 
L 250.484393 48.673273 
L 250.288752 48.673273 
L 250.093111 48.673273 
L 249.89747 48.673273 
L 249.701829 48.673273 
L 249.506188 48.673273 
L 249.310546 48.673273 
L 249.114905 48.673273 
L 248.919264 48.673273 
L 248.723623 48.673273 
L 248.527982 48.673273 
L 248.332341 48.673273 
L 248.1367 48.673273 
L 247.941059 48.673273 
L 247.745418 48.673273 
L 247.549777 48.673273 
L 247.354135 48.673273 
L 247.158494 48.673273 
L 246.962853 48.673273 
L 246.767212 48.673273 
L 246.571571 48.673273 
L 246.37593 48.673273 
L 246.180289 48.673273 
L 245.984648 48.673273 
L 245.789007 48.673273 
L 245.593366 48.673273 
L 245.397725 48.673273 
L 245.202083 48.673273 
L 245.006442 48.673273 
L 244.810801 48.673273 
L 244.61516 48.673273 
L 244.419519 48.673273 
L 244.223878 48.673273 
L 244.028237 48.673273 
L 243.832596 48.673273 
L 243.636955 48.673273 
L 243.441314 48.673273 
L 243.245672 48.673273 
L 243.050031 48.673273 
L 242.85439 48.673273 
L 242.658749 48.673273 
L 242.463108 48.673273 
L 242.267467 48.673273 
L 242.071826 48.673273 
L 241.876185 48.673273 
L 241.680544 48.673273 
L 241.484903 48.673273 
L 241.289262 48.673273 
L 241.09362 48.673273 
L 240.897979 48.673273 
L 240.702338 48.673273 
L 240.506697 48.673273 
L 240.311056 48.673273 
L 240.115415 48.673273 
L 239.919774 49.925537 
L 239.724133 49.942194 
L 239.528492 49.976027 
L 239.332851 49.976027 
L 239.137209 49.984769 
L 238.941568 49.984987 
L 238.745927 49.993629 
L 238.550286 49.99385 
L 238.354645 50.011488 
L 238.159004 50.020942 
L 237.963363 50.020942 
L 237.767722 50.021172 
L 237.572081 50.039553 
L 237.37644 50.040024 
L 237.180799 50.049649 
L 236.985157 50.069064 
L 236.789516 50.069312 
L 236.593875 50.079104 
L 236.398234 50.079104 
L 236.202593 50.079355 
L 236.006952 50.099623 
L 235.811311 51.078055 
L 235.61567 51.078055 
L 235.420029 51.101167 
L 235.224388 51.101167 
L 235.028746 51.101167 
L 234.833105 51.116341 
L 234.637464 51.146493 
L 234.441823 51.146493 
L 234.246182 51.193952 
L 234.050541 51.211116 
L 233.8549 51.211525 
L 233.659259 51.260694 
L 233.463618 51.34926 
L 233.267977 51.34926 
L 233.072336 51.350608 
L 232.876694 51.426026 
L 232.681053 51.483952 
L 232.485412 51.483952 
L 232.289771 52.530118 
L 232.09413 52.555656 
L 231.898489 52.582182 
L 231.702848 52.635005 
L 231.507207 52.687918 
L 231.311566 52.687918 
L 231.115925 52.716279 
L 230.920283 52.890024 
L 230.724642 53.483897 
L 230.529001 53.483897 
L 230.33336 53.528311 
L 230.137719 53.589371 
L 229.942078 53.716218 
L 229.746437 53.919256 
L 229.550796 53.919256 
L 229.355155 53.920131 
L 229.159514 53.920131 
L 228.963873 53.920131 
L 228.768231 53.955582 
L 228.57259 54.027943 
L 228.376949 54.027943 
L 228.181308 54.027943 
L 227.985667 54.063948 
L 227.790026 54.101377 
L 227.594385 54.335345 
L 227.398744 54.335345 
L 227.203103 54.335345 
L 227.007462 54.335345 
L 226.81182 54.461102 
L 226.616179 54.549154 
L 226.420538 54.701685 
L 226.224897 54.742071 
L 226.029256 54.855374 
L 225.833615 54.855374 
L 225.637974 55.059342 
L 225.442333 55.059342 
L 225.246692 55.411617 
L 225.051051 55.411617 
L 224.85541 55.411617 
L 224.659768 55.411617 
L 224.464127 55.50703 
L 224.268486 55.601539 
L 224.072845 55.9545 
L 223.877204 55.9545 
L 223.681563 56.335328 
L 223.485922 56.872358 
L 223.290281 57.046557 
L 223.09464 57.108261 
L 222.898999 57.169373 
L 222.703357 57.275117 
L 222.507716 57.664144 
L 222.312075 57.664144 
L 222.116434 57.79106 
L 221.920793 57.980199 
L 221.725152 58.299715 
L 221.529511 58.307908 
L 221.33387 58.382925 
L 221.138229 58.728872 
L 220.942588 58.801526 
L 220.746946 58.801526 
L 220.551305 58.801526 
L 220.355664 59.09703 
L 220.160023 59.09703 
L 219.964382 59.236119 
L 219.768741 59.236119 
L 219.5731 59.678589 
L 219.377459 59.734925 
L 219.181818 60.24381 
L 218.986177 60.396143 
L 218.790536 60.396143 
L 218.594894 60.476735 
L 218.399253 60.556475 
L 218.203612 60.798222 
L 218.007971 61.060661 
L 217.81233 61.233199 
L 217.616689 61.524179 
L 217.421048 61.524179 
L 217.225407 61.876831 
L 217.029766 62.055425 
L 216.834125 62.149962 
L 216.638483 62.149962 
L 216.442842 62.203876 
L 216.247201 62.203876 
L 216.05156 62.278332 
L 215.855919 62.624827 
L 215.660278 62.996632 
L 215.464637 63.199624 
L 215.268996 63.199624 
L 215.073355 63.199624 
L 214.877714 63.295972 
L 214.682073 63.500169 
L 214.486431 63.500169 
L 214.29079 63.917884 
L 214.095149 63.917884 
L 213.899508 64.098617 
L 213.703867 64.098617 
L 213.508226 64.098617 
L 213.312585 64.453564 
L 213.116944 64.453564 
L 212.921303 64.625309 
L 212.725662 64.625309 
L 212.53002 64.842567 
L 212.334379 64.842567 
L 212.138738 64.848069 
L 211.943097 64.957586 
L 211.747456 64.957586 
L 211.551815 65.381135 
L 211.356174 65.54233 
L 211.160533 65.790907 
L 210.964892 65.839574 
L 210.769251 65.839574 
L 210.57361 65.954645 
L 210.377968 65.954645 
L 210.182327 66.072991 
L 209.986686 66.317654 
L 209.791045 66.565942 
L 209.595404 66.565942 
L 209.399763 66.674828 
L 209.204122 66.674828 
L 209.008481 66.674828 
L 208.81284 67.149193 
L 208.617199 67.149193 
L 208.421557 67.226549 
L 208.225916 67.543868 
L 208.030275 67.543868 
L 207.834634 67.543868 
L 207.638993 67.543868 
L 207.443352 67.671638 
L 207.247711 68.075788 
L 207.05207 68.214353 
L 206.856429 68.884891 
L 206.660788 68.891768 
L 206.465147 69.028664 
L 206.269505 69.028664 
L 206.073864 69.110017 
L 205.878223 69.110017 
L 205.682582 69.317108 
L 205.486941 69.317108 
L 205.2913 69.606484 
L 205.095659 69.606484 
L 204.900018 69.606484 
L 204.704377 70.090907 
L 204.508736 70.090907 
L 204.313094 70.090907 
L 204.117453 70.521295 
L 203.921812 70.521295 
L 203.726171 70.521295 
L 203.53053 71.108319 
L 203.334889 71.108319 
L 203.139248 71.328352 
L 202.943607 72.925075 
L 202.747966 72.925075 
L 202.552325 72.944277 
L 202.356684 73.249773 
L 202.161042 74.15611 
L 201.965401 74.385578 
L 201.76976 74.38978 
L 201.574119 74.649984 
L 201.378478 74.649984 
L 201.182837 74.649984 
L 200.987196 74.6502 
L 200.791555 74.901128 
L 200.595914 74.901128 
L 200.400273 75.577371 
L 200.204631 75.577371 
L 200.00899 75.674497 
L 199.813349 75.674497 
L 199.617708 75.674497 
L 199.422067 75.675605 
L 199.226426 75.715029 
L 199.030785 75.715029 
L 198.835144 76.007548 
L 198.639503 76.007548 
L 198.443862 76.775793 
L 198.24822 76.997365 
L 198.052579 77.530991 
L 197.856938 77.530991 
L 197.661297 78.31698 
L 197.465656 78.327066 
L 197.270015 78.327066 
L 197.074374 79.461152 
L 196.878733 79.461152 
L 196.683092 79.732342 
L 196.487451 79.829634 
L 196.29181 79.829634 
L 196.096168 79.829634 
L 195.900527 79.88717 
L 195.704886 79.943188 
L 195.509245 80.104455 
L 195.313604 80.104455 
L 195.117963 80.232709 
L 194.922322 80.578202 
L 194.726681 80.582735 
L 194.53104 81.23636 
L 194.335399 81.247515 
L 194.139757 81.444782 
L 193.944116 81.714572 
L 193.748475 81.726548 
L 193.552834 81.907652 
L 193.357193 82.173449 
L 193.161552 82.178208 
L 192.965911 82.322434 
L 192.77027 82.322434 
L 192.574629 82.873768 
L 192.378988 82.873768 
L 192.183347 83.472708 
L 191.987705 83.571856 
L 191.792064 83.955951 
L 191.596423 84.205829 
L 191.400782 84.452804 
L 191.205141 84.452804 
L 191.0095 84.808339 
L 190.813859 84.817295 
L 190.618218 85.151771 
L 190.422577 85.882365 
L 190.226936 86.094048 
L 190.031294 86.094048 
L 189.835653 86.149588 
L 189.640012 86.149588 
L 189.444371 86.149588 
L 189.24873 86.364807 
L 189.053089 86.364807 
L 188.857448 86.364807 
L 188.661807 86.457067 
L 188.466166 86.995264 
L 188.270525 86.995264 
L 188.074884 86.995264 
L 187.879242 86.995264 
L 187.683601 87.755178 
L 187.48796 87.755178 
L 187.292319 87.755178 
L 187.096678 88.289759 
L 186.901037 88.553363 
L 186.705396 88.553363 
L 186.509755 88.553363 
L 186.314114 88.830803 
L 186.118473 89.059532 
L 185.922831 89.10914 
L 185.72719 89.10914 
L 185.531549 89.548226 
L 185.335908 89.670162 
L 185.140267 89.675816 
L 184.944626 89.675816 
L 184.748985 89.675816 
L 184.553344 89.675816 
L 184.357703 89.675816 
L 184.162062 89.946023 
L 183.966421 90.166353 
L 183.770779 90.166353 
L 183.575138 90.166353 
L 183.379497 90.930934 
L 183.183856 90.930934 
L 182.988215 91.101166 
L 182.792574 91.101166 
L 182.596933 91.216379 
L 182.401292 91.219222 
L 182.205651 91.659971 
L 182.01001 91.659971 
L 181.814368 91.667257 
L 181.618727 91.671273 
L 181.423086 91.82313 
L 181.227445 92.753465 
L 181.031804 93.084345 
L 180.836163 93.152431 
L 180.640522 93.221605 
L 180.444881 93.46086 
L 180.24924 93.863016 
L 180.053599 94.180019 
L 179.857958 94.180019 
L 179.662316 94.581659 
L 179.466675 94.65851 
L 179.271034 95.197789 
L 179.075393 95.207905 
L 178.879752 95.578843 
L 178.684111 95.578843 
L 178.48847 95.578843 
L 178.292829 95.578843 
L 178.097188 95.629678 
L 177.901547 97.143428 
L 177.705905 97.143428 
L 177.510264 97.215067 
L 177.314623 97.215067 
L 177.118982 97.230753 
L 176.923341 97.230753 
L 176.7277 97.230753 
L 176.532059 97.527049 
L 176.336418 97.534636 
L 176.140777 97.875465 
L 175.945136 97.875465 
L 175.749494 98.195779 
L 175.553853 98.510561 
L 175.358212 98.88256 
L 175.162571 99.385293 
L 174.96693 99.385293 
L 174.771289 99.893461 
L 174.575648 99.893461 
L 174.380007 100.247322 
L 174.184366 100.247322 
L 173.988725 100.247322 
L 173.793084 100.973221 
L 173.597442 101.137694 
L 173.401801 101.238873 
L 173.20616 101.291907 
L 173.010519 101.291907 
L 172.814878 101.388344 
L 172.619237 101.493762 
L 172.423596 101.493762 
L 172.227955 101.493762 
L 172.032314 101.603665 
L 171.836673 101.737873 
L 171.641031 102.573943 
L 171.44539 102.573943 
L 171.249749 102.573943 
L 171.054108 102.813471 
L 170.858467 102.960008 
L 170.662826 103.083979 
L 170.467185 103.390227 
L 170.271544 103.390227 
L 170.075903 103.93716 
L 169.880262 103.93716 
L 169.684621 103.93716 
L 169.488979 105.057571 
L 169.293338 105.057571 
L 169.097697 105.731821 
L 168.902056 105.999951 
L 168.706415 106.234006 
L 168.510774 106.529644 
L 168.315133 106.581846 
L 168.119492 106.581846 
L 167.923851 106.581846 
L 167.72821 106.581846 
L 167.532568 106.581846 
L 167.336927 106.581846 
L 167.141286 106.631711 
L 166.945645 106.631711 
L 166.750004 106.631711 
L 166.554363 106.631711 
L 166.358722 106.631711 
L 166.163081 106.631711 
L 165.96744 107.534367 
L 165.771799 107.814645 
L 165.576158 107.814645 
L 165.380516 107.814645 
L 165.184875 108.50277 
L 164.989234 109.396925 
L 164.793593 109.988064 
L 164.597952 109.988064 
L 164.402311 109.988064 
L 164.20667 110.172397 
L 164.011029 110.172397 
L 163.815388 110.172397 
L 163.619747 110.172397 
L 163.424105 110.387495 
L 163.228464 110.387495 
L 163.032823 110.669564 
L 162.837182 110.848773 
L 162.641541 111.155081 
L 162.4459 111.358307 
L 162.250259 111.358307 
L 162.054618 111.539326 
L 161.858977 112.426254 
L 161.663336 112.541618 
L 161.467695 112.541618 
L 161.272053 112.879679 
L 161.076412 112.879679 
L 160.880771 112.928356 
L 160.68513 112.928356 
L 160.489489 112.928356 
L 160.293848 112.928356 
L 160.098207 112.929313 
L 159.902566 112.929313 
L 159.706925 113.354203 
L 159.511284 113.354203 
L 159.315642 113.398505 
L 159.120001 113.811182 
L 158.92436 113.811182 
L 158.728719 114.182665 
L 158.533078 114.26798 
L 158.337437 114.26798 
L 158.141796 114.26798 
L 157.946155 114.26798 
L 157.750514 114.26798 
L 157.554873 114.26798 
L 157.359232 115.122883 
L 157.16359 115.150654 
L 156.967949 115.150654 
L 156.772308 115.150654 
L 156.576667 115.560225 
L 156.381026 115.762492 
L 156.185385 115.762492 
L 155.989744 115.762492 
L 155.794103 115.762492 
L 155.598462 115.762492 
L 155.402821 115.762492 
L 155.207179 116.068257 
L 155.011538 116.068257 
L 154.815897 116.068257 
L 154.620256 116.068257 
L 154.424615 116.068257 
L 154.228974 116.404275 
L 154.033333 116.589505 
L 153.837692 116.589505 
L 153.642051 116.589505 
L 153.44641 116.589505 
L 153.250768 117.652179 
L 153.055127 117.937803 
L 152.859486 118.668259 
L 152.663845 119.031082 
L 152.468204 119.031082 
L 152.272563 119.031082 
L 152.076922 119.033636 
L 151.881281 119.082194 
L 151.68564 119.082194 
L 151.489999 119.090897 
L 151.294358 119.248028 
L 151.098716 119.73558 
L 150.903075 119.744347 
L 150.707434 119.744347 
L 150.511793 120.083495 
L 150.316152 120.140731 
L 150.120511 120.667727 
L 149.92487 120.667727 
L 149.729229 120.954272 
L 149.533588 120.954272 
L 149.337947 121.604726 
L 149.142305 121.639117 
L 148.946664 121.639117 
L 148.751023 121.795134 
L 148.555382 121.961378 
L 148.359741 121.961378 
L 148.1641 121.965318 
L 147.968459 122.29595 
L 147.772818 122.29595 
L 147.577177 122.29595 
L 147.381536 122.318901 
L 147.185895 122.713919 
L 146.990253 122.762715 
L 146.794612 122.853626 
L 146.598971 123.063347 
L 146.40333 123.246581 
L 146.207689 123.246581 
L 146.012048 123.246581 
L 145.816407 123.544212 
L 145.620766 123.936323 
L 145.425125 124.038754 
L 145.229484 124.365656 
L 145.033842 124.365656 
L 144.838201 124.365656 
L 144.64256 124.365656 
L 144.446919 124.365656 
L 144.251278 124.365656 
L 144.055637 124.365656 
L 143.859996 124.365656 
L 143.664355 124.365656 
L 143.468714 124.365656 
L 143.273073 124.407526 
L 143.077432 124.407526 
L 142.88179 124.407526 
L 142.686149 124.407526 
L 142.490508 124.407526 
L 142.294867 124.407526 
L 142.099226 124.407526 
L 141.903585 124.596889 
L 141.707944 124.596889 
L 141.512303 124.596889 
L 141.316662 124.596889 
L 141.121021 124.596889 
L 140.925379 124.596889 
L 140.729738 124.596889 
L 140.534097 125.82192 
L 140.338456 125.82192 
L 140.142815 125.82192 
L 139.947174 125.82192 
L 139.751533 125.82192 
L 139.555892 125.82192 
L 139.360251 125.82192 
L 139.16461 125.82192 
L 138.968969 125.82192 
L 138.773327 125.82192 
L 138.577686 125.82192 
L 138.382045 126.083299 
L 138.186404 126.083299 
L 137.990763 126.083299 
L 137.795122 126.083299 
L 137.599481 126.083299 
L 137.40384 126.574905 
L 137.208199 126.574905 
L 137.012558 126.595755 
L 136.816916 126.595755 
L 136.621275 126.845067 
L 136.425634 126.845067 
L 136.229993 126.851455 
L 136.034352 126.851455 
L 135.838711 126.851455 
L 135.64307 127.646867 
L 135.447429 127.646867 
L 135.251788 127.682425 
L 135.056147 127.682425 
L 134.860506 127.682425 
L 134.664864 127.712949 
L 134.469223 127.712949 
L 134.273582 127.712949 
L 134.077941 127.712949 
L 133.8823 127.712949 
L 133.686659 128.605368 
L 133.491018 128.605368 
L 133.295377 128.605368 
L 133.099736 128.748534 
L 132.904095 128.748534 
L 132.708453 128.748534 
L 132.512812 128.748534 
L 132.317171 129.061334 
L 132.12153 129.061334 
L 131.925889 129.061334 
L 131.730248 129.061334 
L 131.534607 129.061334 
L 131.338966 129.224733 
L 131.143325 129.224733 
L 130.947684 129.590621 
L 130.752042 129.678261 
L 130.556401 129.737256 
L 130.36076 129.775544 
L 130.165119 129.776489 
L 129.969478 129.776489 
L 129.773837 129.776489 
L 129.578196 129.776489 
L 129.382555 129.776489 
L 129.186914 130.454734 
L 128.991273 130.887473 
L 128.795632 130.887473 
L 128.59999 130.887473 
L 128.404349 131.0274 
L 128.208708 131.163092 
L 128.013067 131.163092 
L 127.817426 131.824675 
L 127.621785 131.824675 
L 127.426144 131.868946 
L 127.230503 132.05913 
L 127.034862 132.079517 
L 126.839221 132.247621 
L 126.643579 132.960498 
L 126.447938 132.960498 
L 126.252297 132.960498 
L 126.056656 132.960498 
L 125.861015 132.960498 
L 125.665374 133.15182 
L 125.469733 133.15182 
L 125.274092 133.15182 
L 125.078451 133.15182 
L 124.88281 134.821173 
L 124.687169 134.821173 
L 124.491527 134.821173 
L 124.295886 134.821173 
L 124.100245 134.897318 
L 123.904604 134.899209 
L 123.708963 134.899209 
L 123.513322 134.937862 
L 123.317681 135.241912 
L 123.12204 135.241912 
L 122.926399 135.241912 
L 122.730758 135.241912 
L 122.535116 135.381524 
L 122.339475 135.381524 
L 122.143834 135.381524 
L 121.948193 135.534324 
L 121.752552 135.682942 
L 121.556911 135.682942 
L 121.36127 135.941133 
L 121.165629 136.105354 
L 120.969988 136.105354 
L 120.774347 136.105354 
L 120.578706 136.105354 
L 120.383064 136.23965 
L 120.187423 136.397664 
L 119.991782 136.423727 
L 119.796141 136.423727 
L 119.6005 136.935871 
L 119.404859 137.147801 
L 119.209218 137.147801 
L 119.013577 137.634652 
L 118.817936 137.864227 
L 118.622295 138.016018 
L 118.426653 138.198346 
L 118.231012 138.362503 
L 118.035371 138.362503 
L 117.83973 138.362503 
L 117.644089 138.362503 
L 117.448448 138.362503 
L 117.252807 138.362503 
L 117.057166 138.362503 
L 116.861525 138.759403 
L 116.665884 139.059161 
L 116.470243 139.059161 
L 116.274601 139.059161 
L 116.07896 139.62868 
L 115.883319 139.62868 
L 115.687678 139.700979 
L 115.492037 139.732326 
L 115.296396 140.068173 
L 115.100755 140.068173 
L 114.905114 140.730914 
L 114.709473 141.037559 
L 114.513832 141.463877 
L 114.31819 141.67326 
L 114.122549 141.67326 
L 113.926908 141.67326 
L 113.731267 141.740932 
L 113.535626 141.740932 
L 113.339985 141.740932 
L 113.144344 141.740932 
L 112.948703 142.374177 
L 112.753062 142.583405 
L 112.557421 142.583405 
L 112.36178 143.022614 
L 112.166138 143.238219 
L 111.970497 143.851402 
L 111.774856 144.33367 
L 111.579215 144.37415 
L 111.383574 144.37415 
L 111.187933 145.092138 
L 110.992292 145.66999 
L 110.796651 145.692702 
L 110.60101 145.692702 
L 110.405369 145.721323 
L 110.209727 146.396 
L 110.014086 146.396 
L 109.818445 146.396 
L 109.622804 146.396 
L 109.427163 146.396 
L 109.231522 146.396 
L 109.035881 147.118172 
L 108.84024 148.443412 
L 108.644599 148.533669 
L 108.448958 149.024624 
L 108.253316 149.024624 
L 108.057675 149.024624 
L 107.862034 149.11052 
L 107.666393 149.225592 
L 107.470752 149.666231 
L 107.275111 149.666231 
L 107.07947 149.666231 
L 106.883829 150.050969 
L 106.688188 150.050969 
L 106.492547 150.050969 
L 106.296906 150.248654 
L 106.101264 150.248654 
L 105.905623 150.248654 
L 105.709982 150.581208 
L 105.514341 150.581208 
L 105.3187 150.640388 
L 105.123059 151.312197 
L 104.927418 151.312197 
L 104.731777 151.676549 
L 104.536136 152.297002 
L 104.340495 152.297002 
L 104.144853 152.297002 
L 103.949212 152.377016 
L 103.753571 152.377016 
L 103.55793 152.542198 
L 103.362289 152.542198 
L 103.166648 152.65743 
L 102.971007 152.739598 
L 102.775366 152.823039 
L 102.579725 153.31851 
L 102.384084 153.331161 
L 102.188443 153.375069 
L 101.992801 153.798617 
L 101.79716 153.809448 
L 101.601519 153.910541 
L 101.405878 154.534058 
L 101.210237 154.766417 
L 101.014596 154.766417 
L 100.818955 154.766417 
L 100.623314 154.918396 
L 100.427673 156.160392 
L 100.232032 156.77808 
L 100.03639 156.77808 
L 99.840749 156.77808 
L 99.645108 157.674637 
L 99.449467 157.815115 
L 99.253826 157.964671 
L 99.058185 157.968428 
L 98.862544 158.175557 
L 98.666903 158.611341 
L 98.471262 158.611341 
L 98.275621 158.611341 
L 98.07998 158.957774 
L 97.884338 159.025167 
L 97.688697 159.025167 
L 97.493056 159.085752 
L 97.297415 159.085752 
L 97.101774 159.198202 
L 96.906133 159.201047 
L 96.710492 159.201047 
L 96.514851 159.301562 
L 96.31921 159.301562 
L 96.123569 159.301562 
L 95.927927 159.301562 
L 95.732286 159.301562 
L 95.536645 159.770677 
L 95.341004 159.944634 
L 95.145363 159.944634 
L 94.949722 159.968106 
L 94.754081 160.351705 
L 94.55844 160.35639 
L 94.362799 160.865329 
L 94.167158 160.921129 
L 93.971517 160.921129 
L 93.775875 160.949746 
L 93.580234 160.949746 
L 93.384593 160.949746 
L 93.188952 160.950449 
L 92.993311 160.950449 
L 92.79767 160.950449 
L 92.602029 161.15463 
L 92.406388 161.15463 
L 92.210747 161.878422 
L 92.015106 162.151208 
L 91.819464 162.151208 
L 91.623823 162.674458 
L 91.428182 162.674458 
L 91.232541 163.11173 
L 91.0369 163.329034 
L 90.841259 163.561428 
L 90.645618 163.561428 
L 90.449977 163.776783 
L 90.254336 163.776783 
L 90.058695 163.992831 
L 89.863054 163.992831 
L 89.667412 164.34054 
L 89.471771 164.34054 
L 89.27613 164.34054 
L 89.080489 164.345072 
L 88.884848 164.396243 
L 88.689207 164.396243 
L 88.493566 165.182885 
L 88.297925 165.182885 
L 88.102284 165.182885 
L 87.906643 165.182885 
L 87.711001 165.182885 
L 87.51536 165.182885 
L 87.319719 165.182885 
L 87.124078 165.410184 
L 86.928437 165.410184 
L 86.732796 166.198058 
L 86.537155 166.198058 
L 86.341514 166.420588 
L 86.145873 166.420588 
L 85.950232 166.474765 
L 85.75459 166.474765 
L 85.558949 166.474765 
L 85.363308 166.494526 
L 85.167667 166.494526 
L 84.972026 166.696846 
L 84.776385 166.998694 
L 84.580744 167.470029 
L 84.385103 168.455619 
L 84.189462 169.153347 
L 83.993821 169.238101 
L 83.79818 169.661642 
L 83.602538 169.928258 
L 83.406897 169.928258 
L 83.211256 169.928258 
L 83.015615 169.983015 
L 82.819974 169.983015 
L 82.624333 169.983015 
L 82.428692 170.125052 
L 82.233051 170.82209 
L 82.03741 170.82209 
L 81.841769 170.988722 
L 81.646127 171.301883 
L 81.450486 171.331483 
L 81.254845 171.331483 
L 81.059204 171.331483 
L 80.863563 171.360922 
L 80.667922 172.243497 
L 80.472281 172.243497 
L 80.27664 172.243497 
L 80.080999 172.243497 
L 79.885358 172.45014 
L 79.689717 172.455394 
L 79.494075 173.389566 
L 79.298434 173.389566 
L 79.102793 174.02261 
L 78.907152 174.879611 
L 78.711511 174.879611 
L 78.51587 175.057894 
L 78.320229 175.626984 
L 78.124588 175.777664 
L 77.928947 175.845047 
L 77.733306 176.245496 
L 77.537664 177.544756 
L 77.342023 177.611507 
L 77.146382 177.611507 
L 76.950741 177.665915 
L 76.7551 177.665915 
L 76.559459 178.970242 
L 76.363818 179.382708 
L 76.168177 179.833433 
L 75.972536 181.09364 
L 75.776895 181.155354 
L 75.581254 181.155354 
L 75.385612 181.155354 
L 75.189971 182.092492 
L 74.99433 183.19001 
L 74.798689 184.958236 
L 74.603048 186.254147 
L 74.407407 186.254147 
L 74.211766 187.053203 
L 74.016125 187.112317 
L 73.820484 188.2588 
L 73.624843 189.057784 
L 73.429201 189.057784 
L 73.23356 189.057784 
L 73.037919 192.037503 
L 72.842278 198.52879 
L 72.646637 200.950941 
L 72.450996 202.317653 
L 72.255355 202.317653 
L 72.059714 202.773811 
L 71.864073 203.172421 
L 71.668432 204.244854 
L 71.472791 204.745683 
L 71.277149 204.745683 
L 71.081508 205.02285 
L 70.885867 206.115444 
L 70.690226 206.818485 
L 70.494585 207.556338 
L 70.298944 207.652662 
L 70.103303 208.068537 
L 69.907662 208.93288 
L 69.712021 209.070669 
L 69.51638 209.36538 
L 69.320738 210.850646 
L 69.125097 210.878997 
L 68.929456 210.878997 
L 68.733815 210.878997 
L 68.538174 210.879704 
L 68.342533 211.314712 
L 68.146892 211.539231 
L 67.951251 211.962378 
L 67.75561 212.236195 
L 67.559969 212.356579 
L 67.364328 212.389776 
L 67.168686 212.389776 
L 66.973045 212.591007 
L 66.777404 212.68124 
L 66.581763 212.843354 
L 66.386122 213.17931 
L 66.190481 213.184914 
L 65.99484 213.184914 
L 65.799199 213.184914 
L 65.603558 213.184914 
L 65.407917 213.402196 
L 65.212275 213.402196 
L 65.016634 213.402196 
L 64.820993 213.736958 
L 64.625352 213.769439 
L 64.429711 214.537601 
L 64.23407 214.544744 
L 64.038429 214.544744 
L 63.842788 214.860296 
L 63.647147 214.982622 
L 63.451506 215.009184 
L 63.255865 215.009184 
L 63.060223 215.009184 
L 62.864582 215.00983 
L 62.668941 215.00983 
L 62.4733 215.367576 
L 62.277659 215.640074 
L 62.082018 215.830126 
L 61.886377 216.391017 
L 61.690736 217.113814 
L 61.495095 217.159625 
L 61.299454 217.159625 
L 61.103812 217.159625 
L 60.908171 217.159625 
L 60.71253 217.159625 
L 60.516889 217.159625 
L 60.321248 217.289577 
L 60.125607 217.344065 
L 59.929966 217.803393 
L 59.734325 219.060771 
L 59.538684 219.865905 
L 59.343043 219.865905 
L 59.147401 219.865905 
L 58.95176 219.865905 
L 58.756119 219.865905 
L 58.560478 219.865905 
L 58.364837 219.865905 
L 58.169196 219.865905 
L 57.973555 219.865905 
L 57.777914 219.865905 
L 57.582273 219.865905 
z
" clip-path="url(#p870ca3db72)" style="fill: #1f77b4; fill-opacity: 0.5"/>
   </g>
   <g id="matplotlib.axis_1">
    <g id="xtick_1">
     <g id="line2d_1">
      <defs>
       <path id="m9e220def04" d="M 0 0 
L 0 3.5 
" style="stroke: #000000; stroke-width: 0.8"/>
      </defs>
      <g>
       <use xlink:href="#m9e220def04" x="57.582273" y="253.891" style="stroke: #000000; stroke-width: 0.8"/>
      </g>
     </g>
     <g id="text_1">
      <!-- 0.0 -->
      <g transform="translate(49.63071 268.489438) scale(0.1 -0.1)">
       <defs>
        <path id="DejaVuSans-30" d="M 2034 4250 
Q 1547 4250 1301 3770 
Q 1056 3291 1056 2328 
Q 1056 1369 1301 889 
Q 1547 409 2034 409 
Q 2525 409 2770 889 
Q 3016 1369 3016 2328 
Q 3016 3291 2770 3770 
Q 2525 4250 2034 4250 
z
M 2034 4750 
Q 2819 4750 3233 4129 
Q 3647 3509 3647 2328 
Q 3647 1150 3233 529 
Q 2819 -91 2034 -91 
Q 1250 -91 836 529 
Q 422 1150 422 2328 
Q 422 3509 836 4129 
Q 1250 4750 2034 4750 
z
" transform="scale(0.015625)"/>
        <path id="DejaVuSans-2e" d="M 684 794 
L 1344 794 
L 1344 0 
L 684 0 
L 684 794 
z
" transform="scale(0.015625)"/>
       </defs>
       <use xlink:href="#DejaVuSans-30"/>
       <use xlink:href="#DejaVuSans-2e" transform="translate(63.623047 0)"/>
       <use xlink:href="#DejaVuSans-30" transform="translate(95.410156 0)"/>
      </g>
     </g>
    </g>
    <g id="xtick_2">
     <g id="line2d_2">
      <g>
       <use xlink:href="#m9e220def04" x="96.671364" y="253.891" style="stroke: #000000; stroke-width: 0.8"/>
      </g>
     </g>
     <g id="text_2">
      <!-- 0.2 -->
      <g transform="translate(88.719801 268.489438) scale(0.1 -0.1)">
       <defs>
        <path id="DejaVuSans-32" d="M 1228 531 
L 3431 531 
L 3431 0 
L 469 0 
L 469 531 
Q 828 903 1448 1529 
Q 2069 2156 2228 2338 
Q 2531 2678 2651 2914 
Q 2772 3150 2772 3378 
Q 2772 3750 2511 3984 
Q 2250 4219 1831 4219 
Q 1534 4219 1204 4116 
Q 875 4013 500 3803 
L 500 4441 
Q 881 4594 1212 4672 
Q 1544 4750 1819 4750 
Q 2544 4750 2975 4387 
Q 3406 4025 3406 3419 
Q 3406 3131 3298 2873 
Q 3191 2616 2906 2266 
Q 2828 2175 2409 1742 
Q 1991 1309 1228 531 
z
" transform="scale(0.015625)"/>
       </defs>
       <use xlink:href="#DejaVuSans-30"/>
       <use xlink:href="#DejaVuSans-2e" transform="translate(63.623047 0)"/>
       <use xlink:href="#DejaVuSans-32" transform="translate(95.410156 0)"/>
      </g>
     </g>
    </g>
    <g id="xtick_3">
     <g id="line2d_3">
      <g>
       <use xlink:href="#m9e220def04" x="135.760455" y="253.891" style="stroke: #000000; stroke-width: 0.8"/>
      </g>
     </g>
     <g id="text_3">
      <!-- 0.4 -->
      <g transform="translate(127.808892 268.489438) scale(0.1 -0.1)">
       <defs>
        <path id="DejaVuSans-34" d="M 2419 4116 
L 825 1625 
L 2419 1625 
L 2419 4116 
z
M 2253 4666 
L 3047 4666 
L 3047 1625 
L 3713 1625 
L 3713 1100 
L 3047 1100 
L 3047 0 
L 2419 0 
L 2419 1100 
L 313 1100 
L 313 1709 
L 2253 4666 
z
" transform="scale(0.015625)"/>
       </defs>
       <use xlink:href="#DejaVuSans-30"/>
       <use xlink:href="#DejaVuSans-2e" transform="translate(63.623047 0)"/>
       <use xlink:href="#DejaVuSans-34" transform="translate(95.410156 0)"/>
      </g>
     </g>
    </g>
    <g id="xtick_4">
     <g id="line2d_4">
      <g>
       <use xlink:href="#m9e220def04" x="174.849545" y="253.891" style="stroke: #000000; stroke-width: 0.8"/>
      </g>
     </g>
     <g id="text_4">
      <!-- 0.6 -->
      <g transform="translate(166.897983 268.489438) scale(0.1 -0.1)">
       <defs>
        <path id="DejaVuSans-36" d="M 2113 2584 
Q 1688 2584 1439 2293 
Q 1191 2003 1191 1497 
Q 1191 994 1439 701 
Q 1688 409 2113 409 
Q 2538 409 2786 701 
Q 3034 994 3034 1497 
Q 3034 2003 2786 2293 
Q 2538 2584 2113 2584 
z
M 3366 4563 
L 3366 3988 
Q 3128 4100 2886 4159 
Q 2644 4219 2406 4219 
Q 1781 4219 1451 3797 
Q 1122 3375 1075 2522 
Q 1259 2794 1537 2939 
Q 1816 3084 2150 3084 
Q 2853 3084 3261 2657 
Q 3669 2231 3669 1497 
Q 3669 778 3244 343 
Q 2819 -91 2113 -91 
Q 1303 -91 875 529 
Q 447 1150 447 2328 
Q 447 3434 972 4092 
Q 1497 4750 2381 4750 
Q 2619 4750 2861 4703 
Q 3103 4656 3366 4563 
z
" transform="scale(0.015625)"/>
       </defs>
       <use xlink:href="#DejaVuSans-30"/>
       <use xlink:href="#DejaVuSans-2e" transform="translate(63.623047 0)"/>
       <use xlink:href="#DejaVuSans-36" transform="translate(95.410156 0)"/>
      </g>
     </g>
    </g>
    <g id="xtick_5">
     <g id="line2d_5">
      <g>
       <use xlink:href="#m9e220def04" x="213.938636" y="253.891" style="stroke: #000000; stroke-width: 0.8"/>
      </g>
     </g>
     <g id="text_5">
      <!-- 0.8 -->
      <g transform="translate(205.987074 268.489438) scale(0.1 -0.1)">
       <defs>
        <path id="DejaVuSans-38" d="M 2034 2216 
Q 1584 2216 1326 1975 
Q 1069 1734 1069 1313 
Q 1069 891 1326 650 
Q 1584 409 2034 409 
Q 2484 409 2743 651 
Q 3003 894 3003 1313 
Q 3003 1734 2745 1975 
Q 2488 2216 2034 2216 
z
M 1403 2484 
Q 997 2584 770 2862 
Q 544 3141 544 3541 
Q 544 4100 942 4425 
Q 1341 4750 2034 4750 
Q 2731 4750 3128 4425 
Q 3525 4100 3525 3541 
Q 3525 3141 3298 2862 
Q 3072 2584 2669 2484 
Q 3125 2378 3379 2068 
Q 3634 1759 3634 1313 
Q 3634 634 3220 271 
Q 2806 -91 2034 -91 
Q 1263 -91 848 271 
Q 434 634 434 1313 
Q 434 1759 690 2068 
Q 947 2378 1403 2484 
z
M 1172 3481 
Q 1172 3119 1398 2916 
Q 1625 2713 2034 2713 
Q 2441 2713 2670 2916 
Q 2900 3119 2900 3481 
Q 2900 3844 2670 4047 
Q 2441 4250 2034 4250 
Q 1625 4250 1398 4047 
Q 1172 3844 1172 3481 
z
" transform="scale(0.015625)"/>
       </defs>
       <use xlink:href="#DejaVuSans-30"/>
       <use xlink:href="#DejaVuSans-2e" transform="translate(63.623047 0)"/>
       <use xlink:href="#DejaVuSans-38" transform="translate(95.410156 0)"/>
      </g>
     </g>
    </g>
    <g id="xtick_6">
     <g id="line2d_6">
      <g>
       <use xlink:href="#m9e220def04" x="253.027727" y="253.891" style="stroke: #000000; stroke-width: 0.8"/>
      </g>
     </g>
     <g id="text_6">
      <!-- 1.0 -->
      <g transform="translate(245.076165 268.489438) scale(0.1 -0.1)">
       <defs>
        <path id="DejaVuSans-31" d="M 794 531 
L 1825 531 
L 1825 4091 
L 703 3866 
L 703 4441 
L 1819 4666 
L 2450 4666 
L 2450 531 
L 3481 531 
L 3481 0 
L 794 0 
L 794 531 
z
" transform="scale(0.015625)"/>
       </defs>
       <use xlink:href="#DejaVuSans-31"/>
       <use xlink:href="#DejaVuSans-2e" transform="translate(63.623047 0)"/>
       <use xlink:href="#DejaVuSans-30" transform="translate(95.410156 0)"/>
      </g>
     </g>
    </g>
    <g id="text_7">
     <!-- False Positive Rate -->
     <g transform="translate(108.838594 282.167562) scale(0.1 -0.1)">
      <defs>
       <path id="DejaVuSans-46" d="M 628 4666 
L 3309 4666 
L 3309 4134 
L 1259 4134 
L 1259 2759 
L 3109 2759 
L 3109 2228 
L 1259 2228 
L 1259 0 
L 628 0 
L 628 4666 
z
" transform="scale(0.015625)"/>
       <path id="DejaVuSans-61" d="M 2194 1759 
Q 1497 1759 1228 1600 
Q 959 1441 959 1056 
Q 959 750 1161 570 
Q 1363 391 1709 391 
Q 2188 391 2477 730 
Q 2766 1069 2766 1631 
L 2766 1759 
L 2194 1759 
z
M 3341 1997 
L 3341 0 
L 2766 0 
L 2766 531 
Q 2569 213 2275 61 
Q 1981 -91 1556 -91 
Q 1019 -91 701 211 
Q 384 513 384 1019 
Q 384 1609 779 1909 
Q 1175 2209 1959 2209 
L 2766 2209 
L 2766 2266 
Q 2766 2663 2505 2880 
Q 2244 3097 1772 3097 
Q 1472 3097 1187 3025 
Q 903 2953 641 2809 
L 641 3341 
Q 956 3463 1253 3523 
Q 1550 3584 1831 3584 
Q 2591 3584 2966 3190 
Q 3341 2797 3341 1997 
z
" transform="scale(0.015625)"/>
       <path id="DejaVuSans-6c" d="M 603 4863 
L 1178 4863 
L 1178 0 
L 603 0 
L 603 4863 
z
" transform="scale(0.015625)"/>
       <path id="DejaVuSans-73" d="M 2834 3397 
L 2834 2853 
Q 2591 2978 2328 3040 
Q 2066 3103 1784 3103 
Q 1356 3103 1142 2972 
Q 928 2841 928 2578 
Q 928 2378 1081 2264 
Q 1234 2150 1697 2047 
L 1894 2003 
Q 2506 1872 2764 1633 
Q 3022 1394 3022 966 
Q 3022 478 2636 193 
Q 2250 -91 1575 -91 
Q 1294 -91 989 -36 
Q 684 19 347 128 
L 347 722 
Q 666 556 975 473 
Q 1284 391 1588 391 
Q 1994 391 2212 530 
Q 2431 669 2431 922 
Q 2431 1156 2273 1281 
Q 2116 1406 1581 1522 
L 1381 1569 
Q 847 1681 609 1914 
Q 372 2147 372 2553 
Q 372 3047 722 3315 
Q 1072 3584 1716 3584 
Q 2034 3584 2315 3537 
Q 2597 3491 2834 3397 
z
" transform="scale(0.015625)"/>
       <path id="DejaVuSans-65" d="M 3597 1894 
L 3597 1613 
L 953 1613 
Q 991 1019 1311 708 
Q 1631 397 2203 397 
Q 2534 397 2845 478 
Q 3156 559 3463 722 
L 3463 178 
Q 3153 47 2828 -22 
Q 2503 -91 2169 -91 
Q 1331 -91 842 396 
Q 353 884 353 1716 
Q 353 2575 817 3079 
Q 1281 3584 2069 3584 
Q 2775 3584 3186 3129 
Q 3597 2675 3597 1894 
z
M 3022 2063 
Q 3016 2534 2758 2815 
Q 2500 3097 2075 3097 
Q 1594 3097 1305 2825 
Q 1016 2553 972 2059 
L 3022 2063 
z
" transform="scale(0.015625)"/>
       <path id="DejaVuSans-20" transform="scale(0.015625)"/>
       <path id="DejaVuSans-50" d="M 1259 4147 
L 1259 2394 
L 2053 2394 
Q 2494 2394 2734 2622 
Q 2975 2850 2975 3272 
Q 2975 3691 2734 3919 
Q 2494 4147 2053 4147 
L 1259 4147 
z
M 628 4666 
L 2053 4666 
Q 2838 4666 3239 4311 
Q 3641 3956 3641 3272 
Q 3641 2581 3239 2228 
Q 2838 1875 2053 1875 
L 1259 1875 
L 1259 0 
L 628 0 
L 628 4666 
z
" transform="scale(0.015625)"/>
       <path id="DejaVuSans-6f" d="M 1959 3097 
Q 1497 3097 1228 2736 
Q 959 2375 959 1747 
Q 959 1119 1226 758 
Q 1494 397 1959 397 
Q 2419 397 2687 759 
Q 2956 1122 2956 1747 
Q 2956 2369 2687 2733 
Q 2419 3097 1959 3097 
z
M 1959 3584 
Q 2709 3584 3137 3096 
Q 3566 2609 3566 1747 
Q 3566 888 3137 398 
Q 2709 -91 1959 -91 
Q 1206 -91 779 398 
Q 353 888 353 1747 
Q 353 2609 779 3096 
Q 1206 3584 1959 3584 
z
" transform="scale(0.015625)"/>
       <path id="DejaVuSans-69" d="M 603 3500 
L 1178 3500 
L 1178 0 
L 603 0 
L 603 3500 
z
M 603 4863 
L 1178 4863 
L 1178 4134 
L 603 4134 
L 603 4863 
z
" transform="scale(0.015625)"/>
       <path id="DejaVuSans-74" d="M 1172 4494 
L 1172 3500 
L 2356 3500 
L 2356 3053 
L 1172 3053 
L 1172 1153 
Q 1172 725 1289 603 
Q 1406 481 1766 481 
L 2356 481 
L 2356 0 
L 1766 0 
Q 1100 0 847 248 
Q 594 497 594 1153 
L 594 3053 
L 172 3053 
L 172 3500 
L 594 3500 
L 594 4494 
L 1172 4494 
z
" transform="scale(0.015625)"/>
       <path id="DejaVuSans-76" d="M 191 3500 
L 800 3500 
L 1894 563 
L 2988 3500 
L 3597 3500 
L 2284 0 
L 1503 0 
L 191 3500 
z
" transform="scale(0.015625)"/>
       <path id="DejaVuSans-52" d="M 2841 2188 
Q 3044 2119 3236 1894 
Q 3428 1669 3622 1275 
L 4263 0 
L 3584 0 
L 2988 1197 
Q 2756 1666 2539 1819 
Q 2322 1972 1947 1972 
L 1259 1972 
L 1259 0 
L 628 0 
L 628 4666 
L 2053 4666 
Q 2853 4666 3247 4331 
Q 3641 3997 3641 3322 
Q 3641 2881 3436 2590 
Q 3231 2300 2841 2188 
z
M 1259 4147 
L 1259 2491 
L 2053 2491 
Q 2509 2491 2742 2702 
Q 2975 2913 2975 3322 
Q 2975 3731 2742 3939 
Q 2509 4147 2053 4147 
L 1259 4147 
z
" transform="scale(0.015625)"/>
      </defs>
      <use xlink:href="#DejaVuSans-46"/>
      <use xlink:href="#DejaVuSans-61" transform="translate(48.394531 0)"/>
      <use xlink:href="#DejaVuSans-6c" transform="translate(109.673828 0)"/>
      <use xlink:href="#DejaVuSans-73" transform="translate(137.457031 0)"/>
      <use xlink:href="#DejaVuSans-65" transform="translate(189.556641 0)"/>
      <use xlink:href="#DejaVuSans-20" transform="translate(251.080078 0)"/>
      <use xlink:href="#DejaVuSans-50" transform="translate(282.867188 0)"/>
      <use xlink:href="#DejaVuSans-6f" transform="translate(339.544922 0)"/>
      <use xlink:href="#DejaVuSans-73" transform="translate(400.726562 0)"/>
      <use xlink:href="#DejaVuSans-69" transform="translate(452.826172 0)"/>
      <use xlink:href="#DejaVuSans-74" transform="translate(480.609375 0)"/>
      <use xlink:href="#DejaVuSans-69" transform="translate(519.818359 0)"/>
      <use xlink:href="#DejaVuSans-76" transform="translate(547.601562 0)"/>
      <use xlink:href="#DejaVuSans-65" transform="translate(606.78125 0)"/>
      <use xlink:href="#DejaVuSans-20" transform="translate(668.304688 0)"/>
      <use xlink:href="#DejaVuSans-52" transform="translate(700.091797 0)"/>
      <use xlink:href="#DejaVuSans-61" transform="translate(767.324219 0)"/>
      <use xlink:href="#DejaVuSans-74" transform="translate(828.603516 0)"/>
      <use xlink:href="#DejaVuSans-65" transform="translate(867.8125 0)"/>
     </g>
    </g>
   </g>
   <g id="matplotlib.axis_2">
    <g id="ytick_1">
     <g id="line2d_7">
      <defs>
       <path id="m1e0e82a0f5" d="M 0 0 
L -3.5 0 
" style="stroke: #000000; stroke-width: 0.8"/>
      </defs>
      <g>
       <use xlink:href="#m1e0e82a0f5" x="47.81" y="244.118727" style="stroke: #000000; stroke-width: 0.8"/>
      </g>
     </g>
     <g id="text_8">
      <!-- 0.0 -->
      <g transform="translate(24.906875 247.917946) scale(0.1 -0.1)">
       <use xlink:href="#DejaVuSans-30"/>
       <use xlink:href="#DejaVuSans-2e" transform="translate(63.623047 0)"/>
       <use xlink:href="#DejaVuSans-30" transform="translate(95.410156 0)"/>
      </g>
     </g>
    </g>
    <g id="ytick_2">
     <g id="line2d_8">
      <g>
       <use xlink:href="#m1e0e82a0f5" x="47.81" y="205.029636" style="stroke: #000000; stroke-width: 0.8"/>
      </g>
     </g>
     <g id="text_9">
      <!-- 0.2 -->
      <g transform="translate(24.906875 208.828855) scale(0.1 -0.1)">
       <use xlink:href="#DejaVuSans-30"/>
       <use xlink:href="#DejaVuSans-2e" transform="translate(63.623047 0)"/>
       <use xlink:href="#DejaVuSans-32" transform="translate(95.410156 0)"/>
      </g>
     </g>
    </g>
    <g id="ytick_3">
     <g id="line2d_9">
      <g>
       <use xlink:href="#m1e0e82a0f5" x="47.81" y="165.940545" style="stroke: #000000; stroke-width: 0.8"/>
      </g>
     </g>
     <g id="text_10">
      <!-- 0.4 -->
      <g transform="translate(24.906875 169.739764) scale(0.1 -0.1)">
       <use xlink:href="#DejaVuSans-30"/>
       <use xlink:href="#DejaVuSans-2e" transform="translate(63.623047 0)"/>
       <use xlink:href="#DejaVuSans-34" transform="translate(95.410156 0)"/>
      </g>
     </g>
    </g>
    <g id="ytick_4">
     <g id="line2d_10">
      <g>
       <use xlink:href="#m1e0e82a0f5" x="47.81" y="126.851455" style="stroke: #000000; stroke-width: 0.8"/>
      </g>
     </g>
     <g id="text_11">
      <!-- 0.6 -->
      <g transform="translate(24.906875 130.650673) scale(0.1 -0.1)">
       <use xlink:href="#DejaVuSans-30"/>
       <use xlink:href="#DejaVuSans-2e" transform="translate(63.623047 0)"/>
       <use xlink:href="#DejaVuSans-36" transform="translate(95.410156 0)"/>
      </g>
     </g>
    </g>
    <g id="ytick_5">
     <g id="line2d_11">
      <g>
       <use xlink:href="#m1e0e82a0f5" x="47.81" y="87.762364" style="stroke: #000000; stroke-width: 0.8"/>
      </g>
     </g>
     <g id="text_12">
      <!-- 0.8 -->
      <g transform="translate(24.906875 91.561582) scale(0.1 -0.1)">
       <use xlink:href="#DejaVuSans-30"/>
       <use xlink:href="#DejaVuSans-2e" transform="translate(63.623047 0)"/>
       <use xlink:href="#DejaVuSans-38" transform="translate(95.410156 0)"/>
      </g>
     </g>
    </g>
    <g id="ytick_6">
     <g id="line2d_12">
      <g>
       <use xlink:href="#m1e0e82a0f5" x="47.81" y="48.673273" style="stroke: #000000; stroke-width: 0.8"/>
      </g>
     </g>
     <g id="text_13">
      <!-- 1.0 -->
      <g transform="translate(24.906875 52.472491) scale(0.1 -0.1)">
       <use xlink:href="#DejaVuSans-31"/>
       <use xlink:href="#DejaVuSans-2e" transform="translate(63.623047 0)"/>
       <use xlink:href="#DejaVuSans-30" transform="translate(95.410156 0)"/>
      </g>
     </g>
    </g>
    <g id="text_14">
     <!-- True Positive Rate -->
     <g transform="translate(18.827187 190.925687) rotate(-90) scale(0.1 -0.1)">
      <defs>
       <path id="DejaVuSans-54" d="M -19 4666 
L 3928 4666 
L 3928 4134 
L 2272 4134 
L 2272 0 
L 1638 0 
L 1638 4134 
L -19 4134 
L -19 4666 
z
" transform="scale(0.015625)"/>
       <path id="DejaVuSans-72" d="M 2631 2963 
Q 2534 3019 2420 3045 
Q 2306 3072 2169 3072 
Q 1681 3072 1420 2755 
Q 1159 2438 1159 1844 
L 1159 0 
L 581 0 
L 581 3500 
L 1159 3500 
L 1159 2956 
Q 1341 3275 1631 3429 
Q 1922 3584 2338 3584 
Q 2397 3584 2469 3576 
Q 2541 3569 2628 3553 
L 2631 2963 
z
" transform="scale(0.015625)"/>
       <path id="DejaVuSans-75" d="M 544 1381 
L 544 3500 
L 1119 3500 
L 1119 1403 
Q 1119 906 1312 657 
Q 1506 409 1894 409 
Q 2359 409 2629 706 
Q 2900 1003 2900 1516 
L 2900 3500 
L 3475 3500 
L 3475 0 
L 2900 0 
L 2900 538 
Q 2691 219 2414 64 
Q 2138 -91 1772 -91 
Q 1169 -91 856 284 
Q 544 659 544 1381 
z
M 1991 3584 
L 1991 3584 
z
" transform="scale(0.015625)"/>
      </defs>
      <use xlink:href="#DejaVuSans-54"/>
      <use xlink:href="#DejaVuSans-72" transform="translate(46.333984 0)"/>
      <use xlink:href="#DejaVuSans-75" transform="translate(87.447266 0)"/>
      <use xlink:href="#DejaVuSans-65" transform="translate(150.826172 0)"/>
      <use xlink:href="#DejaVuSans-20" transform="translate(212.349609 0)"/>
      <use xlink:href="#DejaVuSans-50" transform="translate(244.136719 0)"/>
      <use xlink:href="#DejaVuSans-6f" transform="translate(300.814453 0)"/>
      <use xlink:href="#DejaVuSans-73" transform="translate(361.996094 0)"/>
      <use xlink:href="#DejaVuSans-69" transform="translate(414.095703 0)"/>
      <use xlink:href="#DejaVuSans-74" transform="translate(441.878906 0)"/>
      <use xlink:href="#DejaVuSans-69" transform="translate(481.087891 0)"/>
      <use xlink:href="#DejaVuSans-76" transform="translate(508.871094 0)"/>
      <use xlink:href="#DejaVuSans-65" transform="translate(568.050781 0)"/>
      <use xlink:href="#DejaVuSans-20" transform="translate(629.574219 0)"/>
      <use xlink:href="#DejaVuSans-52" transform="translate(661.361328 0)"/>
      <use xlink:href="#DejaVuSans-61" transform="translate(728.59375 0)"/>
      <use xlink:href="#DejaVuSans-74" transform="translate(789.873047 0)"/>
      <use xlink:href="#DejaVuSans-65" transform="translate(829.082031 0)"/>
     </g>
    </g>
   </g>
   <g id="line2d_13">
    <path d="M 57.582273 244.118727 
L 57.582273 242.789166 
L 57.582273 240.130045 
L 59.828772 240.130045 
L 59.828772 228.163996 
L 62.075272 228.163996 
L 62.075272 225.504874 
L 66.568271 225.504874 
L 66.568271 222.845753 
L 73.307769 222.845753 
L 73.307769 221.516192 
L 80.047268 221.516192 
L 80.047268 217.527509 
L 82.293767 217.527509 
L 82.293767 210.879704 
L 84.540266 210.879704 
L 84.540266 205.561461 
L 86.786766 205.561461 
L 86.786766 185.618047 
L 89.033265 185.618047 
L 89.033265 182.958925 
L 93.526264 182.958925 
L 93.526264 181.629364 
L 95.772764 181.629364 
L 95.772764 177.640682 
L 100.265763 177.640682 
L 100.265763 176.311121 
L 102.512262 176.311121 
L 102.512262 173.651999 
L 107.005261 173.651999 
L 107.005261 170.992877 
L 111.49826 170.992877 
L 111.49826 167.004194 
L 118.237759 167.004194 
L 118.237759 165.674633 
L 120.484258 165.674633 
L 120.484258 159.026829 
L 122.730758 159.026829 
L 122.730758 153.708585 
L 127.223757 153.708585 
L 127.223757 152.379024 
L 129.470256 152.379024 
L 129.470256 151.049463 
L 131.716755 151.049463 
L 131.716755 147.06078 
L 133.963255 147.06078 
L 133.963255 145.73122 
L 138.456254 145.73122 
L 138.456254 143.072098 
L 142.949253 143.072098 
L 142.949253 141.742537 
L 149.688751 141.742537 
L 149.688751 140.412976 
L 154.18175 140.412976 
L 154.18175 136.424293 
L 156.42825 136.424293 
L 156.42825 135.094732 
L 160.921249 135.094732 
L 160.921249 133.765171 
L 163.167748 133.765171 
L 163.167748 132.43561 
L 165.414248 132.43561 
L 165.414248 128.446928 
L 169.907247 128.446928 
L 169.907247 127.117367 
L 174.400246 127.117367 
L 174.400246 120.469562 
L 178.893245 120.469562 
L 178.893245 117.81044 
L 183.386243 117.81044 
L 183.386243 115.151318 
L 185.632743 115.151318 
L 185.632743 113.821758 
L 187.879242 113.821758 
L 187.879242 109.833075 
L 190.125742 109.833075 
L 190.125742 105.844392 
L 194.618741 105.844392 
L 194.618741 100.526148 
L 196.86524 100.526148 
L 196.86524 97.867027 
L 201.358239 97.867027 
L 201.358239 95.207905 
L 203.604739 95.207905 
L 203.604739 91.219222 
L 205.851238 91.219222 
L 205.851238 88.5601 
L 208.097738 88.5601 
L 208.097738 87.230539 
L 210.344237 87.230539 
L 210.344237 85.900978 
L 212.590737 85.900978 
L 212.590737 81.912296 
L 214.837236 81.912296 
L 214.837236 80.582735 
L 217.083736 80.582735 
L 217.083736 72.605369 
L 221.576735 72.605369 
L 221.576735 71.275808 
L 228.316233 71.275808 
L 228.316233 67.287126 
L 230.562732 67.287126 
L 230.562732 60.639321 
L 235.055731 60.639321 
L 235.055731 59.30976 
L 239.54873 59.30976 
L 239.54873 55.321077 
L 241.79523 55.321077 
L 241.79523 53.991516 
L 244.041729 53.991516 
L 244.041729 52.661955 
L 248.534728 52.661955 
L 248.534728 48.673273 
L 253.027727 48.673273 
" clip-path="url(#p870ca3db72)" style="fill: none; stroke: #1f77b4; stroke-width: 1.5; stroke-linecap: square"/>
   </g>
   <g id="line2d_14">
    <path d="M 57.582273 244.118727 
L 253.027727 48.673273 
" clip-path="url(#p870ca3db72)" style="fill: none; stroke-dasharray: 5.55,2.4; stroke-dashoffset: 0; stroke: #ff0000; stroke-width: 1.5"/>
   </g>
   <g id="patch_3">
    <path d="M 47.81 253.891 
L 47.81 38.901 
" style="fill: none; stroke: #000000; stroke-width: 0.8; stroke-linejoin: miter; stroke-linecap: square"/>
   </g>
   <g id="patch_4">
    <path d="M 262.8 253.891 
L 262.8 38.901 
" style="fill: none; stroke: #000000; stroke-width: 0.8; stroke-linejoin: miter; stroke-linecap: square"/>
   </g>
   <g id="patch_5">
    <path d="M 47.81 253.891 
L 262.8 253.891 
" style="fill: none; stroke: #000000; stroke-width: 0.8; stroke-linejoin: miter; stroke-linecap: square"/>
   </g>
   <g id="patch_6">
    <path d="M 47.81 38.901 
L 262.8 38.901 
" style="fill: none; stroke: #000000; stroke-width: 0.8; stroke-linejoin: miter; stroke-linecap: square"/>
   </g>
   <g id="text_15">
    <!-- Early recurrence = 1 -->
    <g transform="translate(93.282812 19.463625) scale(0.12 -0.12)">
     <defs>
      <path id="DejaVuSans-45" d="M 628 4666 
L 3578 4666 
L 3578 4134 
L 1259 4134 
L 1259 2753 
L 3481 2753 
L 3481 2222 
L 1259 2222 
L 1259 531 
L 3634 531 
L 3634 0 
L 628 0 
L 628 4666 
z
" transform="scale(0.015625)"/>
      <path id="DejaVuSans-79" d="M 2059 -325 
Q 1816 -950 1584 -1140 
Q 1353 -1331 966 -1331 
L 506 -1331 
L 506 -850 
L 844 -850 
Q 1081 -850 1212 -737 
Q 1344 -625 1503 -206 
L 1606 56 
L 191 3500 
L 800 3500 
L 1894 763 
L 2988 3500 
L 3597 3500 
L 2059 -325 
z
" transform="scale(0.015625)"/>
      <path id="DejaVuSans-63" d="M 3122 3366 
L 3122 2828 
Q 2878 2963 2633 3030 
Q 2388 3097 2138 3097 
Q 1578 3097 1268 2742 
Q 959 2388 959 1747 
Q 959 1106 1268 751 
Q 1578 397 2138 397 
Q 2388 397 2633 464 
Q 2878 531 3122 666 
L 3122 134 
Q 2881 22 2623 -34 
Q 2366 -91 2075 -91 
Q 1284 -91 818 406 
Q 353 903 353 1747 
Q 353 2603 823 3093 
Q 1294 3584 2113 3584 
Q 2378 3584 2631 3529 
Q 2884 3475 3122 3366 
z
" transform="scale(0.015625)"/>
      <path id="DejaVuSans-6e" d="M 3513 2113 
L 3513 0 
L 2938 0 
L 2938 2094 
Q 2938 2591 2744 2837 
Q 2550 3084 2163 3084 
Q 1697 3084 1428 2787 
Q 1159 2491 1159 1978 
L 1159 0 
L 581 0 
L 581 3500 
L 1159 3500 
L 1159 2956 
Q 1366 3272 1645 3428 
Q 1925 3584 2291 3584 
Q 2894 3584 3203 3211 
Q 3513 2838 3513 2113 
z
" transform="scale(0.015625)"/>
      <path id="DejaVuSans-3d" d="M 678 2906 
L 4684 2906 
L 4684 2381 
L 678 2381 
L 678 2906 
z
M 678 1631 
L 4684 1631 
L 4684 1100 
L 678 1100 
L 678 1631 
z
" transform="scale(0.015625)"/>
     </defs>
     <use xlink:href="#DejaVuSans-45"/>
     <use xlink:href="#DejaVuSans-61" transform="translate(63.183594 0)"/>
     <use xlink:href="#DejaVuSans-72" transform="translate(124.462891 0)"/>
     <use xlink:href="#DejaVuSans-6c" transform="translate(165.576172 0)"/>
     <use xlink:href="#DejaVuSans-79" transform="translate(193.359375 0)"/>
     <use xlink:href="#DejaVuSans-20" transform="translate(252.539062 0)"/>
     <use xlink:href="#DejaVuSans-72" transform="translate(284.326172 0)"/>
     <use xlink:href="#DejaVuSans-65" transform="translate(323.189453 0)"/>
     <use xlink:href="#DejaVuSans-63" transform="translate(384.712891 0)"/>
     <use xlink:href="#DejaVuSans-75" transform="translate(439.693359 0)"/>
     <use xlink:href="#DejaVuSans-72" transform="translate(503.072266 0)"/>
     <use xlink:href="#DejaVuSans-72" transform="translate(542.435547 0)"/>
     <use xlink:href="#DejaVuSans-65" transform="translate(581.298828 0)"/>
     <use xlink:href="#DejaVuSans-6e" transform="translate(642.822266 0)"/>
     <use xlink:href="#DejaVuSans-63" transform="translate(706.201172 0)"/>
     <use xlink:href="#DejaVuSans-65" transform="translate(761.181641 0)"/>
     <use xlink:href="#DejaVuSans-20" transform="translate(822.705078 0)"/>
     <use xlink:href="#DejaVuSans-3d" transform="translate(854.492188 0)"/>
     <use xlink:href="#DejaVuSans-20" transform="translate(938.28125 0)"/>
     <use xlink:href="#DejaVuSans-31" transform="translate(970.068359 0)"/>
    </g>
    <!-- AUROC = 0.55 [0.48-0.63] -->
    <g transform="translate(76.054375 32.901) scale(0.12 -0.12)">
     <defs>
      <path id="DejaVuSans-41" d="M 2188 4044 
L 1331 1722 
L 3047 1722 
L 2188 4044 
z
M 1831 4666 
L 2547 4666 
L 4325 0 
L 3669 0 
L 3244 1197 
L 1141 1197 
L 716 0 
L 50 0 
L 1831 4666 
z
" transform="scale(0.015625)"/>
      <path id="DejaVuSans-55" d="M 556 4666 
L 1191 4666 
L 1191 1831 
Q 1191 1081 1462 751 
Q 1734 422 2344 422 
Q 2950 422 3222 751 
Q 3494 1081 3494 1831 
L 3494 4666 
L 4128 4666 
L 4128 1753 
Q 4128 841 3676 375 
Q 3225 -91 2344 -91 
Q 1459 -91 1007 375 
Q 556 841 556 1753 
L 556 4666 
z
" transform="scale(0.015625)"/>
      <path id="DejaVuSans-4f" d="M 2522 4238 
Q 1834 4238 1429 3725 
Q 1025 3213 1025 2328 
Q 1025 1447 1429 934 
Q 1834 422 2522 422 
Q 3209 422 3611 934 
Q 4013 1447 4013 2328 
Q 4013 3213 3611 3725 
Q 3209 4238 2522 4238 
z
M 2522 4750 
Q 3503 4750 4090 4092 
Q 4678 3434 4678 2328 
Q 4678 1225 4090 567 
Q 3503 -91 2522 -91 
Q 1538 -91 948 565 
Q 359 1222 359 2328 
Q 359 3434 948 4092 
Q 1538 4750 2522 4750 
z
" transform="scale(0.015625)"/>
      <path id="DejaVuSans-43" d="M 4122 4306 
L 4122 3641 
Q 3803 3938 3442 4084 
Q 3081 4231 2675 4231 
Q 1875 4231 1450 3742 
Q 1025 3253 1025 2328 
Q 1025 1406 1450 917 
Q 1875 428 2675 428 
Q 3081 428 3442 575 
Q 3803 722 4122 1019 
L 4122 359 
Q 3791 134 3420 21 
Q 3050 -91 2638 -91 
Q 1578 -91 968 557 
Q 359 1206 359 2328 
Q 359 3453 968 4101 
Q 1578 4750 2638 4750 
Q 3056 4750 3426 4639 
Q 3797 4528 4122 4306 
z
" transform="scale(0.015625)"/>
      <path id="DejaVuSans-35" d="M 691 4666 
L 3169 4666 
L 3169 4134 
L 1269 4134 
L 1269 2991 
Q 1406 3038 1543 3061 
Q 1681 3084 1819 3084 
Q 2600 3084 3056 2656 
Q 3513 2228 3513 1497 
Q 3513 744 3044 326 
Q 2575 -91 1722 -91 
Q 1428 -91 1123 -41 
Q 819 9 494 109 
L 494 744 
Q 775 591 1075 516 
Q 1375 441 1709 441 
Q 2250 441 2565 725 
Q 2881 1009 2881 1497 
Q 2881 1984 2565 2268 
Q 2250 2553 1709 2553 
Q 1456 2553 1204 2497 
Q 953 2441 691 2322 
L 691 4666 
z
" transform="scale(0.015625)"/>
      <path id="DejaVuSans-5b" d="M 550 4863 
L 1875 4863 
L 1875 4416 
L 1125 4416 
L 1125 -397 
L 1875 -397 
L 1875 -844 
L 550 -844 
L 550 4863 
z
" transform="scale(0.015625)"/>
      <path id="DejaVuSans-2d" d="M 313 2009 
L 1997 2009 
L 1997 1497 
L 313 1497 
L 313 2009 
z
" transform="scale(0.015625)"/>
      <path id="DejaVuSans-33" d="M 2597 2516 
Q 3050 2419 3304 2112 
Q 3559 1806 3559 1356 
Q 3559 666 3084 287 
Q 2609 -91 1734 -91 
Q 1441 -91 1130 -33 
Q 819 25 488 141 
L 488 750 
Q 750 597 1062 519 
Q 1375 441 1716 441 
Q 2309 441 2620 675 
Q 2931 909 2931 1356 
Q 2931 1769 2642 2001 
Q 2353 2234 1838 2234 
L 1294 2234 
L 1294 2753 
L 1863 2753 
Q 2328 2753 2575 2939 
Q 2822 3125 2822 3475 
Q 2822 3834 2567 4026 
Q 2313 4219 1838 4219 
Q 1578 4219 1281 4162 
Q 984 4106 628 3988 
L 628 4550 
Q 988 4650 1302 4700 
Q 1616 4750 1894 4750 
Q 2613 4750 3031 4423 
Q 3450 4097 3450 3541 
Q 3450 3153 3228 2886 
Q 3006 2619 2597 2516 
z
" transform="scale(0.015625)"/>
      <path id="DejaVuSans-5d" d="M 1947 4863 
L 1947 -844 
L 622 -844 
L 622 -397 
L 1369 -397 
L 1369 4416 
L 622 4416 
L 622 4863 
L 1947 4863 
z
" transform="scale(0.015625)"/>
     </defs>
     <use xlink:href="#DejaVuSans-41"/>
     <use xlink:href="#DejaVuSans-55" transform="translate(68.408203 0)"/>
     <use xlink:href="#DejaVuSans-52" transform="translate(141.601562 0)"/>
     <use xlink:href="#DejaVuSans-4f" transform="translate(211.083984 0)"/>
     <use xlink:href="#DejaVuSans-43" transform="translate(289.794922 0)"/>
     <use xlink:href="#DejaVuSans-20" transform="translate(359.619141 0)"/>
     <use xlink:href="#DejaVuSans-3d" transform="translate(391.40625 0)"/>
     <use xlink:href="#DejaVuSans-20" transform="translate(475.195312 0)"/>
     <use xlink:href="#DejaVuSans-30" transform="translate(506.982422 0)"/>
     <use xlink:href="#DejaVuSans-2e" transform="translate(570.605469 0)"/>
     <use xlink:href="#DejaVuSans-35" transform="translate(602.392578 0)"/>
     <use xlink:href="#DejaVuSans-35" transform="translate(666.015625 0)"/>
     <use xlink:href="#DejaVuSans-20" transform="translate(729.638672 0)"/>
     <use xlink:href="#DejaVuSans-5b" transform="translate(761.425781 0)"/>
     <use xlink:href="#DejaVuSans-30" transform="translate(800.439453 0)"/>
     <use xlink:href="#DejaVuSans-2e" transform="translate(864.0625 0)"/>
     <use xlink:href="#DejaVuSans-34" transform="translate(895.849609 0)"/>
     <use xlink:href="#DejaVuSans-38" transform="translate(959.472656 0)"/>
     <use xlink:href="#DejaVuSans-2d" transform="translate(1023.095703 0)"/>
     <use xlink:href="#DejaVuSans-30" transform="translate(1059.179688 0)"/>
     <use xlink:href="#DejaVuSans-2e" transform="translate(1122.802734 0)"/>
     <use xlink:href="#DejaVuSans-36" transform="translate(1154.589844 0)"/>
     <use xlink:href="#DejaVuSans-33" transform="translate(1218.212891 0)"/>
     <use xlink:href="#DejaVuSans-5d" transform="translate(1281.835938 0)"/>
    </g>
   </g>
  </g>
 </g>
 <defs>
  <clipPath id="p870ca3db72">
   <rect x="47.81" y="38.901" width="214.99" height="214.99"/>
  </clipPath>
 </defs>
</svg>
