<?xml version="1.0" encoding="utf-8" standalone="no"?>
<!DOCTYPE svg PUBLIC "-//W3C//DTD SVG 1.1//EN"
  "http://www.w3.org/Graphics/SVG/1.1/DTD/svg11.dtd">
<svg xmlns:xlink="http://www.w3.org/1999/xlink" width="273.6pt" height="295.488pt" viewBox="0 0 273.6 295.488" xmlns="http://www.w3.org/2000/svg" version="1.1">
 <metadata>
  <rdf:RDF xmlns:dc="http://purl.org/dc/elements/1.1/" xmlns:cc="http://creativecommons.org/ns#" xmlns:rdf="http://www.w3.org/1999/02/22-rdf-syntax-ns#">
   <cc:Work>
    <dc:type rdf:resource="http://purl.org/dc/dcmitype/StillImage"/>
    <dc:date>2026-05-08T19:16:26.467860</dc:date>
    <dc:format>image/svg+xml</dc:format>
    <dc:creator>
     <cc:Agent>
      <dc:title>Matplotlib v3.10.8, https://matplotlib.org/</dc:title>
     </cc:Agent>
    </dc:creator>
   </cc:Work>
  </rdf:RDF>
 </metadata>
 <defs>
  <style type="text/css">*{stroke-linejoin: round; stroke-linecap: butt}</style>
 </defs>
 <g id="figure_1">
  <g id="patch_1">
   <path d="M 0 295.488 
L 273.6 295.488 
L 273.6 0 
L 0 0 
z
" style="fill: #ffffff"/>
  </g>
  <g id="axes_1">
   <g id="patch_2">
    <path d="M 47.81 253.891 
L 262.8 253.891 
L 262.8 38.901 
L 47.81 38.901 
z
" style="fill: #ffffff"/>
   </g>
   <g id="FillBetweenPolyCollection_1">
    <path d="M 57.582273 212.389776 
L 57.582273 242.889511 
L 57.777914 242.889511 
L 57.973555 242.889511 
L 58.169196 242.889511 
L 58.364837 242.889511 
L 58.560478 242.889511 
L 58.756119 242.889511 
L 58.95176 242.889511 
L 59.147401 242.889511 
L 59.343043 242.889511 
L 59.538684 242.881925 
L 59.734325 242.857991 
L 59.929966 242.824599 
L 60.125607 242.780287 
L 60.321248 242.761932 
L 60.516889 242.761932 
L 60.71253 242.761932 
L 60.908171 242.761932 
L 61.103812 242.761932 
L 61.299454 242.761932 
L 61.495095 242.761932 
L 61.690736 242.761467 
L 61.886377 242.761467 
L 62.082018 242.692377 
L 62.277659 242.639431 
L 62.4733 241.69972 
L 62.668941 241.614582 
L 62.864582 241.513219 
L 63.060223 241.513219 
L 63.255865 241.513219 
L 63.451506 241.460498 
L 63.647147 241.441848 
L 63.842788 241.441392 
L 64.038429 241.404207 
L 64.23407 241.223771 
L 64.429711 240.103408 
L 64.625352 240.075721 
L 64.820993 238.803143 
L 65.016634 238.614184 
L 65.212275 238.497368 
L 65.407917 237.786962 
L 65.603558 237.691688 
L 65.799199 237.691688 
L 65.99484 237.691688 
L 66.190481 237.383752 
L 66.386122 236.746842 
L 66.581763 236.199198 
L 66.777404 236.035427 
L 66.973045 235.976571 
L 67.168686 235.801899 
L 67.364328 235.560623 
L 67.559969 235.064187 
L 67.75561 234.879277 
L 67.951251 234.749648 
L 68.146892 234.136055 
L 68.342533 234.059035 
L 68.538174 234.031915 
L 68.733815 233.111539 
L 68.929456 233.111539 
L 69.125097 232.874711 
L 69.320738 232.874711 
L 69.51638 232.082609 
L 69.712021 231.824283 
L 69.907662 231.673672 
L 70.103303 230.913358 
L 70.298944 230.893591 
L 70.494585 230.453586 
L 70.690226 230.162812 
L 70.885867 229.787725 
L 71.081508 229.400797 
L 71.277149 229.19144 
L 71.472791 229.087072 
L 71.668432 228.797042 
L 71.864073 228.655267 
L 72.059714 227.372605 
L 72.255355 226.767655 
L 72.450996 226.480389 
L 72.646637 225.28303 
L 72.842278 224.433574 
L 73.037919 223.300271 
L 73.23356 223.134794 
L 73.429201 222.881072 
L 73.624843 222.723467 
L 73.820484 222.54798 
L 74.016125 222.406091 
L 74.211766 222.402566 
L 74.407407 222.118329 
L 74.603048 221.680062 
L 74.798689 221.204433 
L 74.99433 221.204433 
L 75.189971 220.61042 
L 75.385612 220.50903 
L 75.581254 220.218652 
L 75.776895 220.186631 
L 75.972536 220.186631 
L 76.168177 220.02681 
L 76.363818 219.860687 
L 76.559459 219.860687 
L 76.7551 219.860687 
L 76.950741 219.688045 
L 77.146382 219.538235 
L 77.342023 219.538235 
L 77.537664 219.517631 
L 77.733306 218.961959 
L 77.928947 218.858142 
L 78.124588 218.858142 
L 78.320229 218.858142 
L 78.51587 218.81044 
L 78.711511 218.81044 
L 78.907152 218.81044 
L 79.102793 218.81044 
L 79.298434 218.687175 
L 79.494075 218.687175 
L 79.689717 218.687175 
L 79.885358 218.57169 
L 80.080999 218.510175 
L 80.27664 217.880955 
L 80.472281 217.36236 
L 80.667922 217.345776 
L 80.863563 217.345776 
L 81.059204 217.345776 
L 81.254845 217.345776 
L 81.450486 217.16535 
L 81.646127 217.16535 
L 81.841769 216.600757 
L 82.03741 216.600757 
L 82.233051 216.600757 
L 82.428692 216.207317 
L 82.624333 216.207317 
L 82.819974 216.207317 
L 83.015615 216.197948 
L 83.211256 216.197948 
L 83.406897 216.197948 
L 83.602538 216.197948 
L 83.79818 216.002101 
L 83.993821 215.499353 
L 84.189462 215.499353 
L 84.385103 215.266649 
L 84.580744 215.261009 
L 84.776385 214.95072 
L 84.972026 214.379225 
L 85.167667 214.379225 
L 85.363308 214.261956 
L 85.558949 214.242147 
L 85.75459 214.242147 
L 85.950232 214.052939 
L 86.145873 214.050196 
L 86.341514 214.050196 
L 86.537155 214.050196 
L 86.732796 214.050196 
L 86.928437 214.050196 
L 87.124078 214.050196 
L 87.319719 213.843739 
L 87.51536 213.409194 
L 87.711001 213.122343 
L 87.906643 213.117034 
L 88.102284 212.907127 
L 88.297925 212.901745 
L 88.493566 212.688902 
L 88.689207 212.683444 
L 88.884848 212.507073 
L 89.080489 212.4258 
L 89.27613 212.214655 
L 89.471771 212.214655 
L 89.667412 212.014817 
L 89.863054 211.774234 
L 90.058695 211.774234 
L 90.254336 211.774234 
L 90.449977 211.774234 
L 90.645618 211.774234 
L 90.841259 211.774234 
L 91.0369 211.328004 
L 91.232541 211.328004 
L 91.428182 211.328004 
L 91.623823 211.328004 
L 91.819464 211.109602 
L 92.015106 210.827705 
L 92.210747 210.827705 
L 92.406388 210.616443 
L 92.602029 210.616443 
L 92.79767 210.613792 
L 92.993311 210.613792 
L 93.188952 210.021088 
L 93.384593 210.021088 
L 93.580234 210.021088 
L 93.775875 209.951547 
L 93.971517 209.951547 
L 94.167158 209.787871 
L 94.362799 209.787871 
L 94.55844 208.959675 
L 94.754081 208.58319 
L 94.949722 208.339196 
L 95.145363 208.248005 
L 95.341004 207.886402 
L 95.536645 207.886402 
L 95.732286 207.886402 
L 95.927927 207.886402 
L 96.123569 207.886402 
L 96.31921 207.637822 
L 96.514851 207.637822 
L 96.710492 207.150814 
L 96.906133 207.150814 
L 97.101774 206.89731 
L 97.297415 206.775426 
L 97.493056 206.775426 
L 97.688697 206.636839 
L 97.884338 206.636839 
L 98.07998 206.259462 
L 98.275621 206.259462 
L 98.471262 206.156919 
L 98.666903 206.156919 
L 98.862544 206.154502 
L 99.058185 206.154502 
L 99.253826 206.116421 
L 99.449467 206.015571 
L 99.645108 204.331325 
L 99.840749 204.234288 
L 100.03639 204.234288 
L 100.232032 204.10871 
L 100.427673 203.411104 
L 100.623314 203.411104 
L 100.818955 202.340992 
L 101.014596 201.690834 
L 101.210237 201.690834 
L 101.405878 201.690834 
L 101.601519 201.257813 
L 101.79716 201.257813 
L 101.992801 201.150909 
L 102.188443 200.551891 
L 102.384084 200.250628 
L 102.579725 199.638038 
L 102.775366 198.435368 
L 102.971007 198.435368 
L 103.166648 198.435368 
L 103.362289 198.435368 
L 103.55793 198.435368 
L 103.753571 197.430118 
L 103.949212 197.268943 
L 104.144853 197.268943 
L 104.340495 197.265365 
L 104.536136 196.996919 
L 104.731777 196.283165 
L 104.927418 196.181855 
L 105.123059 196.181855 
L 105.3187 194.915676 
L 105.514341 193.686663 
L 105.709982 193.686663 
L 105.905623 193.681191 
L 106.101264 193.205009 
L 106.296906 193.205009 
L 106.492547 190.165824 
L 106.688188 190.165824 
L 106.883829 190.165824 
L 107.07947 190.035214 
L 107.275111 188.293154 
L 107.470752 188.293154 
L 107.666393 187.724614 
L 107.862034 187.724614 
L 108.057675 187.724614 
L 108.253316 187.616753 
L 108.448958 187.509376 
L 108.644599 187.509376 
L 108.84024 187.509376 
L 109.035881 187.37976 
L 109.231522 187.37976 
L 109.427163 187.017254 
L 109.622804 186.949119 
L 109.818445 186.949119 
L 110.014086 186.949119 
L 110.209727 185.651286 
L 110.405369 185.488415 
L 110.60101 185.488415 
L 110.796651 185.240784 
L 110.992292 185.240784 
L 111.187933 185.217786 
L 111.383574 185.217786 
L 111.579215 185.217786 
L 111.774856 185.217786 
L 111.970497 185.094721 
L 112.166138 184.579052 
L 112.36178 184.192044 
L 112.557421 184.074979 
L 112.753062 184.074979 
L 112.948703 183.787171 
L 113.144344 183.787171 
L 113.339985 183.787171 
L 113.535626 182.7966 
L 113.731267 182.7966 
L 113.926908 182.693013 
L 114.122549 182.693013 
L 114.31819 182.693013 
L 114.513832 182.067625 
L 114.709473 182.067625 
L 114.905114 181.934539 
L 115.100755 181.585066 
L 115.296396 181.249382 
L 115.492037 181.249382 
L 115.687678 180.709833 
L 115.883319 180.601381 
L 116.07896 180.387301 
L 116.274601 180.387301 
L 116.470243 180.276045 
L 116.665884 180.276045 
L 116.861525 180.276045 
L 117.057166 179.481635 
L 117.252807 179.460363 
L 117.448448 179.460363 
L 117.644089 179.460363 
L 117.83973 178.10534 
L 118.035371 177.770516 
L 118.231012 177.643759 
L 118.426653 177.616752 
L 118.622295 177.616752 
L 118.817936 177.150605 
L 119.013577 177.147907 
L 119.209218 177.147907 
L 119.404859 176.734347 
L 119.6005 176.257107 
L 119.796141 175.977127 
L 119.991782 175.969983 
L 120.187423 175.969983 
L 120.383064 175.969983 
L 120.578706 175.849767 
L 120.774347 175.849767 
L 120.969988 175.313575 
L 121.165629 175.313575 
L 121.36127 174.686232 
L 121.556911 174.686232 
L 121.752552 174.686232 
L 121.948193 174.510264 
L 122.143834 173.862132 
L 122.339475 173.862132 
L 122.535116 173.862132 
L 122.730758 172.810609 
L 122.926399 172.810609 
L 123.12204 172.810609 
L 123.317681 172.810609 
L 123.513322 172.063257 
L 123.708963 171.68824 
L 123.904604 171.68824 
L 124.100245 171.68824 
L 124.295886 171.332144 
L 124.491527 171.332144 
L 124.687169 171.332144 
L 124.88281 171.010685 
L 125.078451 170.357832 
L 125.274092 170.251872 
L 125.469733 169.20038 
L 125.665374 167.830874 
L 125.861015 167.830874 
L 126.056656 167.348537 
L 126.252297 166.990343 
L 126.447938 166.755634 
L 126.643579 166.755634 
L 126.839221 166.679996 
L 127.034862 165.953489 
L 127.230503 165.953489 
L 127.426144 165.953489 
L 127.621785 165.940545 
L 127.817426 165.940545 
L 128.013067 165.137345 
L 128.208708 165.137345 
L 128.404349 164.642815 
L 128.59999 164.593769 
L 128.795632 164.095566 
L 128.991273 163.798677 
L 129.186914 163.798677 
L 129.382555 163.346208 
L 129.578196 163.346208 
L 129.773837 163.01625 
L 129.969478 163.01625 
L 130.165119 163.01625 
L 130.36076 162.991053 
L 130.556401 162.991053 
L 130.752042 162.690804 
L 130.947684 162.164788 
L 131.143325 161.8342 
L 131.338966 161.254607 
L 131.534607 161.254607 
L 131.730248 161.124308 
L 131.925889 161.124308 
L 132.12153 161.124308 
L 132.317171 160.952086 
L 132.512812 160.952086 
L 132.708453 160.751979 
L 132.904095 160.712483 
L 133.099736 160.169002 
L 133.295377 160.150055 
L 133.491018 159.615469 
L 133.686659 159.615469 
L 133.8823 159.384743 
L 134.077941 159.380139 
L 134.273582 159.380139 
L 134.469223 159.380139 
L 134.664864 159.380139 
L 134.860506 159.205524 
L 135.056147 159.031184 
L 135.251788 159.031184 
L 135.447429 159.031184 
L 135.64307 159.031184 
L 135.838711 158.861526 
L 136.034352 158.861526 
L 136.229993 157.273063 
L 136.425634 156.967956 
L 136.621275 156.847249 
L 136.816916 156.651578 
L 137.012558 156.651578 
L 137.208199 156.37468 
L 137.40384 156.37468 
L 137.599481 156.293866 
L 137.795122 156.293866 
L 137.990763 156.293866 
L 138.186404 156.293866 
L 138.382045 156.293866 
L 138.577686 156.293866 
L 138.773327 156.293866 
L 138.968969 156.293866 
L 139.16461 155.864011 
L 139.360251 155.520592 
L 139.555892 155.519869 
L 139.751533 155.519869 
L 139.947174 155.166334 
L 140.142815 155.166334 
L 140.338456 155.166334 
L 140.534097 154.817918 
L 140.729738 154.597528 
L 140.925379 154.597528 
L 141.121021 154.540874 
L 141.316662 154.540874 
L 141.512303 154.540874 
L 141.707944 154.386961 
L 141.903585 154.386961 
L 142.099226 154.386961 
L 142.294867 154.116165 
L 142.490508 153.918078 
L 142.686149 153.918078 
L 142.88179 153.913133 
L 143.077432 153.81204 
L 143.273073 153.015543 
L 143.468714 153.015543 
L 143.664355 152.748311 
L 143.859996 152.748311 
L 144.055637 152.723827 
L 144.251278 152.635865 
L 144.446919 152.385389 
L 144.64256 152.385389 
L 144.838201 152.385389 
L 145.033842 152.385389 
L 145.229484 152.385389 
L 145.425125 152.385389 
L 145.620766 152.385389 
L 145.816407 152.385389 
L 146.012048 151.688107 
L 146.207689 151.065184 
L 146.40333 150.871537 
L 146.598971 150.423377 
L 146.794612 150.307586 
L 146.990253 149.734527 
L 147.185895 149.734527 
L 147.381536 149.734527 
L 147.577177 149.56726 
L 147.772818 149.548346 
L 147.968459 149.548346 
L 148.1641 149.236538 
L 148.359741 149.18909 
L 148.555382 149.18909 
L 148.751023 149.038989 
L 148.946664 148.814613 
L 149.142305 148.455197 
L 149.337947 148.455197 
L 149.533588 148.455197 
L 149.729229 147.913094 
L 149.92487 147.913094 
L 150.120511 147.913094 
L 150.316152 147.877217 
L 150.511793 147.703412 
L 150.707434 147.69897 
L 150.903075 147.69897 
L 151.098716 147.603613 
L 151.294358 147.603613 
L 151.489999 147.188399 
L 151.68564 147.099562 
L 151.881281 147.099562 
L 152.076922 147.099562 
L 152.272563 147.099562 
L 152.468204 147.099562 
L 152.663845 147.012819 
L 152.859486 146.411365 
L 153.055127 146.396 
L 153.250768 146.396 
L 153.44641 146.396 
L 153.642051 146.396 
L 153.837692 146.396 
L 154.033333 146.396 
L 154.228974 145.749644 
L 154.424615 145.62819 
L 154.620256 145.62819 
L 154.815897 145.62819 
L 155.011538 145.62819 
L 155.207179 145.62819 
L 155.402821 143.1178 
L 155.598462 143.1178 
L 155.794103 143.1178 
L 155.989744 143.1178 
L 156.185385 143.1178 
L 156.381026 143.073213 
L 156.576667 142.597172 
L 156.772308 142.382675 
L 156.967949 142.382675 
L 157.16359 142.382675 
L 157.359232 142.100898 
L 157.554873 142.100898 
L 157.750514 141.388577 
L 157.946155 141.05391 
L 158.141796 141.05391 
L 158.337437 140.868945 
L 158.533078 140.653027 
L 158.728719 140.653027 
L 158.92436 140.075175 
L 159.120001 140.050825 
L 159.315642 139.885382 
L 159.511284 139.885382 
L 159.706925 139.885382 
L 159.902566 139.374658 
L 160.098207 139.109932 
L 160.293848 138.665289 
L 160.489489 138.552472 
L 160.68513 138.40968 
L 160.880771 138.40968 
L 161.076412 138.40968 
L 161.272053 138.31598 
L 161.467695 138.14214 
L 161.663336 137.852573 
L 161.858977 137.520444 
L 162.054618 137.259705 
L 162.250259 137.259705 
L 162.4459 137.154571 
L 162.641541 136.77113 
L 162.837182 136.298618 
L 163.032823 135.699148 
L 163.228464 135.68666 
L 163.424105 135.68666 
L 163.619747 135.401417 
L 163.815388 134.984369 
L 164.011029 134.984369 
L 164.20667 134.510803 
L 164.402311 134.445962 
L 164.597952 134.3504 
L 164.793593 134.3504 
L 164.989234 134.3504 
L 165.184875 134.105969 
L 165.380516 133.603673 
L 165.576158 133.491768 
L 165.771799 133.491768 
L 165.96744 133.014784 
L 166.163081 133.014784 
L 166.358722 133.014784 
L 166.554363 132.619361 
L 166.750004 132.619361 
L 166.945645 132.264398 
L 167.141286 131.851589 
L 167.336927 131.851589 
L 167.532568 131.270501 
L 167.72821 131.270501 
L 167.923851 130.97334 
L 168.119492 130.97334 
L 168.315133 130.97334 
L 168.510774 130.97334 
L 168.706415 130.231786 
L 168.902056 130.231786 
L 169.097697 129.803522 
L 169.293338 129.803522 
L 169.488979 129.803522 
L 169.684621 128.572358 
L 169.880262 128.572358 
L 170.075903 128.208679 
L 170.271544 127.850009 
L 170.467185 127.633384 
L 170.662826 127.633384 
L 170.858467 127.130134 
L 171.054108 127.130134 
L 171.249749 126.858102 
L 171.44539 126.858102 
L 171.641031 126.858102 
L 171.836673 126.095154 
L 172.032314 126.095154 
L 172.227955 126.095154 
L 172.423596 124.980323 
L 172.619237 124.980323 
L 172.814878 124.611113 
L 173.010519 124.377572 
L 173.20616 123.651578 
L 173.401801 123.650938 
L 173.597442 123.553899 
L 173.793084 123.553899 
L 173.988725 123.328307 
L 174.184366 123.328307 
L 174.380007 123.328307 
L 174.575648 122.435811 
L 174.771289 122.435811 
L 174.96693 121.128299 
L 175.162571 121.128299 
L 175.358212 120.757669 
L 175.553853 120.757669 
L 175.749494 120.305725 
L 175.945136 120.299214 
L 176.140777 120.299214 
L 176.336418 119.98764 
L 176.532059 119.98764 
L 176.7277 119.98764 
L 176.923341 119.98764 
L 177.118982 119.968256 
L 177.314623 119.63128 
L 177.510264 119.290292 
L 177.705905 119.250798 
L 177.901547 119.250798 
L 178.097188 119.250798 
L 178.292829 119.250798 
L 178.48847 118.284401 
L 178.684111 118.284401 
L 178.879752 118.284401 
L 179.075393 117.597915 
L 179.271034 117.511181 
L 179.466675 117.511181 
L 179.662316 117.279235 
L 179.857958 116.950445 
L 180.053599 116.950445 
L 180.24924 116.714014 
L 180.444881 116.332689 
L 180.640522 116.332689 
L 180.836163 116.169284 
L 181.031804 115.98241 
L 181.227445 115.98241 
L 181.423086 115.824148 
L 181.618727 115.824148 
L 181.814368 115.195047 
L 182.01001 115.189708 
L 182.205651 115.189708 
L 182.401292 115.189708 
L 182.596933 115.152011 
L 182.792574 115.076531 
L 182.988215 114.766442 
L 183.183856 114.270381 
L 183.379497 114.270381 
L 183.575138 114.270381 
L 183.770779 114.270381 
L 183.966421 114.247021 
L 184.162062 114.247021 
L 184.357703 113.831874 
L 184.553344 113.831874 
L 184.748985 113.006477 
L 184.944626 113.006477 
L 185.140267 113.006477 
L 185.335908 112.965354 
L 185.531549 112.965354 
L 185.72719 111.999229 
L 185.922831 111.999229 
L 186.118473 111.947971 
L 186.314114 111.597439 
L 186.509755 111.597439 
L 186.705396 111.545009 
L 186.901037 111.545009 
L 187.096678 111.44657 
L 187.292319 111.112458 
L 187.48796 111.112458 
L 187.683601 111.112458 
L 187.879242 111.107237 
L 188.074884 111.107237 
L 188.270525 111.107237 
L 188.466166 111.107237 
L 188.661807 109.50939 
L 188.857448 109.50939 
L 189.053089 109.50939 
L 189.24873 109.50939 
L 189.444371 109.422019 
L 189.640012 109.014511 
L 189.835653 109.014511 
L 190.031294 108.915781 
L 190.226936 108.904891 
L 190.422577 108.904891 
L 190.618218 107.938465 
L 190.813859 107.938465 
L 191.0095 107.937378 
L 191.205141 107.059429 
L 191.400782 106.921528 
L 191.596423 106.921528 
L 191.792064 106.921528 
L 191.987705 106.251355 
L 192.183347 106.251355 
L 192.378988 106.251355 
L 192.574629 106.251355 
L 192.77027 106.251355 
L 192.965911 106.247809 
L 193.161552 105.41903 
L 193.357193 105.41903 
L 193.552834 105.28506 
L 193.748475 105.218049 
L 193.944116 105.218049 
L 194.139757 105.218049 
L 194.335399 104.905306 
L 194.53104 104.178748 
L 194.726681 104.178748 
L 194.922322 104.178748 
L 195.117963 104.178748 
L 195.313604 104.138339 
L 195.509245 104.137523 
L 195.704886 104.137523 
L 195.900527 104.137523 
L 196.096168 103.769577 
L 196.29181 103.129788 
L 196.487451 102.824492 
L 196.683092 102.760261 
L 196.878733 102.640515 
L 197.074374 102.548396 
L 197.270015 102.228125 
L 197.465656 102.228125 
L 197.661297 101.982663 
L 197.856938 101.858731 
L 198.052579 101.855709 
L 198.24822 101.144339 
L 198.443862 100.702896 
L 198.639503 100.702896 
L 198.835144 100.612039 
L 199.030785 100.2342 
L 199.226426 100.2342 
L 199.422067 100.177209 
L 199.617708 100.177209 
L 199.813349 99.965763 
L 200.00899 99.965763 
L 200.204631 99.895134 
L 200.400273 99.895134 
L 200.595914 99.247957 
L 200.791555 99.19775 
L 200.987196 99.071157 
L 201.182837 99.034394 
L 201.378478 98.636772 
L 201.574119 98.605398 
L 201.76976 98.4955 
L 201.965401 97.901321 
L 202.161042 97.543424 
L 202.356684 97.534636 
L 202.552325 97.534636 
L 202.747966 97.534636 
L 202.943607 97.534636 
L 203.139248 96.847366 
L 203.334889 96.847366 
L 203.53053 96.847366 
L 203.726171 96.564507 
L 203.921812 96.564507 
L 204.117453 96.564507 
L 204.313094 96.538126 
L 204.508736 96.538126 
L 204.704377 96.537466 
L 204.900018 96.537466 
L 205.095659 96.537466 
L 205.2913 96.51027 
L 205.486941 96.51027 
L 205.682582 96.51027 
L 205.878223 96.147872 
L 206.073864 95.856983 
L 206.269505 95.529243 
L 206.465147 95.529243 
L 206.660788 95.385671 
L 206.856429 95.383507 
L 207.05207 95.383507 
L 207.247711 95.347731 
L 207.443352 95.347731 
L 207.638993 95.347731 
L 207.834634 95.347731 
L 208.030275 95.347731 
L 208.225916 94.896868 
L 208.421557 94.82195 
L 208.617199 94.157363 
L 208.81284 94.157363 
L 209.008481 94.157363 
L 209.204122 93.979677 
L 209.399763 93.679633 
L 209.595404 93.668141 
L 209.791045 93.668141 
L 209.986686 93.575511 
L 210.182327 93.490894 
L 210.377968 93.490894 
L 210.57361 93.209595 
L 210.769251 93.209595 
L 210.964892 93.209595 
L 211.160533 92.552085 
L 211.356174 91.697551 
L 211.551815 91.299365 
L 211.747456 91.299365 
L 211.943097 91.220971 
L 212.138738 91.219222 
L 212.334379 91.219222 
L 212.53002 90.471178 
L 212.725662 90.370761 
L 212.921303 90.370761 
L 213.116944 90.368303 
L 213.312585 90.368303 
L 213.508226 89.823306 
L 213.703867 89.823306 
L 213.899508 89.823306 
L 214.095149 89.165684 
L 214.29079 89.165684 
L 214.486431 88.040235 
L 214.682073 88.008847 
L 214.877714 87.762364 
L 215.073355 87.762364 
L 215.268996 87.762364 
L 215.464637 87.248033 
L 215.660278 87.248033 
L 215.855919 87.212719 
L 216.05156 86.781532 
L 216.247201 86.679116 
L 216.442842 86.679116 
L 216.638483 85.566258 
L 216.834125 85.162792 
L 217.029766 85.162792 
L 217.225407 85.162792 
L 217.421048 85.162792 
L 217.616689 85.162792 
L 217.81233 84.586043 
L 218.007971 84.586043 
L 218.203612 84.328862 
L 218.399253 84.211811 
L 218.594894 84.211811 
L 218.790536 83.537354 
L 218.986177 83.241857 
L 219.181818 82.56193 
L 219.377459 82.327248 
L 219.5731 82.13996 
L 219.768741 81.712164 
L 219.964382 81.712164 
L 220.160023 81.258091 
L 220.355664 81.258091 
L 220.551305 81.003103 
L 220.746946 81.003103 
L 220.942588 81.003103 
L 221.138229 81.003103 
L 221.33387 80.11502 
L 221.529511 79.895713 
L 221.725152 79.797538 
L 221.920793 79.738894 
L 222.116434 79.333191 
L 222.312075 79.333191 
L 222.507716 79.135326 
L 222.703357 79.048697 
L 222.898999 78.976685 
L 223.09464 78.747631 
L 223.290281 78.747631 
L 223.485922 78.207056 
L 223.681563 78.207056 
L 223.877204 78.207056 
L 224.072845 78.207056 
L 224.268486 78.207056 
L 224.464127 78.056975 
L 224.659768 77.196094 
L 224.85541 77.149444 
L 225.051051 77.149444 
L 225.246692 76.415136 
L 225.442333 76.415136 
L 225.637974 76.415136 
L 225.833615 76.415136 
L 226.029256 76.205916 
L 226.224897 75.82322 
L 226.420538 75.71604 
L 226.616179 75.675605 
L 226.81182 75.632375 
L 227.007462 75.089312 
L 227.203103 75.084821 
L 227.398744 75.084821 
L 227.594385 74.839628 
L 227.790026 74.839628 
L 227.985667 74.495534 
L 228.181308 74.495534 
L 228.376949 74.486823 
L 228.57259 74.486823 
L 228.768231 74.486823 
L 228.963873 73.994718 
L 229.159514 73.854329 
L 229.355155 73.659981 
L 229.550796 73.659981 
L 229.746437 73.597327 
L 229.942078 73.595847 
L 230.137719 73.595847 
L 230.33336 73.414075 
L 230.529001 73.414075 
L 230.724642 73.413204 
L 230.920283 72.94741 
L 231.115925 72.935467 
L 231.311566 72.925874 
L 231.507207 72.925874 
L 231.702848 72.925874 
L 231.898489 72.925874 
L 232.09413 72.609467 
L 232.289771 72.443666 
L 232.485412 72.237618 
L 232.681053 71.58955 
L 232.876694 71.587567 
L 233.072336 71.458566 
L 233.267977 71.125628 
L 233.463618 71.125628 
L 233.659259 71.125628 
L 233.8549 70.697893 
L 234.050541 70.697893 
L 234.246182 70.259592 
L 234.441823 70.259592 
L 234.637464 69.94989 
L 234.833105 69.946247 
L 235.028746 69.946247 
L 235.224388 69.764509 
L 235.420029 69.764509 
L 235.61567 69.467958 
L 235.811311 69.467958 
L 236.006952 69.467958 
L 236.202593 69.25195 
L 236.398234 69.115375 
L 236.593875 69.03417 
L 236.789516 69.03417 
L 236.985157 68.481934 
L 237.180799 68.352313 
L 237.37644 68.352313 
L 237.572081 68.221097 
L 237.767722 68.221097 
L 237.963363 68.217818 
L 238.159004 68.217818 
L 238.354645 68.079434 
L 238.550286 67.712608 
L 238.745927 67.675795 
L 238.941568 67.635412 
L 239.137209 67.546132 
L 239.332851 67.417849 
L 239.528492 67.1645 
L 239.724133 67.085469 
L 239.919774 67.038463 
L 240.115415 66.662426 
L 240.311056 66.662426 
L 240.506697 66.659901 
L 240.702338 66.659901 
L 240.897979 66.329276 
L 241.09362 66.329276 
L 241.289262 66.317873 
L 241.484903 66.21586 
L 241.680544 66.196401 
L 241.876185 65.562504 
L 242.071826 65.076731 
L 242.267467 65.076731 
L 242.463108 64.633252 
L 242.658749 64.628004 
L 242.85439 64.267428 
L 243.050031 64.267428 
L 243.245672 64.206751 
L 243.441314 64.140179 
L 243.636955 64.104102 
L 243.832596 64.103177 
L 244.028237 63.92535 
L 244.223878 63.815648 
L 244.419519 63.710185 
L 244.61516 63.398615 
L 244.810801 62.913394 
L 245.006442 62.913394 
L 245.202083 62.72956 
L 245.397725 62.635943 
L 245.593366 62.524234 
L 245.789007 62.066969 
L 245.984648 61.707372 
L 246.180289 61.431199 
L 246.37593 61.065085 
L 246.571571 60.976201 
L 246.767212 60.341658 
L 246.962853 59.948972 
L 247.158494 59.948972 
L 247.354135 59.609209 
L 247.549777 59.609209 
L 247.745418 59.609209 
L 247.941059 59.382613 
L 248.1367 58.765757 
L 248.332341 58.588982 
L 248.527982 58.240533 
L 248.723623 57.051013 
L 248.919264 55.231845 
L 249.114905 54.829766 
L 249.310546 54.342586 
L 249.506188 54.342586 
L 249.701829 54.342586 
L 249.89747 54.259452 
L 250.093111 54.259452 
L 250.288752 54.257429 
L 250.484393 54.217825 
L 250.680034 53.992427 
L 250.875675 52.986178 
L 251.071316 52.609081 
L 251.266957 52.609081 
L 251.462599 52.609081 
L 251.65824 52.609081 
L 251.853881 52.609081 
L 252.049522 52.609081 
L 252.245163 52.609081 
L 252.440804 52.609081 
L 252.636445 52.609081 
L 252.832086 52.609081 
L 253.027727 48.673273 
L 253.027727 48.673273 
L 253.027727 48.673273 
L 252.832086 48.673273 
L 252.636445 48.673273 
L 252.440804 48.673273 
L 252.245163 48.673273 
L 252.049522 48.673273 
L 251.853881 48.673273 
L 251.65824 48.673273 
L 251.462599 48.673273 
L 251.266957 48.673273 
L 251.071316 48.673273 
L 250.875675 48.673273 
L 250.680034 48.673273 
L 250.484393 48.673273 
L 250.288752 48.673273 
L 250.093111 48.673273 
L 249.89747 48.673273 
L 249.701829 48.673273 
L 249.506188 48.673273 
L 249.310546 48.673273 
L 249.114905 48.673273 
L 248.919264 48.673273 
L 248.723623 48.673273 
L 248.527982 48.673273 
L 248.332341 48.673273 
L 248.1367 48.673273 
L 247.941059 48.673273 
L 247.745418 48.673273 
L 247.549777 48.673273 
L 247.354135 48.673273 
L 247.158494 48.673273 
L 246.962853 48.673273 
L 246.767212 48.673273 
L 246.571571 48.673273 
L 246.37593 48.673273 
L 246.180289 48.673273 
L 245.984648 48.673273 
L 245.789007 48.673273 
L 245.593366 48.673273 
L 245.397725 48.673273 
L 245.202083 48.673273 
L 245.006442 48.673273 
L 244.810801 48.673273 
L 244.61516 48.673273 
L 244.419519 48.673273 
L 244.223878 48.673273 
L 244.028237 48.673273 
L 243.832596 48.673273 
L 243.636955 48.673273 
L 243.441314 48.673273 
L 243.245672 48.673273 
L 243.050031 48.673273 
L 242.85439 48.673273 
L 242.658749 48.673273 
L 242.463108 48.673273 
L 242.267467 48.673273 
L 242.071826 48.673273 
L 241.876185 48.673273 
L 241.680544 48.673273 
L 241.484903 48.673273 
L 241.289262 48.673273 
L 241.09362 48.673273 
L 240.897979 48.673273 
L 240.702338 48.673273 
L 240.506697 48.673273 
L 240.311056 48.673273 
L 240.115415 48.673273 
L 239.919774 48.673273 
L 239.724133 48.673273 
L 239.528492 48.673273 
L 239.332851 48.673273 
L 239.137209 48.673273 
L 238.941568 48.673273 
L 238.745927 48.673273 
L 238.550286 48.673273 
L 238.354645 48.673273 
L 238.159004 48.673273 
L 237.963363 48.673273 
L 237.767722 48.673273 
L 237.572081 48.673273 
L 237.37644 48.673273 
L 237.180799 48.673273 
L 236.985157 48.673273 
L 236.789516 48.673273 
L 236.593875 49.89443 
L 236.398234 49.917951 
L 236.202593 49.917951 
L 236.006952 49.934009 
L 235.811311 49.934009 
L 235.61567 49.934009 
L 235.420029 49.950694 
L 235.224388 49.96719 
L 235.028746 49.967613 
L 234.833105 49.976242 
L 234.637464 49.976242 
L 234.441823 50.011713 
L 234.246182 50.020942 
L 234.050541 50.021172 
L 233.8549 50.021172 
L 233.659259 50.049649 
L 233.463618 50.078612 
L 233.267977 50.109596 
L 233.072336 51.19515 
L 232.876694 51.278781 
L 232.681053 51.296702 
L 232.485412 51.296702 
L 232.289771 51.369072 
L 232.09413 51.369072 
L 231.898489 51.387325 
L 231.702848 51.444579 
L 231.507207 51.445549 
L 231.311566 51.445549 
L 231.115925 51.547471 
L 230.920283 51.589829 
L 230.724642 51.870123 
L 230.529001 51.870123 
L 230.33336 51.870123 
L 230.137719 52.348832 
L 229.942078 52.477658 
L 229.746437 52.505537 
L 229.550796 52.505537 
L 229.355155 52.505537 
L 229.159514 52.505537 
L 228.963873 52.530118 
L 228.768231 52.689275 
L 228.57259 52.890024 
L 228.376949 52.890024 
L 228.181308 53.113557 
L 227.985667 53.356087 
L 227.790026 53.487832 
L 227.594385 53.782128 
L 227.398744 53.815734 
L 227.203103 53.849784 
L 227.007462 53.919256 
L 226.81182 53.954696 
L 226.616179 53.954696 
L 226.420538 53.954696 
L 226.224897 53.954696 
L 226.029256 53.955582 
L 225.833615 53.990618 
L 225.637974 54.334369 
L 225.442333 54.334369 
L 225.246692 54.338358 
L 225.051051 54.462136 
L 224.85541 54.462136 
L 224.659768 54.507465 
L 224.464127 54.700588 
L 224.268486 54.974972 
L 224.072845 54.974972 
L 223.877204 55.017881 
L 223.681563 55.144977 
L 223.485922 55.144977 
L 223.290281 55.187043 
L 223.09464 55.187043 
L 222.898999 55.187043 
L 222.703357 55.187043 
L 222.507716 55.187043 
L 222.312075 55.275052 
L 222.116434 55.598029 
L 221.920793 55.65223 
L 221.725152 55.80126 
L 221.529511 55.806319 
L 221.33387 55.910883 
L 221.138229 56.018125 
L 220.942588 56.018125 
L 220.746946 56.04788 
L 220.551305 56.04788 
L 220.355664 56.190406 
L 220.160023 56.190406 
L 219.964382 56.237691 
L 219.768741 56.237691 
L 219.5731 56.286803 
L 219.377459 56.336556 
L 219.181818 56.336556 
L 218.986177 56.386964 
L 218.790536 56.386964 
L 218.594894 56.386964 
L 218.399253 56.43804 
L 218.203612 56.43804 
L 218.007971 56.43804 
L 217.81233 56.699923 
L 217.616689 56.699923 
L 217.421048 56.699923 
L 217.225407 56.872358 
L 217.029766 56.872358 
L 216.834125 56.872358 
L 216.638483 56.872358 
L 216.442842 56.872358 
L 216.247201 56.987193 
L 216.05156 57.108261 
L 215.855919 57.357689 
L 215.660278 57.357689 
L 215.464637 57.552222 
L 215.268996 57.853744 
L 215.073355 57.853744 
L 214.877714 57.853744 
L 214.682073 58.106955 
L 214.486431 58.106955 
L 214.29079 58.172455 
L 214.095149 58.172455 
L 213.899508 58.445545 
L 213.703867 58.445545 
L 213.508226 58.654187 
L 213.312585 58.732044 
L 213.116944 58.732044 
L 212.921303 58.805619 
L 212.725662 58.805619 
L 212.53002 58.805619 
L 212.334379 58.805619 
L 212.138738 58.890514 
L 211.943097 59.022486 
L 211.747456 59.022486 
L 211.551815 59.09703 
L 211.356174 59.09703 
L 211.160533 59.09703 
L 210.964892 59.165239 
L 210.769251 59.449233 
L 210.57361 59.682359 
L 210.377968 59.682359 
L 210.182327 59.682359 
L 209.986686 59.682359 
L 209.791045 59.760424 
L 209.595404 59.760424 
L 209.399763 59.760424 
L 209.204122 59.944307 
L 209.008481 59.944307 
L 208.81284 60.25123 
L 208.617199 60.25123 
L 208.421557 60.25123 
L 208.225916 60.255226 
L 208.030275 60.255226 
L 207.834634 60.255226 
L 207.638993 60.255226 
L 207.443352 60.255226 
L 207.247711 60.255226 
L 207.05207 60.255226 
L 206.856429 60.729362 
L 206.660788 60.802706 
L 206.465147 61.142017 
L 206.269505 61.142017 
L 206.073864 61.142017 
L 205.878223 61.142017 
L 205.682582 61.142017 
L 205.486941 61.235396 
L 205.2913 61.236728 
L 205.095659 61.363623 
L 204.900018 61.363623 
L 204.704377 61.418336 
L 204.508736 61.419715 
L 204.313094 61.419715 
L 204.117453 61.531057 
L 203.921812 61.531057 
L 203.726171 61.531057 
L 203.53053 61.605272 
L 203.334889 61.605272 
L 203.139248 61.783945 
L 202.943607 61.790417 
L 202.747966 61.876831 
L 202.552325 61.996098 
L 202.356684 62.245874 
L 202.161042 62.821234 
L 201.965401 63.001691 
L 201.76976 63.001691 
L 201.574119 63.001691 
L 201.378478 63.001691 
L 201.182837 63.099727 
L 200.987196 63.149499 
L 200.791555 63.327158 
L 200.595914 63.367501 
L 200.400273 63.367501 
L 200.204631 63.496876 
L 200.00899 64.024294 
L 199.813349 64.202807 
L 199.617708 64.202807 
L 199.422067 64.203732 
L 199.226426 64.203732 
L 199.030785 64.203732 
L 198.835144 64.307493 
L 198.639503 64.308909 
L 198.443862 64.308909 
L 198.24822 64.308909 
L 198.052579 64.357167 
L 197.856938 64.412429 
L 197.661297 64.412429 
L 197.465656 64.549732 
L 197.270015 64.549732 
L 197.074374 64.626134 
L 196.878733 64.626134 
L 196.683092 64.845723 
L 196.487451 64.845723 
L 196.29181 64.845723 
L 196.096168 65.060037 
L 195.900527 65.303553 
L 195.704886 65.604255 
L 195.509245 66.043986 
L 195.313604 66.100147 
L 195.117963 66.100147 
L 194.922322 66.100147 
L 194.726681 66.193608 
L 194.53104 66.559954 
L 194.335399 66.566166 
L 194.139757 66.566166 
L 193.944116 66.566166 
L 193.748475 66.820487 
L 193.552834 66.912522 
L 193.357193 66.912522 
L 193.161552 67.155194 
L 192.965911 67.155194 
L 192.77027 67.155194 
L 192.574629 67.341779 
L 192.378988 67.54262 
L 192.183347 67.54262 
L 191.987705 67.586262 
L 191.792064 68.202056 
L 191.596423 68.34571 
L 191.400782 68.34571 
L 191.205141 68.34571 
L 191.0095 68.34571 
L 190.813859 68.47861 
L 190.618218 68.47861 
L 190.422577 68.47861 
L 190.226936 68.47861 
L 190.031294 68.591281 
L 189.835653 68.591281 
L 189.640012 68.591281 
L 189.444371 68.751441 
L 189.24873 69.38113 
L 189.053089 69.517336 
L 188.857448 69.517336 
L 188.661807 69.829501 
L 188.466166 70.382429 
L 188.270525 70.382429 
L 188.074884 70.382429 
L 187.879242 70.382429 
L 187.683601 70.819686 
L 187.48796 70.819686 
L 187.292319 70.819686 
L 187.096678 70.968702 
L 186.901037 71.665081 
L 186.705396 71.665081 
L 186.509755 72.07059 
L 186.314114 72.405935 
L 186.118473 72.47668 
L 185.922831 72.47668 
L 185.72719 72.746917 
L 185.531549 73.103955 
L 185.335908 73.280398 
L 185.140267 73.429697 
L 184.944626 73.591694 
L 184.748985 73.591694 
L 184.553344 73.760033 
L 184.357703 73.760033 
L 184.162062 73.760033 
L 183.966421 73.764243 
L 183.770779 73.764243 
L 183.575138 73.842277 
L 183.379497 73.842277 
L 183.183856 73.932664 
L 182.988215 73.932664 
L 182.792574 74.80195 
L 182.596933 74.802351 
L 182.401292 75.117305 
L 182.205651 75.440407 
L 182.01001 75.440407 
L 181.814368 75.850969 
L 181.618727 75.850969 
L 181.423086 75.850969 
L 181.227445 75.850969 
L 181.031804 75.850969 
L 180.836163 75.850969 
L 180.640522 75.850969 
L 180.444881 75.850969 
L 180.24924 76.035636 
L 180.053599 76.059911 
L 179.857958 76.060534 
L 179.662316 76.177414 
L 179.466675 76.180411 
L 179.271034 76.180411 
L 179.075393 76.180411 
L 178.879752 76.589101 
L 178.684111 76.589101 
L 178.48847 76.594052 
L 178.292829 76.594052 
L 178.097188 76.952246 
L 177.901547 76.998701 
L 177.705905 77.612419 
L 177.510264 77.673689 
L 177.314623 77.673689 
L 177.118982 77.673689 
L 176.923341 77.673689 
L 176.7277 77.983488 
L 176.532059 77.983488 
L 176.336418 77.983488 
L 176.140777 77.983488 
L 175.945136 78.438214 
L 175.749494 78.547606 
L 175.553853 78.639293 
L 175.358212 78.639293 
L 175.162571 78.641576 
L 174.96693 78.641576 
L 174.771289 78.641576 
L 174.575648 78.641576 
L 174.380007 78.641576 
L 174.184366 78.919073 
L 173.988725 78.935419 
L 173.793084 79.075165 
L 173.597442 79.378374 
L 173.401801 79.378374 
L 173.20616 79.378374 
L 173.010519 79.378374 
L 172.814878 79.38613 
L 172.619237 79.529408 
L 172.423596 79.529408 
L 172.227955 79.529408 
L 172.032314 79.732342 
L 171.836673 79.830342 
L 171.641031 80.581257 
L 171.44539 80.997085 
L 171.249749 80.997085 
L 171.054108 80.997085 
L 170.858467 80.997085 
L 170.662826 80.997085 
L 170.467185 81.241392 
L 170.271544 81.241392 
L 170.075903 81.247515 
L 169.880262 81.247515 
L 169.684621 81.247515 
L 169.488979 81.247515 
L 169.293338 81.247515 
L 169.097697 82.13996 
L 168.902056 82.550485 
L 168.706415 82.550485 
L 168.510774 82.550485 
L 168.315133 82.714407 
L 168.119492 82.714407 
L 167.923851 82.714407 
L 167.72821 82.714407 
L 167.532568 82.714407 
L 167.336927 82.71861 
L 167.141286 83.080824 
L 166.945645 83.080824 
L 166.750004 83.163647 
L 166.554363 83.563982 
L 166.358722 83.853455 
L 166.163081 83.853455 
L 165.96744 83.976396 
L 165.771799 84.086813 
L 165.576158 84.32288 
L 165.380516 84.970286 
L 165.184875 85.005187 
L 164.989234 85.005187 
L 164.793593 85.005187 
L 164.597952 85.561324 
L 164.402311 85.561324 
L 164.20667 85.647593 
L 164.011029 86.499251 
L 163.815388 87.467863 
L 163.619747 87.762364 
L 163.424105 88.018148 
L 163.228464 88.018148 
L 163.032823 88.018148 
L 162.837182 88.546715 
L 162.641541 88.58819 
L 162.4459 88.58819 
L 162.250259 88.68329 
L 162.054618 88.795034 
L 161.858977 88.795034 
L 161.663336 88.795034 
L 161.467695 89.017665 
L 161.272053 89.017665 
L 161.076412 89.017665 
L 160.880771 90.03163 
L 160.68513 90.03163 
L 160.489489 90.03571 
L 160.293848 90.090996 
L 160.098207 90.090996 
L 159.902566 90.090996 
L 159.706925 90.090996 
L 159.511284 90.090996 
L 159.315642 90.366201 
L 159.120001 90.455917 
L 158.92436 90.455917 
L 158.728719 90.466428 
L 158.533078 90.552247 
L 158.337437 90.552247 
L 158.141796 90.552247 
L 157.946155 90.645793 
L 157.750514 90.645793 
L 157.554873 90.645793 
L 157.359232 90.645793 
L 157.16359 90.645793 
L 156.967949 90.645793 
L 156.772308 90.645793 
L 156.576667 90.645793 
L 156.381026 90.99051 
L 156.185385 91.53703 
L 155.989744 91.53703 
L 155.794103 91.53703 
L 155.598462 91.53703 
L 155.402821 91.53703 
L 155.207179 91.783366 
L 155.011538 91.783366 
L 154.815897 91.783366 
L 154.620256 91.783366 
L 154.424615 91.783366 
L 154.228974 91.783366 
L 154.033333 92.545806 
L 153.837692 92.576964 
L 153.642051 92.576964 
L 153.44641 92.576964 
L 153.250768 92.963606 
L 153.055127 93.301775 
L 152.859486 93.458848 
L 152.663845 93.570153 
L 152.468204 93.770991 
L 152.272563 93.988511 
L 152.076922 93.988511 
L 151.881281 93.988511 
L 151.68564 93.988511 
L 151.489999 94.065228 
L 151.294358 94.717001 
L 151.098716 95.196049 
L 150.903075 95.196049 
L 150.707434 95.196049 
L 150.511793 95.207905 
L 150.316152 95.207905 
L 150.120511 95.324992 
L 149.92487 95.324992 
L 149.729229 95.324992 
L 149.533588 96.206082 
L 149.337947 96.206082 
L 149.142305 96.206082 
L 148.946664 96.447118 
L 148.751023 96.588306 
L 148.555382 96.588306 
L 148.359741 96.820561 
L 148.1641 96.845949 
L 147.968459 96.864831 
L 147.772818 96.864831 
L 147.577177 96.864831 
L 147.381536 96.882705 
L 147.185895 96.882705 
L 146.990253 98.846151 
L 146.794612 99.106306 
L 146.598971 99.647482 
L 146.40333 100.026176 
L 146.207689 100.321204 
L 146.012048 100.321204 
L 145.816407 100.445951 
L 145.620766 101.032529 
L 145.425125 101.032529 
L 145.229484 101.074621 
L 145.033842 101.52876 
L 144.838201 101.849477 
L 144.64256 101.849477 
L 144.446919 101.849477 
L 144.251278 102.089047 
L 144.055637 102.089047 
L 143.859996 102.216849 
L 143.664355 102.216849 
L 143.468714 102.216849 
L 143.273073 102.216849 
L 143.077432 102.216849 
L 142.88179 102.490636 
L 142.686149 102.490636 
L 142.490508 102.635856 
L 142.294867 102.676978 
L 142.099226 102.676978 
L 141.903585 102.676978 
L 141.707944 102.676978 
L 141.512303 103.39102 
L 141.316662 103.982455 
L 141.121021 103.982455 
L 140.925379 104.329925 
L 140.729738 104.696316 
L 140.534097 104.709854 
L 140.338456 105.323152 
L 140.142815 105.323152 
L 139.947174 105.619047 
L 139.751533 105.624266 
L 139.555892 106.065519 
L 139.360251 106.15522 
L 139.16461 106.801525 
L 138.968969 107.554409 
L 138.773327 107.574214 
L 138.577686 107.574214 
L 138.382045 107.574214 
L 138.186404 107.574214 
L 137.990763 107.994171 
L 137.795122 107.994171 
L 137.599481 108.702948 
L 137.40384 108.807879 
L 137.208199 109.188617 
L 137.012558 110.32119 
L 136.816916 110.32119 
L 136.621275 111.15208 
L 136.425634 111.15208 
L 136.229993 111.15208 
L 136.034352 111.265638 
L 135.838711 111.265638 
L 135.64307 111.265638 
L 135.447429 111.265638 
L 135.251788 111.265638 
L 135.056147 111.265638 
L 134.860506 111.66842 
L 134.664864 112.015912 
L 134.469223 112.937208 
L 134.273582 113.370708 
L 134.077941 113.370708 
L 133.8823 113.370708 
L 133.686659 113.421061 
L 133.491018 113.421061 
L 133.295377 113.811765 
L 133.099736 113.811765 
L 132.904095 113.821758 
L 132.708453 113.821758 
L 132.512812 114.674469 
L 132.317171 115.088816 
L 132.12153 115.099179 
L 131.925889 115.150015 
L 131.730248 115.150015 
L 131.534607 115.150015 
L 131.338966 115.151318 
L 131.143325 115.151318 
L 130.947684 115.151318 
L 130.752042 115.151318 
L 130.556401 116.750272 
L 130.36076 116.750272 
L 130.165119 116.879463 
L 129.969478 116.879463 
L 129.773837 117.218044 
L 129.578196 117.218044 
L 129.382555 117.272126 
L 129.186914 117.644504 
L 128.991273 117.728751 
L 128.795632 118.154132 
L 128.59999 118.380768 
L 128.404349 118.380768 
L 128.208708 118.822008 
L 128.013067 118.822008 
L 127.817426 119.089683 
L 127.621785 119.386104 
L 127.426144 119.386104 
L 127.230503 119.975805 
L 127.034862 120.108769 
L 126.839221 120.108769 
L 126.643579 120.108769 
L 126.447938 120.206441 
L 126.252297 120.206441 
L 126.056656 120.206441 
L 125.861015 120.206441 
L 125.665374 121.256055 
L 125.469733 121.592347 
L 125.274092 121.592347 
L 125.078451 121.802525 
L 124.88281 121.965318 
L 124.687169 121.965318 
L 124.491527 121.965318 
L 124.295886 122.617032 
L 124.100245 122.617466 
L 123.904604 122.662394 
L 123.708963 122.662394 
L 123.513322 122.663338 
L 123.317681 122.663338 
L 123.12204 122.663338 
L 122.926399 122.663338 
L 122.730758 122.663338 
L 122.535116 123.394073 
L 122.339475 123.394073 
L 122.143834 123.394073 
L 121.948193 124.28864 
L 121.752552 124.28864 
L 121.556911 124.28864 
L 121.36127 124.674299 
L 121.165629 124.75089 
L 120.969988 124.752711 
L 120.774347 124.752711 
L 120.578706 124.752711 
L 120.383064 125.199887 
L 120.187423 125.315869 
L 119.991782 125.451994 
L 119.796141 125.976326 
L 119.6005 127.10219 
L 119.404859 127.10219 
L 119.209218 127.10219 
L 119.013577 127.10219 
L 118.817936 127.126277 
L 118.622295 127.126277 
L 118.426653 127.126277 
L 118.231012 127.126277 
L 118.035371 127.126277 
L 117.83973 127.147063 
L 117.644089 127.370426 
L 117.448448 127.370426 
L 117.252807 127.924924 
L 117.057166 128.383205 
L 116.861525 129.052405 
L 116.665884 129.052405 
L 116.470243 129.052405 
L 116.274601 129.148774 
L 116.07896 129.226552 
L 115.883319 129.226552 
L 115.687678 129.226552 
L 115.492037 129.238323 
L 115.296396 129.238323 
L 115.100755 129.238323 
L 114.905114 129.238323 
L 114.709473 129.238323 
L 114.513832 129.238323 
L 114.31819 129.993992 
L 114.122549 129.993992 
L 113.926908 129.993992 
L 113.731267 130.106146 
L 113.535626 130.106146 
L 113.339985 130.575936 
L 113.144344 130.575936 
L 112.948703 130.575936 
L 112.753062 130.587912 
L 112.557421 130.587912 
L 112.36178 130.964322 
L 112.166138 131.037735 
L 111.970497 131.304491 
L 111.774856 131.360473 
L 111.579215 131.360473 
L 111.383574 131.869649 
L 111.187933 131.869649 
L 110.992292 131.869649 
L 110.796651 131.869649 
L 110.60101 132.421461 
L 110.405369 132.421461 
L 110.209727 132.610115 
L 110.014086 132.610115 
L 109.818445 132.610115 
L 109.622804 132.610115 
L 109.427163 132.61459 
L 109.231522 132.800651 
L 109.035881 132.800651 
L 108.84024 132.800651 
L 108.644599 133.3967 
L 108.448958 133.3967 
L 108.253316 133.3967 
L 108.057675 133.534599 
L 107.862034 133.700562 
L 107.666393 134.004188 
L 107.470752 134.50632 
L 107.275111 134.50632 
L 107.07947 134.50632 
L 106.883829 134.72477 
L 106.688188 134.72477 
L 106.492547 134.72477 
L 106.296906 135.246427 
L 106.101264 135.246427 
L 105.905623 135.530632 
L 105.709982 135.530632 
L 105.514341 135.530632 
L 105.3187 135.968721 
L 105.123059 136.332554 
L 104.927418 136.372235 
L 104.731777 136.680562 
L 104.536136 137.252661 
L 104.340495 137.628666 
L 104.144853 137.628666 
L 103.949212 137.634652 
L 103.753571 138.010138 
L 103.55793 138.876427 
L 103.362289 138.878867 
L 103.166648 138.97996 
L 102.971007 138.97996 
L 102.775366 139.080893 
L 102.579725 139.080893 
L 102.384084 139.869518 
L 102.188443 139.869518 
L 101.992801 139.96473 
L 101.79716 140.321362 
L 101.601519 141.102038 
L 101.405878 141.865807 
L 101.210237 141.979793 
L 101.014596 141.979793 
L 100.818955 142.207883 
L 100.623314 142.480111 
L 100.427673 142.680062 
L 100.232032 142.680062 
L 100.03639 142.774349 
L 99.840749 143.238219 
L 99.645108 143.514848 
L 99.449467 144.503974 
L 99.253826 145.092138 
L 99.058185 146.995243 
L 98.862544 146.995243 
L 98.666903 146.995243 
L 98.471262 147.119102 
L 98.275621 147.696934 
L 98.07998 147.696934 
L 97.884338 148.272697 
L 97.688697 148.272697 
L 97.493056 148.564579 
L 97.297415 148.991081 
L 97.101774 149.765749 
L 96.906133 150.00912 
L 96.710492 150.00912 
L 96.514851 150.00912 
L 96.31921 150.00912 
L 96.123569 150.349173 
L 95.927927 150.797996 
L 95.732286 150.797996 
L 95.536645 150.797996 
L 95.341004 150.797996 
L 95.145363 151.400078 
L 94.949722 152.223942 
L 94.754081 152.459485 
L 94.55844 153.599726 
L 94.362799 153.804473 
L 94.167158 153.804473 
L 93.971517 154.521308 
L 93.775875 154.590786 
L 93.580234 154.590786 
L 93.384593 154.5921 
L 93.188952 154.5921 
L 92.993311 154.76773 
L 92.79767 155.613843 
L 92.602029 155.895726 
L 92.406388 155.895726 
L 92.210747 157.406784 
L 92.015106 157.807859 
L 91.819464 157.890925 
L 91.623823 158.959456 
L 91.428182 159.076307 
L 91.232541 159.076307 
L 91.0369 159.076307 
L 90.841259 159.378205 
L 90.645618 159.378205 
L 90.449977 159.378205 
L 90.254336 159.378205 
L 90.058695 159.559706 
L 89.863054 159.559706 
L 89.667412 159.963953 
L 89.471771 160.17219 
L 89.27613 160.351915 
L 89.080489 160.351915 
L 88.884848 160.724688 
L 88.689207 160.724688 
L 88.493566 160.728667 
L 88.297925 160.728667 
L 88.102284 160.728667 
L 87.906643 161.325861 
L 87.711001 161.427656 
L 87.51536 162.022994 
L 87.319719 162.154578 
L 87.124078 162.240799 
L 86.928437 162.240799 
L 86.732796 162.892087 
L 86.537155 162.892087 
L 86.341514 163.01249 
L 86.145873 163.014884 
L 85.950232 163.552212 
L 85.75459 163.79474 
L 85.558949 163.79474 
L 85.363308 163.867827 
L 85.167667 163.867827 
L 84.972026 163.934317 
L 84.776385 164.160684 
L 84.580744 164.34054 
L 84.385103 164.542061 
L 84.189462 164.591442 
L 83.993821 164.636453 
L 83.79818 166.409744 
L 83.602538 166.475154 
L 83.406897 168.406385 
L 83.211256 168.406385 
L 83.015615 168.823482 
L 82.819974 168.845816 
L 82.624333 168.845816 
L 82.428692 169.153347 
L 82.233051 169.718285 
L 82.03741 169.718285 
L 81.841769 170.118765 
L 81.646127 170.118765 
L 81.450486 170.118765 
L 81.254845 170.309513 
L 81.059204 171.123607 
L 80.863563 171.123607 
L 80.667922 171.729125 
L 80.472281 171.729125 
L 80.27664 172.311599 
L 80.080999 172.696377 
L 79.885358 173.274181 
L 79.689717 173.286146 
L 79.494075 173.286146 
L 79.298434 173.286146 
L 79.102793 174.661013 
L 78.907152 175.055973 
L 78.711511 175.635843 
L 78.51587 175.841782 
L 78.320229 175.841782 
L 78.124588 177.938541 
L 77.928947 178.945751 
L 77.733306 178.949494 
L 77.537664 179.39943 
L 77.342023 181.213525 
L 77.146382 181.213525 
L 76.950741 181.629364 
L 76.7551 181.742518 
L 76.559459 181.742518 
L 76.363818 183.865982 
L 76.168177 184.075107 
L 75.972536 184.075107 
L 75.776895 184.075107 
L 75.581254 184.835254 
L 75.385612 184.967857 
L 75.189971 185.485091 
L 74.99433 185.485091 
L 74.798689 185.735894 
L 74.603048 186.240623 
L 74.407407 186.240623 
L 74.211766 186.399623 
L 74.016125 186.552207 
L 73.820484 187.099859 
L 73.624843 188.978897 
L 73.429201 190.096061 
L 73.23356 190.151485 
L 73.037919 190.916695 
L 72.842278 190.916695 
L 72.646637 190.916695 
L 72.450996 191.286648 
L 72.255355 191.286648 
L 72.059714 192.26376 
L 71.864073 192.516727 
L 71.668432 192.683975 
L 71.472791 192.75892 
L 71.277149 192.895096 
L 71.081508 193.131371 
L 70.885867 193.246452 
L 70.690226 193.30157 
L 70.494585 193.631024 
L 70.298944 193.631024 
L 70.103303 193.856821 
L 69.907662 193.856821 
L 69.712021 193.899134 
L 69.51638 193.935869 
L 69.320738 194.081862 
L 69.125097 194.317732 
L 68.929456 195.909964 
L 68.733815 196.196158 
L 68.538174 197.264026 
L 68.342533 197.264026 
L 68.146892 197.264026 
L 67.951251 197.264026 
L 67.75561 197.264026 
L 67.559969 197.264026 
L 67.364328 197.45904 
L 67.168686 197.463535 
L 66.973045 197.581093 
L 66.777404 197.581093 
L 66.581763 197.581093 
L 66.386122 197.968312 
L 66.190481 198.374023 
L 65.99484 198.601801 
L 65.799199 198.796215 
L 65.603558 198.796215 
L 65.407917 198.796215 
L 65.212275 199.192575 
L 65.016634 199.192575 
L 64.820993 199.518562 
L 64.625352 200.10693 
L 64.429711 200.379195 
L 64.23407 200.526485 
L 64.038429 200.526485 
L 63.842788 200.539673 
L 63.647147 201.117853 
L 63.451506 201.243669 
L 63.255865 201.246821 
L 63.060223 201.246821 
L 62.864582 201.246821 
L 62.668941 201.246821 
L 62.4733 201.741974 
L 62.277659 202.141789 
L 62.082018 203.461405 
L 61.886377 204.478507 
L 61.690736 204.500944 
L 61.495095 204.500944 
L 61.299454 205.282033 
L 61.103812 205.297148 
L 60.908171 205.297148 
L 60.71253 205.297148 
L 60.516889 205.297148 
L 60.321248 205.297148 
L 60.125607 205.790223 
L 59.929966 206.889246 
L 59.734325 209.626398 
L 59.538684 212.349638 
L 59.343043 212.389776 
L 59.147401 212.389776 
L 58.95176 212.389776 
L 58.756119 212.389776 
L 58.560478 212.389776 
L 58.364837 212.389776 
L 58.169196 212.389776 
L 57.973555 212.389776 
L 57.777914 212.389776 
L 57.582273 212.389776 
z
" clip-path="url(#p0c32a4d909)" style="fill: #1f77b4; fill-opacity: 0.5"/>
   </g>
   <g id="matplotlib.axis_1">
    <g id="xtick_1">
     <g id="line2d_1">
      <defs>
       <path id="meb704f2b48" d="M 0 0 
L 0 3.5 
" style="stroke: #000000; stroke-width: 0.8"/>
      </defs>
      <g>
       <use xlink:href="#meb704f2b48" x="57.582273" y="253.891" style="stroke: #000000; stroke-width: 0.8"/>
      </g>
     </g>
     <g id="text_1">
      <!-- 0.0 -->
      <g transform="translate(49.63071 268.489438) scale(0.1 -0.1)">
       <defs>
        <path id="DejaVuSans-30" d="M 2034 4250 
Q 1547 4250 1301 3770 
Q 1056 3291 1056 2328 
Q 1056 1369 1301 889 
Q 1547 409 2034 409 
Q 2525 409 2770 889 
Q 3016 1369 3016 2328 
Q 3016 3291 2770 3770 
Q 2525 4250 2034 4250 
z
M 2034 4750 
Q 2819 4750 3233 4129 
Q 3647 3509 3647 2328 
Q 3647 1150 3233 529 
Q 2819 -91 2034 -91 
Q 1250 -91 836 529 
Q 422 1150 422 2328 
Q 422 3509 836 4129 
Q 1250 4750 2034 4750 
z
" transform="scale(0.015625)"/>
        <path id="DejaVuSans-2e" d="M 684 794 
L 1344 794 
L 1344 0 
L 684 0 
L 684 794 
z
" transform="scale(0.015625)"/>
       </defs>
       <use xlink:href="#DejaVuSans-30"/>
       <use xlink:href="#DejaVuSans-2e" transform="translate(63.623047 0)"/>
       <use xlink:href="#DejaVuSans-30" transform="translate(95.410156 0)"/>
      </g>
     </g>
    </g>
    <g id="xtick_2">
     <g id="line2d_2">
      <g>
       <use xlink:href="#meb704f2b48" x="96.671364" y="253.891" style="stroke: #000000; stroke-width: 0.8"/>
      </g>
     </g>
     <g id="text_2">
      <!-- 0.2 -->
      <g transform="translate(88.719801 268.489438) scale(0.1 -0.1)">
       <defs>
        <path id="DejaVuSans-32" d="M 1228 531 
L 3431 531 
L 3431 0 
L 469 0 
L 469 531 
Q 828 903 1448 1529 
Q 2069 2156 2228 2338 
Q 2531 2678 2651 2914 
Q 2772 3150 2772 3378 
Q 2772 3750 2511 3984 
Q 2250 4219 1831 4219 
Q 1534 4219 1204 4116 
Q 875 4013 500 3803 
L 500 4441 
Q 881 4594 1212 4672 
Q 1544 4750 1819 4750 
Q 2544 4750 2975 4387 
Q 3406 4025 3406 3419 
Q 3406 3131 3298 2873 
Q 3191 2616 2906 2266 
Q 2828 2175 2409 1742 
Q 1991 1309 1228 531 
z
" transform="scale(0.015625)"/>
       </defs>
       <use xlink:href="#DejaVuSans-30"/>
       <use xlink:href="#DejaVuSans-2e" transform="translate(63.623047 0)"/>
       <use xlink:href="#DejaVuSans-32" transform="translate(95.410156 0)"/>
      </g>
     </g>
    </g>
    <g id="xtick_3">
     <g id="line2d_3">
      <g>
       <use xlink:href="#meb704f2b48" x="135.760455" y="253.891" style="stroke: #000000; stroke-width: 0.8"/>
      </g>
     </g>
     <g id="text_3">
      <!-- 0.4 -->
      <g transform="translate(127.808892 268.489438) scale(0.1 -0.1)">
       <defs>
        <path id="DejaVuSans-34" d="M 2419 4116 
L 825 1625 
L 2419 1625 
L 2419 4116 
z
M 2253 4666 
L 3047 4666 
L 3047 1625 
L 3713 1625 
L 3713 1100 
L 3047 1100 
L 3047 0 
L 2419 0 
L 2419 1100 
L 313 1100 
L 313 1709 
L 2253 4666 
z
" transform="scale(0.015625)"/>
       </defs>
       <use xlink:href="#DejaVuSans-30"/>
       <use xlink:href="#DejaVuSans-2e" transform="translate(63.623047 0)"/>
       <use xlink:href="#DejaVuSans-34" transform="translate(95.410156 0)"/>
      </g>
     </g>
    </g>
    <g id="xtick_4">
     <g id="line2d_4">
      <g>
       <use xlink:href="#meb704f2b48" x="174.849545" y="253.891" style="stroke: #000000; stroke-width: 0.8"/>
      </g>
     </g>
     <g id="text_4">
      <!-- 0.6 -->
      <g transform="translate(166.897983 268.489438) scale(0.1 -0.1)">
       <defs>
        <path id="DejaVuSans-36" d="M 2113 2584 
Q 1688 2584 1439 2293 
Q 1191 2003 1191 1497 
Q 1191 994 1439 701 
Q 1688 409 2113 409 
Q 2538 409 2786 701 
Q 3034 994 3034 1497 
Q 3034 2003 2786 2293 
Q 2538 2584 2113 2584 
z
M 3366 4563 
L 3366 3988 
Q 3128 4100 2886 4159 
Q 2644 4219 2406 4219 
Q 1781 4219 1451 3797 
Q 1122 3375 1075 2522 
Q 1259 2794 1537 2939 
Q 1816 3084 2150 3084 
Q 2853 3084 3261 2657 
Q 3669 2231 3669 1497 
Q 3669 778 3244 343 
Q 2819 -91 2113 -91 
Q 1303 -91 875 529 
Q 447 1150 447 2328 
Q 447 3434 972 4092 
Q 1497 4750 2381 4750 
Q 2619 4750 2861 4703 
Q 3103 4656 3366 4563 
z
" transform="scale(0.015625)"/>
       </defs>
       <use xlink:href="#DejaVuSans-30"/>
       <use xlink:href="#DejaVuSans-2e" transform="translate(63.623047 0)"/>
       <use xlink:href="#DejaVuSans-36" transform="translate(95.410156 0)"/>
      </g>
     </g>
    </g>
    <g id="xtick_5">
     <g id="line2d_5">
      <g>
       <use xlink:href="#meb704f2b48" x="213.938636" y="253.891" style="stroke: #000000; stroke-width: 0.8"/>
      </g>
     </g>
     <g id="text_5">
      <!-- 0.8 -->
      <g transform="translate(205.987074 268.489438) scale(0.1 -0.1)">
       <defs>
        <path id="DejaVuSans-38" d="M 2034 2216 
Q 1584 2216 1326 1975 
Q 1069 1734 1069 1313 
Q 1069 891 1326 650 
Q 1584 409 2034 409 
Q 2484 409 2743 651 
Q 3003 894 3003 1313 
Q 3003 1734 2745 1975 
Q 2488 2216 2034 2216 
z
M 1403 2484 
Q 997 2584 770 2862 
Q 544 3141 544 3541 
Q 544 4100 942 4425 
Q 1341 4750 2034 4750 
Q 2731 4750 3128 4425 
Q 3525 4100 3525 3541 
Q 3525 3141 3298 2862 
Q 3072 2584 2669 2484 
Q 3125 2378 3379 2068 
Q 3634 1759 3634 1313 
Q 3634 634 3220 271 
Q 2806 -91 2034 -91 
Q 1263 -91 848 271 
Q 434 634 434 1313 
Q 434 1759 690 2068 
Q 947 2378 1403 2484 
z
M 1172 3481 
Q 1172 3119 1398 2916 
Q 1625 2713 2034 2713 
Q 2441 2713 2670 2916 
Q 2900 3119 2900 3481 
Q 2900 3844 2670 4047 
Q 2441 4250 2034 4250 
Q 1625 4250 1398 4047 
Q 1172 3844 1172 3481 
z
" transform="scale(0.015625)"/>
       </defs>
       <use xlink:href="#DejaVuSans-30"/>
       <use xlink:href="#DejaVuSans-2e" transform="translate(63.623047 0)"/>
       <use xlink:href="#DejaVuSans-38" transform="translate(95.410156 0)"/>
      </g>
     </g>
    </g>
    <g id="xtick_6">
     <g id="line2d_6">
      <g>
       <use xlink:href="#meb704f2b48" x="253.027727" y="253.891" style="stroke: #000000; stroke-width: 0.8"/>
      </g>
     </g>
     <g id="text_6">
      <!-- 1.0 -->
      <g transform="translate(245.076165 268.489438) scale(0.1 -0.1)">
       <defs>
        <path id="DejaVuSans-31" d="M 794 531 
L 1825 531 
L 1825 4091 
L 703 3866 
L 703 4441 
L 1819 4666 
L 2450 4666 
L 2450 531 
L 3481 531 
L 3481 0 
L 794 0 
L 794 531 
z
" transform="scale(0.015625)"/>
       </defs>
       <use xlink:href="#DejaVuSans-31"/>
       <use xlink:href="#DejaVuSans-2e" transform="translate(63.623047 0)"/>
       <use xlink:href="#DejaVuSans-30" transform="translate(95.410156 0)"/>
      </g>
     </g>
    </g>
    <g id="text_7">
     <!-- False Positive Rate -->
     <g transform="translate(108.838594 282.167562) scale(0.1 -0.1)">
      <defs>
       <path id="DejaVuSans-46" d="M 628 4666 
L 3309 4666 
L 3309 4134 
L 1259 4134 
L 1259 2759 
L 3109 2759 
L 3109 2228 
L 1259 2228 
L 1259 0 
L 628 0 
L 628 4666 
z
" transform="scale(0.015625)"/>
       <path id="DejaVuSans-61" d="M 2194 1759 
Q 1497 1759 1228 1600 
Q 959 1441 959 1056 
Q 959 750 1161 570 
Q 1363 391 1709 391 
Q 2188 391 2477 730 
Q 2766 1069 2766 1631 
L 2766 1759 
L 2194 1759 
z
M 3341 1997 
L 3341 0 
L 2766 0 
L 2766 531 
Q 2569 213 2275 61 
Q 1981 -91 1556 -91 
Q 1019 -91 701 211 
Q 384 513 384 1019 
Q 384 1609 779 1909 
Q 1175 2209 1959 2209 
L 2766 2209 
L 2766 2266 
Q 2766 2663 2505 2880 
Q 2244 3097 1772 3097 
Q 1472 3097 1187 3025 
Q 903 2953 641 2809 
L 641 3341 
Q 956 3463 1253 3523 
Q 1550 3584 1831 3584 
Q 2591 3584 2966 3190 
Q 3341 2797 3341 1997 
z
" transform="scale(0.015625)"/>
       <path id="DejaVuSans-6c" d="M 603 4863 
L 1178 4863 
L 1178 0 
L 603 0 
L 603 4863 
z
" transform="scale(0.015625)"/>
       <path id="DejaVuSans-73" d="M 2834 3397 
L 2834 2853 
Q 2591 2978 2328 3040 
Q 2066 3103 1784 3103 
Q 1356 3103 1142 2972 
Q 928 2841 928 2578 
Q 928 2378 1081 2264 
Q 1234 2150 1697 2047 
L 1894 2003 
Q 2506 1872 2764 1633 
Q 3022 1394 3022 966 
Q 3022 478 2636 193 
Q 2250 -91 1575 -91 
Q 1294 -91 989 -36 
Q 684 19 347 128 
L 347 722 
Q 666 556 975 473 
Q 1284 391 1588 391 
Q 1994 391 2212 530 
Q 2431 669 2431 922 
Q 2431 1156 2273 1281 
Q 2116 1406 1581 1522 
L 1381 1569 
Q 847 1681 609 1914 
Q 372 2147 372 2553 
Q 372 3047 722 3315 
Q 1072 3584 1716 3584 
Q 2034 3584 2315 3537 
Q 2597 3491 2834 3397 
z
" transform="scale(0.015625)"/>
       <path id="DejaVuSans-65" d="M 3597 1894 
L 3597 1613 
L 953 1613 
Q 991 1019 1311 708 
Q 1631 397 2203 397 
Q 2534 397 2845 478 
Q 3156 559 3463 722 
L 3463 178 
Q 3153 47 2828 -22 
Q 2503 -91 2169 -91 
Q 1331 -91 842 396 
Q 353 884 353 1716 
Q 353 2575 817 3079 
Q 1281 3584 2069 3584 
Q 2775 3584 3186 3129 
Q 3597 2675 3597 1894 
z
M 3022 2063 
Q 3016 2534 2758 2815 
Q 2500 3097 2075 3097 
Q 1594 3097 1305 2825 
Q 1016 2553 972 2059 
L 3022 2063 
z
" transform="scale(0.015625)"/>
       <path id="DejaVuSans-20" transform="scale(0.015625)"/>
       <path id="DejaVuSans-50" d="M 1259 4147 
L 1259 2394 
L 2053 2394 
Q 2494 2394 2734 2622 
Q 2975 2850 2975 3272 
Q 2975 3691 2734 3919 
Q 2494 4147 2053 4147 
L 1259 4147 
z
M 628 4666 
L 2053 4666 
Q 2838 4666 3239 4311 
Q 3641 3956 3641 3272 
Q 3641 2581 3239 2228 
Q 2838 1875 2053 1875 
L 1259 1875 
L 1259 0 
L 628 0 
L 628 4666 
z
" transform="scale(0.015625)"/>
       <path id="DejaVuSans-6f" d="M 1959 3097 
Q 1497 3097 1228 2736 
Q 959 2375 959 1747 
Q 959 1119 1226 758 
Q 1494 397 1959 397 
Q 2419 397 2687 759 
Q 2956 1122 2956 1747 
Q 2956 2369 2687 2733 
Q 2419 3097 1959 3097 
z
M 1959 3584 
Q 2709 3584 3137 3096 
Q 3566 2609 3566 1747 
Q 3566 888 3137 398 
Q 2709 -91 1959 -91 
Q 1206 -91 779 398 
Q 353 888 353 1747 
Q 353 2609 779 3096 
Q 1206 3584 1959 3584 
z
" transform="scale(0.015625)"/>
       <path id="DejaVuSans-69" d="M 603 3500 
L 1178 3500 
L 1178 0 
L 603 0 
L 603 3500 
z
M 603 4863 
L 1178 4863 
L 1178 4134 
L 603 4134 
L 603 4863 
z
" transform="scale(0.015625)"/>
       <path id="DejaVuSans-74" d="M 1172 4494 
L 1172 3500 
L 2356 3500 
L 2356 3053 
L 1172 3053 
L 1172 1153 
Q 1172 725 1289 603 
Q 1406 481 1766 481 
L 2356 481 
L 2356 0 
L 1766 0 
Q 1100 0 847 248 
Q 594 497 594 1153 
L 594 3053 
L 172 3053 
L 172 3500 
L 594 3500 
L 594 4494 
L 1172 4494 
z
" transform="scale(0.015625)"/>
       <path id="DejaVuSans-76" d="M 191 3500 
L 800 3500 
L 1894 563 
L 2988 3500 
L 3597 3500 
L 2284 0 
L 1503 0 
L 191 3500 
z
" transform="scale(0.015625)"/>
       <path id="DejaVuSans-52" d="M 2841 2188 
Q 3044 2119 3236 1894 
Q 3428 1669 3622 1275 
L 4263 0 
L 3584 0 
L 2988 1197 
Q 2756 1666 2539 1819 
Q 2322 1972 1947 1972 
L 1259 1972 
L 1259 0 
L 628 0 
L 628 4666 
L 2053 4666 
Q 2853 4666 3247 4331 
Q 3641 3997 3641 3322 
Q 3641 2881 3436 2590 
Q 3231 2300 2841 2188 
z
M 1259 4147 
L 1259 2491 
L 2053 2491 
Q 2509 2491 2742 2702 
Q 2975 2913 2975 3322 
Q 2975 3731 2742 3939 
Q 2509 4147 2053 4147 
L 1259 4147 
z
" transform="scale(0.015625)"/>
      </defs>
      <use xlink:href="#DejaVuSans-46"/>
      <use xlink:href="#DejaVuSans-61" transform="translate(48.394531 0)"/>
      <use xlink:href="#DejaVuSans-6c" transform="translate(109.673828 0)"/>
      <use xlink:href="#DejaVuSans-73" transform="translate(137.457031 0)"/>
      <use xlink:href="#DejaVuSans-65" transform="translate(189.556641 0)"/>
      <use xlink:href="#DejaVuSans-20" transform="translate(251.080078 0)"/>
      <use xlink:href="#DejaVuSans-50" transform="translate(282.867188 0)"/>
      <use xlink:href="#DejaVuSans-6f" transform="translate(339.544922 0)"/>
      <use xlink:href="#DejaVuSans-73" transform="translate(400.726562 0)"/>
      <use xlink:href="#DejaVuSans-69" transform="translate(452.826172 0)"/>
      <use xlink:href="#DejaVuSans-74" transform="translate(480.609375 0)"/>
      <use xlink:href="#DejaVuSans-69" transform="translate(519.818359 0)"/>
      <use xlink:href="#DejaVuSans-76" transform="translate(547.601562 0)"/>
      <use xlink:href="#DejaVuSans-65" transform="translate(606.78125 0)"/>
      <use xlink:href="#DejaVuSans-20" transform="translate(668.304688 0)"/>
      <use xlink:href="#DejaVuSans-52" transform="translate(700.091797 0)"/>
      <use xlink:href="#DejaVuSans-61" transform="translate(767.324219 0)"/>
      <use xlink:href="#DejaVuSans-74" transform="translate(828.603516 0)"/>
      <use xlink:href="#DejaVuSans-65" transform="translate(867.8125 0)"/>
     </g>
    </g>
   </g>
   <g id="matplotlib.axis_2">
    <g id="ytick_1">
     <g id="line2d_7">
      <defs>
       <path id="mc477bd5afa" d="M 0 0 
L -3.5 0 
" style="stroke: #000000; stroke-width: 0.8"/>
      </defs>
      <g>
       <use xlink:href="#mc477bd5afa" x="47.81" y="244.118727" style="stroke: #000000; stroke-width: 0.8"/>
      </g>
     </g>
     <g id="text_8">
      <!-- 0.0 -->
      <g transform="translate(24.906875 247.917946) scale(0.1 -0.1)">
       <use xlink:href="#DejaVuSans-30"/>
       <use xlink:href="#DejaVuSans-2e" transform="translate(63.623047 0)"/>
       <use xlink:href="#DejaVuSans-30" transform="translate(95.410156 0)"/>
      </g>
     </g>
    </g>
    <g id="ytick_2">
     <g id="line2d_8">
      <g>
       <use xlink:href="#mc477bd5afa" x="47.81" y="205.029636" style="stroke: #000000; stroke-width: 0.8"/>
      </g>
     </g>
     <g id="text_9">
      <!-- 0.2 -->
      <g transform="translate(24.906875 208.828855) scale(0.1 -0.1)">
       <use xlink:href="#DejaVuSans-30"/>
       <use xlink:href="#DejaVuSans-2e" transform="translate(63.623047 0)"/>
       <use xlink:href="#DejaVuSans-32" transform="translate(95.410156 0)"/>
      </g>
     </g>
    </g>
    <g id="ytick_3">
     <g id="line2d_9">
      <g>
       <use xlink:href="#mc477bd5afa" x="47.81" y="165.940545" style="stroke: #000000; stroke-width: 0.8"/>
      </g>
     </g>
     <g id="text_10">
      <!-- 0.4 -->
      <g transform="translate(24.906875 169.739764) scale(0.1 -0.1)">
       <use xlink:href="#DejaVuSans-30"/>
       <use xlink:href="#DejaVuSans-2e" transform="translate(63.623047 0)"/>
       <use xlink:href="#DejaVuSans-34" transform="translate(95.410156 0)"/>
      </g>
     </g>
    </g>
    <g id="ytick_4">
     <g id="line2d_10">
      <g>
       <use xlink:href="#mc477bd5afa" x="47.81" y="126.851455" style="stroke: #000000; stroke-width: 0.8"/>
      </g>
     </g>
     <g id="text_11">
      <!-- 0.6 -->
      <g transform="translate(24.906875 130.650673) scale(0.1 -0.1)">
       <use xlink:href="#DejaVuSans-30"/>
       <use xlink:href="#DejaVuSans-2e" transform="translate(63.623047 0)"/>
       <use xlink:href="#DejaVuSans-36" transform="translate(95.410156 0)"/>
      </g>
     </g>
    </g>
    <g id="ytick_5">
     <g id="line2d_11">
      <g>
       <use xlink:href="#mc477bd5afa" x="47.81" y="87.762364" style="stroke: #000000; stroke-width: 0.8"/>
      </g>
     </g>
     <g id="text_12">
      <!-- 0.8 -->
      <g transform="translate(24.906875 91.561582) scale(0.1 -0.1)">
       <use xlink:href="#DejaVuSans-30"/>
       <use xlink:href="#DejaVuSans-2e" transform="translate(63.623047 0)"/>
       <use xlink:href="#DejaVuSans-38" transform="translate(95.410156 0)"/>
      </g>
     </g>
    </g>
    <g id="ytick_6">
     <g id="line2d_12">
      <g>
       <use xlink:href="#mc477bd5afa" x="47.81" y="48.673273" style="stroke: #000000; stroke-width: 0.8"/>
      </g>
     </g>
     <g id="text_13">
      <!-- 1.0 -->
      <g transform="translate(24.906875 52.472491) scale(0.1 -0.1)">
       <use xlink:href="#DejaVuSans-31"/>
       <use xlink:href="#DejaVuSans-2e" transform="translate(63.623047 0)"/>
       <use xlink:href="#DejaVuSans-30" transform="translate(95.410156 0)"/>
      </g>
     </g>
    </g>
    <g id="text_14">
     <!-- True Positive Rate -->
     <g transform="translate(18.827187 190.925687) rotate(-90) scale(0.1 -0.1)">
      <defs>
       <path id="DejaVuSans-54" d="M -19 4666 
L 3928 4666 
L 3928 4134 
L 2272 4134 
L 2272 0 
L 1638 0 
L 1638 4134 
L -19 4134 
L -19 4666 
z
" transform="scale(0.015625)"/>
       <path id="DejaVuSans-72" d="M 2631 2963 
Q 2534 3019 2420 3045 
Q 2306 3072 2169 3072 
Q 1681 3072 1420 2755 
Q 1159 2438 1159 1844 
L 1159 0 
L 581 0 
L 581 3500 
L 1159 3500 
L 1159 2956 
Q 1341 3275 1631 3429 
Q 1922 3584 2338 3584 
Q 2397 3584 2469 3576 
Q 2541 3569 2628 3553 
L 2631 2963 
z
" transform="scale(0.015625)"/>
       <path id="DejaVuSans-75" d="M 544 1381 
L 544 3500 
L 1119 3500 
L 1119 1403 
Q 1119 906 1312 657 
Q 1506 409 1894 409 
Q 2359 409 2629 706 
Q 2900 1003 2900 1516 
L 2900 3500 
L 3475 3500 
L 3475 0 
L 2900 0 
L 2900 538 
Q 2691 219 2414 64 
Q 2138 -91 1772 -91 
Q 1169 -91 856 284 
Q 544 659 544 1381 
z
M 1991 3584 
L 1991 3584 
z
" transform="scale(0.015625)"/>
      </defs>
      <use xlink:href="#DejaVuSans-54"/>
      <use xlink:href="#DejaVuSans-72" transform="translate(46.333984 0)"/>
      <use xlink:href="#DejaVuSans-75" transform="translate(87.447266 0)"/>
      <use xlink:href="#DejaVuSans-65" transform="translate(150.826172 0)"/>
      <use xlink:href="#DejaVuSans-20" transform="translate(212.349609 0)"/>
      <use xlink:href="#DejaVuSans-50" transform="translate(244.136719 0)"/>
      <use xlink:href="#DejaVuSans-6f" transform="translate(300.814453 0)"/>
      <use xlink:href="#DejaVuSans-73" transform="translate(361.996094 0)"/>
      <use xlink:href="#DejaVuSans-69" transform="translate(414.095703 0)"/>
      <use xlink:href="#DejaVuSans-74" transform="translate(441.878906 0)"/>
      <use xlink:href="#DejaVuSans-69" transform="translate(481.087891 0)"/>
      <use xlink:href="#DejaVuSans-76" transform="translate(508.871094 0)"/>
      <use xlink:href="#DejaVuSans-65" transform="translate(568.050781 0)"/>
      <use xlink:href="#DejaVuSans-20" transform="translate(629.574219 0)"/>
      <use xlink:href="#DejaVuSans-52" transform="translate(661.361328 0)"/>
      <use xlink:href="#DejaVuSans-61" transform="translate(728.59375 0)"/>
      <use xlink:href="#DejaVuSans-74" transform="translate(789.873047 0)"/>
      <use xlink:href="#DejaVuSans-65" transform="translate(829.082031 0)"/>
     </g>
    </g>
   </g>
   <g id="line2d_13">
    <path d="M 57.582273 244.118727 
L 57.582273 242.789166 
L 57.582273 240.130045 
L 59.828772 240.130045 
L 59.828772 232.152679 
L 62.075272 232.152679 
L 62.075272 229.493557 
L 64.321771 229.493557 
L 64.321771 212.209265 
L 71.06127 212.209265 
L 71.06127 210.879704 
L 73.307769 210.879704 
L 73.307769 206.891022 
L 75.554269 206.891022 
L 75.554269 204.2319 
L 77.800768 204.2319 
L 77.800768 202.902339 
L 82.293767 202.902339 
L 82.293767 200.243217 
L 89.033265 200.243217 
L 89.033265 189.60673 
L 91.279765 189.60673 
L 91.279765 178.970242 
L 93.526264 178.970242 
L 93.526264 174.98156 
L 98.019263 174.98156 
L 98.019263 173.651999 
L 100.265763 173.651999 
L 100.265763 170.992877 
L 107.005261 170.992877 
L 107.005261 169.663316 
L 109.251761 169.663316 
L 109.251761 160.35639 
L 111.49826 160.35639 
L 111.49826 156.367707 
L 113.74476 156.367707 
L 113.74476 153.708585 
L 115.991259 153.708585 
L 115.991259 149.719902 
L 118.237759 149.719902 
L 118.237759 143.072098 
L 133.963255 143.072098 
L 133.963255 136.424293 
L 136.209754 136.424293 
L 136.209754 133.765171 
L 138.456254 133.765171 
L 138.456254 132.43561 
L 142.949253 132.43561 
L 142.949253 129.776489 
L 145.195752 129.776489 
L 145.195752 128.446928 
L 147.442252 128.446928 
L 147.442252 127.117367 
L 149.688751 127.117367 
L 149.688751 120.469562 
L 154.18175 120.469562 
L 154.18175 116.480879 
L 156.42825 116.480879 
L 156.42825 112.492197 
L 158.674749 112.492197 
L 158.674749 108.503514 
L 160.921249 108.503514 
L 160.921249 107.173953 
L 163.167748 107.173953 
L 163.167748 105.844392 
L 167.660747 105.844392 
L 167.660747 103.18527 
L 169.907247 103.18527 
L 169.907247 101.855709 
L 172.153746 101.855709 
L 172.153746 99.196588 
L 178.893245 99.196588 
L 178.893245 97.867027 
L 181.139744 97.867027 
L 181.139744 89.889661 
L 185.632743 89.889661 
L 185.632743 88.5601 
L 187.879242 88.5601 
L 187.879242 87.230539 
L 192.372241 87.230539 
L 192.372241 85.900978 
L 199.11174 85.900978 
L 199.11174 80.582735 
L 201.358239 80.582735 
L 201.358239 79.253174 
L 203.604739 79.253174 
L 203.604739 75.264491 
L 205.851238 75.264491 
L 205.851238 71.275808 
L 210.344237 71.275808 
L 210.344237 69.946247 
L 217.083736 69.946247 
L 217.083736 68.616686 
L 219.330235 68.616686 
L 219.330235 65.957565 
L 223.823234 65.957565 
L 223.823234 63.298443 
L 226.069734 63.298443 
L 226.069734 61.968882 
L 232.809232 61.968882 
L 232.809232 59.30976 
L 235.055731 59.30976 
L 235.055731 57.980199 
L 239.54873 57.980199 
L 239.54873 56.650638 
L 241.79523 56.650638 
L 241.79523 51.332395 
L 244.041729 51.332395 
L 244.041729 50.002834 
L 250.781228 50.002834 
L 250.781228 48.673273 
L 253.027727 48.673273 
" clip-path="url(#p0c32a4d909)" style="fill: none; stroke: #1f77b4; stroke-width: 1.5; stroke-linecap: square"/>
   </g>
   <g id="line2d_14">
    <path d="M 57.582273 244.118727 
L 253.027727 48.673273 
" clip-path="url(#p0c32a4d909)" style="fill: none; stroke-dasharray: 5.55,2.4; stroke-dashoffset: 0; stroke: #ff0000; stroke-width: 1.5"/>
   </g>
   <g id="patch_3">
    <path d="M 47.81 253.891 
L 47.81 38.901 
" style="fill: none; stroke: #000000; stroke-width: 0.8; stroke-linejoin: miter; stroke-linecap: square"/>
   </g>
   <g id="patch_4">
    <path d="M 262.8 253.891 
L 262.8 38.901 
" style="fill: none; stroke: #000000; stroke-width: 0.8; stroke-linejoin: miter; stroke-linecap: square"/>
   </g>
   <g id="patch_5">
    <path d="M 47.81 253.891 
L 262.8 253.891 
" style="fill: none; stroke: #000000; stroke-width: 0.8; stroke-linejoin: miter; stroke-linecap: square"/>
   </g>
   <g id="patch_6">
    <path d="M 47.81 38.901 
L 262.8 38.901 
" style="fill: none; stroke: #000000; stroke-width: 0.8; stroke-linejoin: miter; stroke-linecap: square"/>
   </g>
   <g id="text_15">
    <!-- Early recurrence = 1 -->
    <g transform="translate(93.282812 19.463625) scale(0.12 -0.12)">
     <defs>
      <path id="DejaVuSans-45" d="M 628 4666 
L 3578 4666 
L 3578 4134 
L 1259 4134 
L 1259 2753 
L 3481 2753 
L 3481 2222 
L 1259 2222 
L 1259 531 
L 3634 531 
L 3634 0 
L 628 0 
L 628 4666 
z
" transform="scale(0.015625)"/>
      <path id="DejaVuSans-79" d="M 2059 -325 
Q 1816 -950 1584 -1140 
Q 1353 -1331 966 -1331 
L 506 -1331 
L 506 -850 
L 844 -850 
Q 1081 -850 1212 -737 
Q 1344 -625 1503 -206 
L 1606 56 
L 191 3500 
L 800 3500 
L 1894 763 
L 2988 3500 
L 3597 3500 
L 2059 -325 
z
" transform="scale(0.015625)"/>
      <path id="DejaVuSans-63" d="M 3122 3366 
L 3122 2828 
Q 2878 2963 2633 3030 
Q 2388 3097 2138 3097 
Q 1578 3097 1268 2742 
Q 959 2388 959 1747 
Q 959 1106 1268 751 
Q 1578 397 2138 397 
Q 2388 397 2633 464 
Q 2878 531 3122 666 
L 3122 134 
Q 2881 22 2623 -34 
Q 2366 -91 2075 -91 
Q 1284 -91 818 406 
Q 353 903 353 1747 
Q 353 2603 823 3093 
Q 1294 3584 2113 3584 
Q 2378 3584 2631 3529 
Q 2884 3475 3122 3366 
z
" transform="scale(0.015625)"/>
      <path id="DejaVuSans-6e" d="M 3513 2113 
L 3513 0 
L 2938 0 
L 2938 2094 
Q 2938 2591 2744 2837 
Q 2550 3084 2163 3084 
Q 1697 3084 1428 2787 
Q 1159 2491 1159 1978 
L 1159 0 
L 581 0 
L 581 3500 
L 1159 3500 
L 1159 2956 
Q 1366 3272 1645 3428 
Q 1925 3584 2291 3584 
Q 2894 3584 3203 3211 
Q 3513 2838 3513 2113 
z
" transform="scale(0.015625)"/>
      <path id="DejaVuSans-3d" d="M 678 2906 
L 4684 2906 
L 4684 2381 
L 678 2381 
L 678 2906 
z
M 678 1631 
L 4684 1631 
L 4684 1100 
L 678 1100 
L 678 1631 
z
" transform="scale(0.015625)"/>
     </defs>
     <use xlink:href="#DejaVuSans-45"/>
     <use xlink:href="#DejaVuSans-61" transform="translate(63.183594 0)"/>
     <use xlink:href="#DejaVuSans-72" transform="translate(124.462891 0)"/>
     <use xlink:href="#DejaVuSans-6c" transform="translate(165.576172 0)"/>
     <use xlink:href="#DejaVuSans-79" transform="translate(193.359375 0)"/>
     <use xlink:href="#DejaVuSans-20" transform="translate(252.539062 0)"/>
     <use xlink:href="#DejaVuSans-72" transform="translate(284.326172 0)"/>
     <use xlink:href="#DejaVuSans-65" transform="translate(323.189453 0)"/>
     <use xlink:href="#DejaVuSans-63" transform="translate(384.712891 0)"/>
     <use xlink:href="#DejaVuSans-75" transform="translate(439.693359 0)"/>
     <use xlink:href="#DejaVuSans-72" transform="translate(503.072266 0)"/>
     <use xlink:href="#DejaVuSans-72" transform="translate(542.435547 0)"/>
     <use xlink:href="#DejaVuSans-65" transform="translate(581.298828 0)"/>
     <use xlink:href="#DejaVuSans-6e" transform="translate(642.822266 0)"/>
     <use xlink:href="#DejaVuSans-63" transform="translate(706.201172 0)"/>
     <use xlink:href="#DejaVuSans-65" transform="translate(761.181641 0)"/>
     <use xlink:href="#DejaVuSans-20" transform="translate(822.705078 0)"/>
     <use xlink:href="#DejaVuSans-3d" transform="translate(854.492188 0)"/>
     <use xlink:href="#DejaVuSans-20" transform="translate(938.28125 0)"/>
     <use xlink:href="#DejaVuSans-31" transform="translate(970.068359 0)"/>
    </g>
    <!-- AUROC = 0.61 [0.54-0.69] -->
    <g transform="translate(76.054375 32.901) scale(0.12 -0.12)">
     <defs>
      <path id="DejaVuSans-41" d="M 2188 4044 
L 1331 1722 
L 3047 1722 
L 2188 4044 
z
M 1831 4666 
L 2547 4666 
L 4325 0 
L 3669 0 
L 3244 1197 
L 1141 1197 
L 716 0 
L 50 0 
L 1831 4666 
z
" transform="scale(0.015625)"/>
      <path id="DejaVuSans-55" d="M 556 4666 
L 1191 4666 
L 1191 1831 
Q 1191 1081 1462 751 
Q 1734 422 2344 422 
Q 2950 422 3222 751 
Q 3494 1081 3494 1831 
L 3494 4666 
L 4128 4666 
L 4128 1753 
Q 4128 841 3676 375 
Q 3225 -91 2344 -91 
Q 1459 -91 1007 375 
Q 556 841 556 1753 
L 556 4666 
z
" transform="scale(0.015625)"/>
      <path id="DejaVuSans-4f" d="M 2522 4238 
Q 1834 4238 1429 3725 
Q 1025 3213 1025 2328 
Q 1025 1447 1429 934 
Q 1834 422 2522 422 
Q 3209 422 3611 934 
Q 4013 1447 4013 2328 
Q 4013 3213 3611 3725 
Q 3209 4238 2522 4238 
z
M 2522 4750 
Q 3503 4750 4090 4092 
Q 4678 3434 4678 2328 
Q 4678 1225 4090 567 
Q 3503 -91 2522 -91 
Q 1538 -91 948 565 
Q 359 1222 359 2328 
Q 359 3434 948 4092 
Q 1538 4750 2522 4750 
z
" transform="scale(0.015625)"/>
      <path id="DejaVuSans-43" d="M 4122 4306 
L 4122 3641 
Q 3803 3938 3442 4084 
Q 3081 4231 2675 4231 
Q 1875 4231 1450 3742 
Q 1025 3253 1025 2328 
Q 1025 1406 1450 917 
Q 1875 428 2675 428 
Q 3081 428 3442 575 
Q 3803 722 4122 1019 
L 4122 359 
Q 3791 134 3420 21 
Q 3050 -91 2638 -91 
Q 1578 -91 968 557 
Q 359 1206 359 2328 
Q 359 3453 968 4101 
Q 1578 4750 2638 4750 
Q 3056 4750 3426 4639 
Q 3797 4528 4122 4306 
z
" transform="scale(0.015625)"/>
      <path id="DejaVuSans-5b" d="M 550 4863 
L 1875 4863 
L 1875 4416 
L 1125 4416 
L 1125 -397 
L 1875 -397 
L 1875 -844 
L 550 -844 
L 550 4863 
z
" transform="scale(0.015625)"/>
      <path id="DejaVuSans-35" d="M 691 4666 
L 3169 4666 
L 3169 4134 
L 1269 4134 
L 1269 2991 
Q 1406 3038 1543 3061 
Q 1681 3084 1819 3084 
Q 2600 3084 3056 2656 
Q 3513 2228 3513 1497 
Q 3513 744 3044 326 
Q 2575 -91 1722 -91 
Q 1428 -91 1123 -41 
Q 819 9 494 109 
L 494 744 
Q 775 591 1075 516 
Q 1375 441 1709 441 
Q 2250 441 2565 725 
Q 2881 1009 2881 1497 
Q 2881 1984 2565 2268 
Q 2250 2553 1709 2553 
Q 1456 2553 1204 2497 
Q 953 2441 691 2322 
L 691 4666 
z
" transform="scale(0.015625)"/>
      <path id="DejaVuSans-2d" d="M 313 2009 
L 1997 2009 
L 1997 1497 
L 313 1497 
L 313 2009 
z
" transform="scale(0.015625)"/>
      <path id="DejaVuSans-39" d="M 703 97 
L 703 672 
Q 941 559 1184 500 
Q 1428 441 1663 441 
Q 2288 441 2617 861 
Q 2947 1281 2994 2138 
Q 2813 1869 2534 1725 
Q 2256 1581 1919 1581 
Q 1219 1581 811 2004 
Q 403 2428 403 3163 
Q 403 3881 828 4315 
Q 1253 4750 1959 4750 
Q 2769 4750 3195 4129 
Q 3622 3509 3622 2328 
Q 3622 1225 3098 567 
Q 2575 -91 1691 -91 
Q 1453 -91 1209 -44 
Q 966 3 703 97 
z
M 1959 2075 
Q 2384 2075 2632 2365 
Q 2881 2656 2881 3163 
Q 2881 3666 2632 3958 
Q 2384 4250 1959 4250 
Q 1534 4250 1286 3958 
Q 1038 3666 1038 3163 
Q 1038 2656 1286 2365 
Q 1534 2075 1959 2075 
z
" transform="scale(0.015625)"/>
      <path id="DejaVuSans-5d" d="M 1947 4863 
L 1947 -844 
L 622 -844 
L 622 -397 
L 1369 -397 
L 1369 4416 
L 622 4416 
L 622 4863 
L 1947 4863 
z
" transform="scale(0.015625)"/>
     </defs>
     <use xlink:href="#DejaVuSans-41"/>
     <use xlink:href="#DejaVuSans-55" transform="translate(68.408203 0)"/>
     <use xlink:href="#DejaVuSans-52" transform="translate(141.601562 0)"/>
     <use xlink:href="#DejaVuSans-4f" transform="translate(211.083984 0)"/>
     <use xlink:href="#DejaVuSans-43" transform="translate(289.794922 0)"/>
     <use xlink:href="#DejaVuSans-20" transform="translate(359.619141 0)"/>
     <use xlink:href="#DejaVuSans-3d" transform="translate(391.40625 0)"/>
     <use xlink:href="#DejaVuSans-20" transform="translate(475.195312 0)"/>
     <use xlink:href="#DejaVuSans-30" transform="translate(506.982422 0)"/>
     <use xlink:href="#DejaVuSans-2e" transform="translate(570.605469 0)"/>
     <use xlink:href="#DejaVuSans-36" transform="translate(602.392578 0)"/>
     <use xlink:href="#DejaVuSans-31" transform="translate(666.015625 0)"/>
     <use xlink:href="#DejaVuSans-20" transform="translate(729.638672 0)"/>
     <use xlink:href="#DejaVuSans-5b" transform="translate(761.425781 0)"/>
     <use xlink:href="#DejaVuSans-30" transform="translate(800.439453 0)"/>
     <use xlink:href="#DejaVuSans-2e" transform="translate(864.0625 0)"/>
     <use xlink:href="#DejaVuSans-35" transform="translate(895.849609 0)"/>
     <use xlink:href="#DejaVuSans-34" transform="translate(959.472656 0)"/>
     <use xlink:href="#DejaVuSans-2d" transform="translate(1023.095703 0)"/>
     <use xlink:href="#DejaVuSans-30" transform="translate(1059.179688 0)"/>
     <use xlink:href="#DejaVuSans-2e" transform="translate(1122.802734 0)"/>
     <use xlink:href="#DejaVuSans-36" transform="translate(1154.589844 0)"/>
     <use xlink:href="#DejaVuSans-39" transform="translate(1218.212891 0)"/>
     <use xlink:href="#DejaVuSans-5d" transform="translate(1281.835938 0)"/>
    </g>
   </g>
  </g>
 </g>
 <defs>
  <clipPath id="p0c32a4d909">
   <rect x="47.81" y="38.901" width="214.99" height="214.99"/>
  </clipPath>
 </defs>
</svg>
