<?xml version="1.0" encoding="utf-8" standalone="no"?>
<!DOCTYPE svg PUBLIC "-//W3C//DTD SVG 1.1//EN"
  "http://www.w3.org/Graphics/SVG/1.1/DTD/svg11.dtd">
<svg xmlns:xlink="http://www.w3.org/1999/xlink" width="273.6pt" height="295.488pt" viewBox="0 0 273.6 295.488" xmlns="http://www.w3.org/2000/svg" version="1.1">
 <metadata>
  <rdf:RDF xmlns:dc="http://purl.org/dc/elements/1.1/" xmlns:cc="http://creativecommons.org/ns#" xmlns:rdf="http://www.w3.org/1999/02/22-rdf-syntax-ns#">
   <cc:Work>
    <dc:type rdf:resource="http://purl.org/dc/dcmitype/StillImage"/>
    <dc:date>2026-05-09T17:00:40.945153</dc:date>
    <dc:format>image/svg+xml</dc:format>
    <dc:creator>
     <cc:Agent>
      <dc:title>Matplotlib v3.10.8, https://matplotlib.org/</dc:title>
     </cc:Agent>
    </dc:creator>
   </cc:Work>
  </rdf:RDF>
 </metadata>
 <defs>
  <style type="text/css">*{stroke-linejoin: round; stroke-linecap: butt}</style>
 </defs>
 <g id="figure_1">
  <g id="patch_1">
   <path d="M 0 295.488 
L 273.6 295.488 
L 273.6 0 
L 0 0 
z
" style="fill: #ffffff"/>
  </g>
  <g id="axes_1">
   <g id="patch_2">
    <path d="M 47.81 253.891 
L 262.8 253.891 
L 262.8 38.901 
L 47.81 38.901 
z
" style="fill: #ffffff"/>
   </g>
   <g id="FillBetweenPolyCollection_1">
    <path d="M 57.582273 207.962155 
L 57.582273 241.365974 
L 57.777914 241.365974 
L 57.973555 241.365974 
L 58.169196 241.365974 
L 58.364837 241.365974 
L 58.560478 241.365974 
L 58.756119 241.365974 
L 58.95176 241.365974 
L 59.147401 241.365974 
L 59.343043 241.365974 
L 59.538684 241.365974 
L 59.734325 241.24608 
L 59.929966 240.431653 
L 60.125607 240.2877 
L 60.321248 240.236344 
L 60.516889 240.236344 
L 60.71253 240.236344 
L 60.908171 240.236344 
L 61.103812 240.236344 
L 61.299454 240.236344 
L 61.495095 240.236344 
L 61.690736 240.210465 
L 61.886377 240.102725 
L 62.082018 239.870677 
L 62.277659 239.074974 
L 62.4733 238.803143 
L 62.668941 238.061846 
L 62.864582 237.855447 
L 63.060223 237.85445 
L 63.255865 237.652209 
L 63.451506 237.518041 
L 63.647147 237.472046 
L 63.842788 237.379229 
L 64.038429 237.379229 
L 64.23407 236.611845 
L 64.429711 235.981999 
L 64.625352 235.406887 
L 64.820993 233.705907 
L 65.016634 233.705907 
L 65.212275 232.630148 
L 65.407917 231.995325 
L 65.603558 231.47305 
L 65.799199 230.915169 
L 65.99484 229.961071 
L 66.190481 228.876541 
L 66.386122 227.946701 
L 66.581763 227.834414 
L 66.777404 227.520235 
L 66.973045 226.726235 
L 67.168686 226.726235 
L 67.364328 226.596031 
L 67.559969 226.579183 
L 67.75561 226.226058 
L 67.951251 225.882696 
L 68.146892 225.122306 
L 68.342533 225.117086 
L 68.538174 225.117086 
L 68.733815 224.440325 
L 68.929456 224.313154 
L 69.125097 223.550879 
L 69.320738 223.474892 
L 69.51638 223.228319 
L 69.712021 223.132467 
L 69.907662 222.852891 
L 70.103303 222.820823 
L 70.298944 222.820823 
L 70.494585 222.55258 
L 70.690226 222.263268 
L 70.885867 222.263268 
L 71.081508 222.114934 
L 71.277149 222.114934 
L 71.472791 221.913709 
L 71.668432 221.628599 
L 71.864073 221.209868 
L 72.059714 221.204433 
L 72.255355 221.204433 
L 72.450996 220.83019 
L 72.646637 220.357634 
L 72.842278 220.31532 
L 73.037919 220.164737 
L 73.23356 220.026167 
L 73.429201 220.026167 
L 73.624843 220.022712 
L 73.820484 220.022712 
L 74.016125 220.022712 
L 74.211766 219.696412 
L 74.407407 219.688045 
L 74.603048 219.530298 
L 74.798689 219.526253 
L 74.99433 219.517428 
L 75.189971 219.196153 
L 75.385612 218.818917 
L 75.581254 218.516148 
L 75.776895 218.516148 
L 75.972536 218.516148 
L 76.168177 218.250947 
L 76.363818 218.250947 
L 76.559459 218.250947 
L 76.7551 218.250947 
L 76.950741 218.152963 
L 77.146382 217.016843 
L 77.342023 217.016843 
L 77.537664 215.817681 
L 77.733306 215.587287 
L 77.928947 215.518693 
L 78.124588 215.518693 
L 78.320229 215.417858 
L 78.51587 215.417858 
L 78.711511 215.417858 
L 78.907152 215.417858 
L 79.102793 215.378665 
L 79.298434 215.378665 
L 79.494075 215.378665 
L 79.689717 214.94002 
L 79.885358 214.470012 
L 80.080999 214.470012 
L 80.27664 214.470012 
L 80.472281 214.055416 
L 80.667922 213.951817 
L 80.863563 213.841217 
L 81.059204 213.747772 
L 81.254845 213.271082 
L 81.450486 213.271082 
L 81.646127 213.120582 
L 81.841769 212.285667 
L 82.03741 211.957664 
L 82.233051 211.957664 
L 82.428692 211.942109 
L 82.624333 211.554416 
L 82.819974 211.544485 
L 83.015615 211.544485 
L 83.211256 211.086586 
L 83.406897 210.910272 
L 83.602538 210.852775 
L 83.79818 210.652921 
L 83.993821 210.613792 
L 84.189462 209.731928 
L 84.385103 209.709316 
L 84.580744 209.709316 
L 84.776385 209.471379 
L 84.972026 209.403038 
L 85.167667 209.403038 
L 85.363308 208.972944 
L 85.558949 208.972944 
L 85.75459 208.972944 
L 85.950232 208.972944 
L 86.145873 208.972944 
L 86.341514 208.972944 
L 86.537155 208.599054 
L 86.732796 207.821714 
L 86.928437 207.190943 
L 87.124078 206.073183 
L 87.319719 205.80231 
L 87.51536 205.796089 
L 87.711001 205.796089 
L 87.906643 205.796089 
L 88.102284 205.796089 
L 88.297925 205.796089 
L 88.493566 205.796089 
L 88.689207 205.29737 
L 88.884848 205.29737 
L 89.080489 205.03633 
L 89.27613 205.03633 
L 89.471771 204.782157 
L 89.667412 204.782157 
L 89.863054 204.758625 
L 90.058695 204.758625 
L 90.254336 204.758625 
L 90.449977 204.758625 
L 90.645618 203.517985 
L 90.841259 203.517985 
L 91.0369 202.146207 
L 91.232541 202.143865 
L 91.428182 201.801733 
L 91.623823 201.28561 
L 91.819464 201.217699 
L 92.015106 200.991691 
L 92.210747 200.84513 
L 92.406388 200.55542 
L 92.602029 200.419924 
L 92.79767 200.419924 
L 92.993311 199.147855 
L 93.188952 198.470654 
L 93.384593 198.470654 
L 93.580234 198.215184 
L 93.775875 198.13349 
L 93.971517 198.058334 
L 94.167158 197.653675 
L 94.362799 197.649179 
L 94.55844 197.265365 
L 94.754081 197.213157 
L 94.949722 196.898137 
L 95.145363 196.898137 
L 95.341004 196.454212 
L 95.536645 196.34582 
L 95.732286 195.918925 
L 95.927927 195.602201 
L 96.123569 195.602201 
L 96.31921 194.914631 
L 96.514851 194.914631 
L 96.710492 194.306045 
L 96.906133 194.306045 
L 97.101774 194.24776 
L 97.297415 193.944528 
L 97.493056 193.944528 
L 97.688697 193.687581 
L 97.884338 193.552231 
L 98.07998 193.552231 
L 98.275621 193.552231 
L 98.471262 193.504296 
L 98.666903 193.499761 
L 98.862544 193.499761 
L 99.058185 193.499761 
L 99.253826 193.142127 
L 99.449467 193.0233 
L 99.645108 192.358933 
L 99.840749 192.18502 
L 100.03639 192.18502 
L 100.232032 192.182173 
L 100.427673 192.182173 
L 100.623314 191.721743 
L 100.818955 191.553127 
L 101.014596 191.550639 
L 101.210237 191.550639 
L 101.405878 191.403656 
L 101.601519 190.821767 
L 101.79716 190.815421 
L 101.992801 190.815421 
L 102.188443 190.690791 
L 102.384084 190.495331 
L 102.579725 190.467618 
L 102.775366 190.20382 
L 102.971007 189.549468 
L 103.166648 189.509901 
L 103.362289 189.347878 
L 103.55793 189.03309 
L 103.753571 188.855573 
L 103.949212 188.855573 
L 104.144853 188.642872 
L 104.340495 188.637437 
L 104.536136 188.286176 
L 104.731777 188.103775 
L 104.927418 188.091238 
L 105.123059 188.091238 
L 105.3187 187.89513 
L 105.514341 187.875913 
L 105.709982 187.875913 
L 105.905623 186.479643 
L 106.101264 186.479643 
L 106.296906 186.479643 
L 106.492547 186.161479 
L 106.688188 186.161479 
L 106.883829 186.161479 
L 107.07947 184.976434 
L 107.275111 184.976434 
L 107.470752 184.815132 
L 107.666393 184.189313 
L 107.862034 183.986676 
L 108.057675 183.986676 
L 108.253316 183.657878 
L 108.448958 183.657878 
L 108.644599 183.559052 
L 108.84024 183.130916 
L 109.035881 182.627756 
L 109.231522 182.627756 
L 109.427163 182.627756 
L 109.622804 182.05159 
L 109.818445 182.05159 
L 110.014086 181.933008 
L 110.209727 181.525085 
L 110.405369 181.525085 
L 110.60101 181.525085 
L 110.796651 181.075045 
L 110.992292 180.995445 
L 111.187933 180.274569 
L 111.383574 180.248302 
L 111.579215 180.248302 
L 111.774856 180.248302 
L 111.970497 180.248302 
L 112.166138 179.88141 
L 112.36178 179.88141 
L 112.557421 179.863155 
L 112.753062 179.44953 
L 112.948703 179.44953 
L 113.144344 178.981247 
L 113.339985 178.970242 
L 113.535626 178.53322 
L 113.731267 178.53322 
L 113.926908 178.533004 
L 114.122549 178.117765 
L 114.31819 178.117765 
L 114.513832 177.703184 
L 114.709473 177.703184 
L 114.905114 177.557442 
L 115.100755 176.904459 
L 115.296396 176.633489 
L 115.492037 175.782794 
L 115.687678 175.716165 
L 115.883319 175.526868 
L 116.07896 175.450452 
L 116.274601 175.377665 
L 116.470243 175.301804 
L 116.665884 175.301804 
L 116.861525 174.418018 
L 117.057166 174.319002 
L 117.252807 173.963053 
L 117.448448 173.963053 
L 117.644089 173.963053 
L 117.83973 173.963053 
L 118.035371 173.412345 
L 118.231012 173.412345 
L 118.426653 172.822318 
L 118.622295 172.788751 
L 118.817936 172.788269 
L 119.013577 171.832814 
L 119.209218 171.684646 
L 119.404859 171.684646 
L 119.6005 171.680901 
L 119.796141 171.680901 
L 119.991782 171.636776 
L 120.187423 171.568721 
L 120.383064 171.363946 
L 120.578706 171.363946 
L 120.774347 171.363946 
L 120.969988 171.363946 
L 121.165629 171.307113 
L 121.36127 171.307113 
L 121.556911 171.307113 
L 121.752552 171.307113 
L 121.948193 171.000698 
L 122.143834 170.496491 
L 122.339475 170.496491 
L 122.535116 170.496491 
L 122.730758 169.939891 
L 122.926399 169.939891 
L 123.12204 169.939891 
L 123.317681 169.939891 
L 123.513322 169.051796 
L 123.708963 168.737993 
L 123.904604 168.737993 
L 124.100245 168.737993 
L 124.295886 168.608884 
L 124.491527 168.193864 
L 124.687169 168.181545 
L 124.88281 168.181545 
L 125.078451 168.181545 
L 125.274092 167.976402 
L 125.469733 167.976402 
L 125.665374 167.976402 
L 125.861015 167.976402 
L 126.056656 167.976402 
L 126.252297 167.582133 
L 126.447938 167.384439 
L 126.643579 167.384439 
L 126.839221 167.384439 
L 127.034862 167.384439 
L 127.230503 167.246912 
L 127.426144 166.795678 
L 127.621785 166.480502 
L 127.817426 166.480502 
L 128.013067 166.458725 
L 128.208708 166.220005 
L 128.404349 166.204892 
L 128.59999 166.204892 
L 128.795632 165.940545 
L 128.991273 165.940545 
L 129.186914 165.68981 
L 129.382555 165.68981 
L 129.578196 165.68981 
L 129.773837 165.68981 
L 129.969478 165.68981 
L 130.165119 165.68981 
L 130.36076 165.421844 
L 130.556401 165.144308 
L 130.752042 164.955608 
L 130.947684 164.112709 
L 131.143325 164.112709 
L 131.338966 163.798677 
L 131.534607 163.569385 
L 131.730248 163.569385 
L 131.925889 161.797706 
L 132.12153 161.752429 
L 132.317171 161.325861 
L 132.512812 161.325861 
L 132.708453 161.122306 
L 132.904095 161.122306 
L 133.099736 161.086345 
L 133.295377 161.086345 
L 133.491018 161.086345 
L 133.686659 160.55344 
L 133.8823 160.548947 
L 134.077941 160.548947 
L 134.273582 160.1785 
L 134.469223 159.755161 
L 134.664864 159.755161 
L 134.860506 159.474358 
L 135.056147 159.467193 
L 135.251788 159.467193 
L 135.447429 159.205524 
L 135.64307 159.205524 
L 135.838711 158.894729 
L 136.034352 158.894729 
L 136.229993 158.894729 
L 136.425634 158.533498 
L 136.621275 158.287454 
L 136.816916 158.281197 
L 137.012558 158.281197 
L 137.208199 157.855031 
L 137.40384 157.69799 
L 137.599481 157.69799 
L 137.795122 157.69799 
L 137.990763 157.410476 
L 138.186404 157.398124 
L 138.382045 157.398124 
L 138.577686 157.257676 
L 138.773327 157.257676 
L 138.968969 156.424539 
L 139.16461 156.174537 
L 139.360251 156.032211 
L 139.555892 156.032211 
L 139.751533 156.032211 
L 139.947174 155.949915 
L 140.142815 155.771202 
L 140.338456 155.771202 
L 140.534097 155.771202 
L 140.729738 155.771202 
L 140.925379 155.643208 
L 141.121021 155.643208 
L 141.316662 155.643208 
L 141.512303 155.535536 
L 141.707944 155.535536 
L 141.903585 155.535536 
L 142.099226 155.286276 
L 142.294867 155.286276 
L 142.490508 155.286276 
L 142.686149 155.279884 
L 142.88179 155.279884 
L 143.077432 154.903285 
L 143.273073 153.732343 
L 143.468714 153.732343 
L 143.664355 153.38492 
L 143.859996 153.38492 
L 144.055637 153.18469 
L 144.251278 152.734844 
L 144.446919 152.550806 
L 144.64256 152.550806 
L 144.838201 152.072077 
L 145.033842 152.072077 
L 145.229484 152.072077 
L 145.425125 151.931044 
L 145.620766 151.931044 
L 145.816407 151.326314 
L 146.012048 151.326314 
L 146.207689 151.052717 
L 146.40333 150.482322 
L 146.598971 150.46778 
L 146.794612 150.308981 
L 146.990253 149.376037 
L 147.185895 149.364159 
L 147.381536 149.364159 
L 147.577177 149.364159 
L 147.772818 149.364159 
L 147.968459 149.192308 
L 148.1641 149.112459 
L 148.359741 149.037155 
L 148.555382 148.507502 
L 148.751023 148.507502 
L 148.946664 148.418556 
L 149.142305 148.338832 
L 149.337947 148.338832 
L 149.533588 148.28866 
L 149.729229 148.28866 
L 149.92487 148.28866 
L 150.120511 148.263916 
L 150.316152 148.240412 
L 150.511793 147.729659 
L 150.707434 147.729659 
L 150.903075 147.712491 
L 151.098716 147.712491 
L 151.294358 147.094866 
L 151.489999 147.061245 
L 151.68564 146.396 
L 151.881281 146.396 
L 152.076922 145.700528 
L 152.272563 145.661779 
L 152.468204 144.533509 
L 152.663845 144.533509 
L 152.859486 144.533509 
L 153.055127 144.377412 
L 153.250768 143.370976 
L 153.44641 142.559089 
L 153.642051 142.559089 
L 153.837692 142.559089 
L 154.033333 142.273662 
L 154.228974 141.321579 
L 154.424615 141.187506 
L 154.620256 141.187506 
L 154.815897 141.187506 
L 155.011538 141.187506 
L 155.207179 141.187506 
L 155.402821 139.883295 
L 155.598462 139.883295 
L 155.794103 139.883295 
L 155.989744 139.883295 
L 156.185385 139.883295 
L 156.381026 139.795314 
L 156.576667 139.550698 
L 156.772308 138.800441 
L 156.967949 138.800441 
L 157.16359 138.800441 
L 157.359232 138.800441 
L 157.554873 138.665514 
L 157.750514 137.748596 
L 157.946155 137.299979 
L 158.141796 137.299979 
L 158.337437 137.299979 
L 158.533078 136.944287 
L 158.728719 136.567662 
L 158.92436 136.567662 
L 159.120001 135.8185 
L 159.315642 135.8185 
L 159.511284 135.221579 
L 159.706925 135.069342 
L 159.902566 135.069342 
L 160.098207 134.669273 
L 160.293848 134.190385 
L 160.489489 133.934713 
L 160.68513 133.934713 
L 160.880771 133.934713 
L 161.076412 133.710486 
L 161.272053 133.710486 
L 161.467695 133.494613 
L 161.663336 133.164474 
L 161.858977 132.118691 
L 162.054618 132.103626 
L 162.250259 132.080311 
L 162.4459 131.044979 
L 162.641541 131.031011 
L 162.837182 130.767124 
L 163.032823 130.680409 
L 163.228464 130.680409 
L 163.424105 130.635372 
L 163.619747 130.635372 
L 163.815388 130.00788 
L 164.011029 129.652433 
L 164.20667 129.380086 
L 164.402311 129.380086 
L 164.597952 129.296493 
L 164.793593 128.641296 
L 164.989234 128.641296 
L 165.184875 128.641296 
L 165.380516 128.45146 
L 165.576158 128.257012 
L 165.771799 127.667149 
L 165.96744 126.851455 
L 166.163081 126.851455 
L 166.358722 126.851455 
L 166.554363 126.102182 
L 166.750004 125.369268 
L 166.945645 125.319762 
L 167.141286 125.214033 
L 167.336927 125.214033 
L 167.532568 125.211353 
L 167.72821 125.211353 
L 167.923851 125.153414 
L 168.119492 124.981685 
L 168.315133 124.824764 
L 168.510774 124.824764 
L 168.706415 124.614229 
L 168.902056 124.538812 
L 169.097697 124.334762 
L 169.293338 124.292988 
L 169.488979 124.292988 
L 169.684621 124.065193 
L 169.880262 124.065193 
L 170.075903 124.041584 
L 170.271544 123.948558 
L 170.467185 123.948558 
L 170.662826 123.948558 
L 170.858467 123.948558 
L 171.054108 123.453627 
L 171.249749 123.25589 
L 171.44539 123.064027 
L 171.641031 122.814042 
L 171.836673 122.150761 
L 172.032314 121.811641 
L 172.227955 121.811641 
L 172.423596 121.811641 
L 172.619237 121.643779 
L 172.814878 121.621683 
L 173.010519 121.489659 
L 173.20616 121.272773 
L 173.401801 120.813586 
L 173.597442 120.38909 
L 173.793084 120.213229 
L 173.988725 119.98764 
L 174.184366 119.984452 
L 174.380007 119.87409 
L 174.575648 119.87409 
L 174.771289 119.87409 
L 174.96693 119.87126 
L 175.162571 119.87126 
L 175.358212 119.74752 
L 175.553853 119.74752 
L 175.749494 119.744347 
L 175.945136 119.744347 
L 176.140777 119.508773 
L 176.336418 119.187366 
L 176.532059 119.187366 
L 176.7277 118.492892 
L 176.923341 118.076325 
L 177.118982 118.076325 
L 177.314623 117.579366 
L 177.510264 117.579366 
L 177.705905 117.579366 
L 177.901547 117.494075 
L 178.097188 117.150192 
L 178.292829 116.885845 
L 178.48847 116.885845 
L 178.684111 116.882425 
L 178.879752 116.882425 
L 179.075393 116.882425 
L 179.271034 116.544931 
L 179.466675 116.029157 
L 179.662316 116.029157 
L 179.857958 116.029157 
L 180.053599 116.029157 
L 180.24924 116.02272 
L 180.444881 115.68634 
L 180.640522 115.68634 
L 180.836163 115.68634 
L 181.031804 115.57071 
L 181.227445 115.57071 
L 181.423086 115.57071 
L 181.618727 115.277032 
L 181.814368 115.277032 
L 182.01001 115.277032 
L 182.205651 115.103437 
L 182.401292 114.338577 
L 182.596933 114.328651 
L 182.792574 114.328651 
L 182.988215 114.243196 
L 183.183856 113.427681 
L 183.379497 113.427681 
L 183.575138 113.427681 
L 183.770779 113.427681 
L 183.966421 112.891553 
L 184.162062 112.891553 
L 184.357703 112.446496 
L 184.553344 112.43562 
L 184.748985 112.43562 
L 184.944626 112.375554 
L 185.140267 112.375554 
L 185.335908 112.375554 
L 185.531549 112.375554 
L 185.72719 112.375554 
L 185.922831 112.162702 
L 186.118473 112.162702 
L 186.314114 111.990972 
L 186.509755 111.986589 
L 186.705396 111.986589 
L 186.901037 111.986589 
L 187.096678 111.507315 
L 187.292319 111.495026 
L 187.48796 111.495026 
L 187.683601 111.495026 
L 187.879242 111.109952 
L 188.074884 111.109952 
L 188.270525 111.109952 
L 188.466166 111.109952 
L 188.661807 110.743412 
L 188.857448 110.743412 
L 189.053089 110.743412 
L 189.24873 110.743412 
L 189.444371 110.613467 
L 189.640012 110.398323 
L 189.835653 110.182482 
L 190.031294 110.182482 
L 190.226936 109.990193 
L 190.422577 109.84758 
L 190.618218 109.84758 
L 190.813859 109.174583 
L 191.0095 108.819285 
L 191.205141 108.819285 
L 191.400782 108.714529 
L 191.596423 108.714529 
L 191.792064 108.703176 
L 191.987705 108.612206 
L 192.183347 108.612206 
L 192.378988 108.612206 
L 192.574629 108.612206 
L 192.77027 108.506173 
L 192.965911 108.429202 
L 193.161552 108.429202 
L 193.357193 108.393582 
L 193.552834 108.162573 
L 193.748475 108.100691 
L 193.944116 106.487566 
L 194.139757 106.326612 
L 194.335399 106.161365 
L 194.53104 105.941028 
L 194.726681 105.684681 
L 194.922322 105.463603 
L 195.117963 105.458101 
L 195.313604 105.458101 
L 195.509245 105.416566 
L 195.704886 105.416566 
L 195.900527 105.416566 
L 196.096168 105.326413 
L 196.29181 104.907978 
L 196.487451 104.907978 
L 196.683092 104.524393 
L 196.878733 104.524393 
L 197.074374 104.524393 
L 197.270015 104.524393 
L 197.465656 104.524393 
L 197.661297 104.325784 
L 197.856938 104.325784 
L 198.052579 104.325784 
L 198.24822 104.325784 
L 198.443862 104.325784 
L 198.639503 103.5305 
L 198.835144 103.193401 
L 199.030785 103.193401 
L 199.226426 102.826154 
L 199.422067 102.826154 
L 199.617708 102.826154 
L 199.813349 102.734761 
L 200.00899 102.734761 
L 200.204631 102.734761 
L 200.400273 102.734761 
L 200.595914 102.209186 
L 200.791555 101.982237 
L 200.987196 101.982237 
L 201.182837 101.641284 
L 201.378478 101.499776 
L 201.574119 101.499776 
L 201.76976 101.350262 
L 201.965401 101.350262 
L 202.161042 101.350262 
L 202.356684 101.144339 
L 202.552325 100.887819 
L 202.747966 100.340579 
L 202.943607 100.340579 
L 203.139248 100.250437 
L 203.334889 100.250437 
L 203.53053 100.177625 
L 203.726171 100.034817 
L 203.921812 100.034817 
L 204.117453 100.034817 
L 204.313094 98.937323 
L 204.508736 98.937323 
L 204.704377 98.611776 
L 204.900018 98.468293 
L 205.095659 98.468293 
L 205.2913 98.210578 
L 205.486941 98.186567 
L 205.682582 98.186567 
L 205.878223 97.239079 
L 206.073864 97.198305 
L 206.269505 97.198305 
L 206.465147 97.188341 
L 206.660788 96.890775 
L 206.856429 96.595842 
L 207.05207 96.595842 
L 207.247711 96.595842 
L 207.443352 96.214059 
L 207.638993 95.98443 
L 207.834634 95.98443 
L 208.030275 95.805361 
L 208.225916 95.805361 
L 208.421557 95.805361 
L 208.617199 94.904344 
L 208.81284 94.904344 
L 209.008481 94.82195 
L 209.204122 94.820116 
L 209.399763 94.820116 
L 209.595404 94.168997 
L 209.791045 94.168997 
L 209.986686 93.470686 
L 210.182327 93.470686 
L 210.377968 93.470686 
L 210.57361 93.101948 
L 210.769251 92.723742 
L 210.964892 92.723742 
L 211.160533 92.719539 
L 211.356174 92.65022 
L 211.551815 92.247601 
L 211.747456 92.247601 
L 211.943097 92.247601 
L 212.138738 91.94009 
L 212.334379 91.546851 
L 212.53002 90.561285 
L 212.725662 90.214157 
L 212.921303 90.022202 
L 213.116944 89.612788 
L 213.312585 89.612788 
L 213.508226 88.015728 
L 213.703867 87.76851 
L 213.899508 87.76851 
L 214.095149 87.762364 
L 214.29079 87.762364 
L 214.486431 87.511793 
L 214.682073 87.511793 
L 214.877714 87.254627 
L 215.073355 86.882889 
L 215.268996 86.882889 
L 215.464637 86.503336 
L 215.660278 86.460445 
L 215.855919 86.460445 
L 216.05156 86.048384 
L 216.247201 85.963641 
L 216.442842 85.902509 
L 216.638483 85.837075 
L 216.834125 85.835437 
L 217.029766 85.835437 
L 217.225407 85.577408 
L 217.421048 85.577408 
L 217.616689 85.325702 
L 217.81233 85.097371 
L 218.007971 84.973321 
L 218.203612 84.82112 
L 218.399253 84.775728 
L 218.594894 84.755989 
L 218.790536 84.755989 
L 218.986177 84.678361 
L 219.181818 84.464493 
L 219.377459 84.215066 
L 219.5731 84.215066 
L 219.768741 83.755732 
L 219.964382 83.755732 
L 220.160023 83.535373 
L 220.355664 83.535373 
L 220.551305 83.095103 
L 220.746946 83.095103 
L 220.942588 81.720772 
L 221.138229 81.720772 
L 221.33387 81.456251 
L 221.529511 81.456251 
L 221.725152 81.456251 
L 221.920793 80.818907 
L 222.116434 80.783087 
L 222.312075 80.783087 
L 222.507716 80.783087 
L 222.703357 80.782169 
L 222.898999 80.782169 
L 223.09464 80.782169 
L 223.290281 80.560139 
L 223.485922 80.560139 
L 223.681563 79.489921 
L 223.877204 79.489921 
L 224.072845 79.489921 
L 224.268486 79.466237 
L 224.464127 78.660629 
L 224.659768 78.334929 
L 224.85541 78.334929 
L 225.051051 78.334929 
L 225.246692 78.129035 
L 225.442333 78.129035 
L 225.637974 78.129035 
L 225.833615 78.129035 
L 226.029256 77.923613 
L 226.224897 77.30715 
L 226.420538 76.987322 
L 226.616179 76.987322 
L 226.81182 76.961874 
L 227.007462 76.961431 
L 227.203103 76.961431 
L 227.398744 76.945661 
L 227.594385 76.400983 
L 227.790026 76.091124 
L 227.985667 76.061103 
L 228.181308 76.036259 
L 228.376949 75.858959 
L 228.57259 75.858959 
L 228.768231 75.858959 
L 228.963873 75.819374 
L 229.159514 75.718601 
L 229.355155 75.718601 
L 229.550796 74.927774 
L 229.746437 74.6482 
L 229.942078 73.894309 
L 230.137719 73.894309 
L 230.33336 73.119615 
L 230.529001 72.939679 
L 230.724642 72.455961 
L 230.920283 72.406878 
L 231.115925 72.406878 
L 231.311566 72.1295 
L 231.507207 72.1295 
L 231.702848 71.824468 
L 231.898489 71.819736 
L 232.09413 71.74848 
L 232.289771 71.591546 
L 232.485412 71.339964 
L 232.681053 71.123088 
L 232.876694 71.123088 
L 233.072336 71.123088 
L 233.267977 70.705991 
L 233.463618 70.705991 
L 233.659259 70.123878 
L 233.8549 70.123878 
L 234.050541 69.842551 
L 234.246182 69.842551 
L 234.441823 69.572225 
L 234.637464 69.039129 
L 234.833105 68.756747 
L 235.028746 68.503328 
L 235.224388 68.503328 
L 235.420029 68.34899 
L 235.61567 68.217818 
L 235.811311 68.217818 
L 236.006952 68.217818 
L 236.202593 67.945959 
L 236.398234 67.746157 
L 236.593875 67.676569 
L 236.789516 67.676569 
L 236.985157 67.676569 
L 237.180799 67.676569 
L 237.37644 67.547144 
L 237.572081 67.547144 
L 237.767722 67.471325 
L 237.963363 66.921011 
L 238.159004 66.883286 
L 238.354645 66.447342 
L 238.550286 66.447342 
L 238.745927 66.329276 
L 238.941568 66.216078 
L 239.137209 66.078951 
L 239.332851 65.957565 
L 239.528492 65.957565 
L 239.724133 64.850877 
L 239.919774 64.261652 
L 240.115415 64.261652 
L 240.311056 64.032463 
L 240.506697 63.710185 
L 240.702338 63.480257 
L 240.897979 63.206627 
L 241.09362 63.206627 
L 241.289262 63.199624 
L 241.484903 63.199624 
L 241.680544 62.824471 
L 241.876185 62.638255 
L 242.071826 62.164304 
L 242.267467 62.164304 
L 242.463108 61.609558 
L 242.658749 61.609558 
L 242.85439 61.533417 
L 243.050031 61.449586 
L 243.245672 61.130164 
L 243.441314 60.892915 
L 243.636955 60.64137 
L 243.832596 60.560491 
L 244.028237 59.847698 
L 244.223878 59.458342 
L 244.419519 58.963304 
L 244.61516 58.667045 
L 244.810801 58.5883 
L 245.006442 58.445545 
L 245.202083 58.311349 
L 245.397725 58.110209 
L 245.593366 58.108571 
L 245.789007 57.922096 
L 245.984648 57.797142 
L 246.180289 57.560079 
L 246.37593 56.931531 
L 246.571571 56.706663 
L 246.767212 56.240131 
L 246.962853 56.008388 
L 247.158494 55.966925 
L 247.354135 55.612787 
L 247.549777 55.612787 
L 247.745418 55.46076 
L 247.941059 55.413941 
L 248.1367 55.278421 
L 248.332341 55.231845 
L 248.527982 54.380758 
L 248.723623 54.178778 
L 248.919264 53.886912 
L 249.114905 53.783798 
L 249.310546 53.783798 
L 249.506188 53.783798 
L 249.701829 53.783798 
L 249.89747 53.783798 
L 250.093111 53.783798 
L 250.288752 53.625301 
L 250.484393 53.004529 
L 250.680034 52.89152 
L 250.875675 52.689275 
L 251.071316 52.456088 
L 251.266957 52.432445 
L 251.462599 52.432445 
L 251.65824 52.432445 
L 251.853881 52.432445 
L 252.049522 52.432445 
L 252.245163 52.432445 
L 252.440804 52.432445 
L 252.636445 52.432445 
L 252.832086 52.432445 
L 253.027727 48.673273 
L 253.027727 48.673273 
L 253.027727 48.673273 
L 252.832086 48.673273 
L 252.636445 48.673273 
L 252.440804 48.673273 
L 252.245163 48.673273 
L 252.049522 48.673273 
L 251.853881 48.673273 
L 251.65824 48.673273 
L 251.462599 48.673273 
L 251.266957 48.673273 
L 251.071316 48.673273 
L 250.875675 48.673273 
L 250.680034 48.673273 
L 250.484393 48.673273 
L 250.288752 48.673273 
L 250.093111 48.673273 
L 249.89747 48.673273 
L 249.701829 48.673273 
L 249.506188 48.673273 
L 249.310546 48.673273 
L 249.114905 48.673273 
L 248.919264 48.673273 
L 248.723623 48.673273 
L 248.527982 48.673273 
L 248.332341 48.673273 
L 248.1367 48.673273 
L 247.941059 48.673273 
L 247.745418 48.673273 
L 247.549777 48.673273 
L 247.354135 48.673273 
L 247.158494 48.673273 
L 246.962853 48.673273 
L 246.767212 48.673273 
L 246.571571 48.673273 
L 246.37593 48.673273 
L 246.180289 48.673273 
L 245.984648 48.673273 
L 245.789007 48.673273 
L 245.593366 48.673273 
L 245.397725 48.673273 
L 245.202083 48.673273 
L 245.006442 48.673273 
L 244.810801 48.673273 
L 244.61516 48.673273 
L 244.419519 48.673273 
L 244.223878 48.673273 
L 244.028237 48.673273 
L 243.832596 48.673273 
L 243.636955 48.673273 
L 243.441314 48.673273 
L 243.245672 48.673273 
L 243.050031 48.673273 
L 242.85439 48.673273 
L 242.658749 48.673273 
L 242.463108 48.673273 
L 242.267467 48.673273 
L 242.071826 48.673273 
L 241.876185 48.673273 
L 241.680544 48.673273 
L 241.484903 48.673273 
L 241.289262 48.673273 
L 241.09362 48.673273 
L 240.897979 48.673273 
L 240.702338 48.673273 
L 240.506697 48.673273 
L 240.311056 48.673273 
L 240.115415 48.673273 
L 239.919774 48.673273 
L 239.724133 48.673273 
L 239.528492 48.673273 
L 239.332851 48.673273 
L 239.137209 48.673273 
L 238.941568 48.673273 
L 238.745927 48.673273 
L 238.550286 48.673273 
L 238.354645 48.673273 
L 238.159004 48.673273 
L 237.963363 48.673273 
L 237.767722 48.673273 
L 237.572081 48.673273 
L 237.37644 48.673273 
L 237.180799 48.673273 
L 236.985157 48.673273 
L 236.789516 48.673273 
L 236.593875 48.673273 
L 236.398234 48.673273 
L 236.202593 48.673273 
L 236.006952 48.673273 
L 235.811311 48.673273 
L 235.61567 48.673273 
L 235.420029 48.673273 
L 235.224388 48.673273 
L 235.028746 48.673273 
L 234.833105 48.673273 
L 234.637464 48.673273 
L 234.441823 48.673273 
L 234.246182 48.673273 
L 234.050541 48.673273 
L 233.8549 49.79421 
L 233.659259 49.857612 
L 233.463618 49.857612 
L 233.267977 49.871961 
L 233.072336 49.879541 
L 232.876694 49.917951 
L 232.681053 49.941992 
L 232.485412 49.96719 
L 232.289771 49.976027 
L 232.09413 49.976242 
L 231.898489 49.99385 
L 231.702848 50.002609 
L 231.507207 50.011713 
L 231.311566 50.011713 
L 231.115925 50.01194 
L 230.920283 50.01194 
L 230.724642 50.069064 
L 230.529001 50.069064 
L 230.33336 50.079104 
L 230.137719 50.099369 
L 229.942078 50.131022 
L 229.746437 51.131322 
L 229.550796 51.146877 
L 229.355155 51.277935 
L 229.159514 51.277935 
L 228.963873 51.350152 
L 228.768231 51.36861 
L 228.57259 51.387325 
L 228.376949 51.387325 
L 228.181308 51.387793 
L 227.985667 51.387793 
L 227.790026 51.406776 
L 227.594385 51.425544 
L 227.398744 51.445549 
L 227.203103 51.445549 
L 227.007462 51.464856 
L 226.81182 51.566678 
L 226.616179 51.589829 
L 226.420538 52.428359 
L 226.224897 52.556295 
L 226.029256 52.581535 
L 225.833615 52.582182 
L 225.637974 52.582182 
L 225.442333 52.608416 
L 225.246692 52.63434 
L 225.051051 52.689275 
L 224.85541 52.689275 
L 224.659768 52.689275 
L 224.464127 52.689275 
L 224.268486 52.689275 
L 224.072845 52.771421 
L 223.877204 52.771421 
L 223.681563 53.077059 
L 223.485922 53.077059 
L 223.290281 53.493409 
L 223.09464 53.849784 
L 222.898999 53.849784 
L 222.703357 53.884289 
L 222.507716 53.884289 
L 222.312075 53.953822 
L 222.116434 53.991516 
L 221.920793 54.293669 
L 221.725152 54.293669 
L 221.529511 54.337339 
L 221.33387 54.337339 
L 221.138229 54.337339 
L 220.942588 54.337339 
L 220.746946 54.549154 
L 220.551305 54.549154 
L 220.355664 54.551332 
L 220.160023 54.551332 
L 219.964382 55.185978 
L 219.768741 55.185978 
L 219.5731 55.365472 
L 219.377459 55.598029 
L 219.181818 55.65223 
L 218.986177 55.65223 
L 218.790536 55.653468 
L 218.594894 55.653468 
L 218.399253 55.653468 
L 218.203612 55.653468 
L 218.007971 55.703685 
L 217.81233 55.703685 
L 217.616689 55.803753 
L 217.421048 56.018125 
L 217.225407 56.020846 
L 217.029766 56.020846 
L 216.834125 56.020846 
L 216.638483 56.283211 
L 216.442842 56.283211 
L 216.247201 56.486014 
L 216.05156 56.486014 
L 215.855919 56.542248 
L 215.660278 56.649291 
L 215.464637 56.649291 
L 215.268996 56.650638 
L 215.073355 56.868203 
L 214.877714 56.868203 
L 214.682073 57.228342 
L 214.486431 57.228342 
L 214.29079 57.443261 
L 214.095149 57.443261 
L 213.899508 57.794061 
L 213.703867 57.794061 
L 213.508226 57.794061 
L 213.312585 57.794061 
L 213.116944 57.794061 
L 212.921303 57.917314 
L 212.725662 57.917314 
L 212.53002 57.917314 
L 212.334379 57.917314 
L 212.138738 58.169246 
L 211.943097 58.169246 
L 211.747456 58.234024 
L 211.551815 58.234024 
L 211.356174 58.508967 
L 211.160533 58.508967 
L 210.964892 58.51585 
L 210.769251 58.655945 
L 210.57361 58.760085 
L 210.377968 58.825813 
L 210.182327 58.890984 
L 209.986686 58.958195 
L 209.791045 59.23437 
L 209.595404 59.23437 
L 209.399763 59.307963 
L 209.204122 59.307963 
L 209.008481 59.382613 
L 208.81284 59.756601 
L 208.617199 59.839604 
L 208.421557 60.6373 
L 208.225916 60.719231 
L 208.030275 60.967717 
L 207.834634 60.967717 
L 207.638993 61.120058 
L 207.443352 61.200495 
L 207.247711 61.200495 
L 207.05207 61.200495 
L 206.856429 61.201828 
L 206.660788 61.444499 
L 206.465147 61.444499 
L 206.269505 61.529425 
L 206.073864 61.531526 
L 205.878223 61.531526 
L 205.682582 61.70297 
L 205.486941 61.70297 
L 205.2913 63.14238 
L 205.095659 63.148053 
L 204.900018 63.148053 
L 204.704377 63.150714 
L 204.508736 63.591823 
L 204.313094 63.591823 
L 204.117453 64.000831 
L 203.921812 64.000831 
L 203.726171 64.000831 
L 203.53053 64.002328 
L 203.334889 64.002328 
L 203.139248 64.029017 
L 202.943607 64.102398 
L 202.747966 64.102398 
L 202.552325 64.509776 
L 202.356684 64.552391 
L 202.161042 64.841829 
L 201.965401 64.957586 
L 201.76976 64.960394 
L 201.574119 65.166627 
L 201.378478 65.189343 
L 201.182837 65.304 
L 200.987196 65.42277 
L 200.791555 65.42277 
L 200.595914 65.544339 
L 200.400273 65.788065 
L 200.204631 65.788065 
L 200.00899 65.788065 
L 199.813349 65.839574 
L 199.617708 65.839574 
L 199.422067 66.434915 
L 199.226426 66.563038 
L 199.030785 66.563038 
L 198.835144 66.815389 
L 198.639503 66.821779 
L 198.443862 67.035152 
L 198.24822 67.035152 
L 198.052579 67.109667 
L 197.856938 67.109667 
L 197.661297 67.161356 
L 197.465656 67.161356 
L 197.270015 67.161356 
L 197.074374 67.493946 
L 196.878733 67.493946 
L 196.683092 67.493946 
L 196.487451 67.493946 
L 196.29181 67.493946 
L 196.096168 67.932576 
L 195.900527 68.210936 
L 195.704886 68.210936 
L 195.509245 68.475331 
L 195.313604 68.475331 
L 195.117963 68.475331 
L 194.922322 68.475331 
L 194.726681 68.846897 
L 194.53104 68.939355 
L 194.335399 68.939355 
L 194.139757 68.939355 
L 193.944116 68.939355 
L 193.748475 69.317108 
L 193.552834 69.318919 
L 193.357193 69.318919 
L 193.161552 69.657206 
L 192.965911 69.658435 
L 192.77027 69.798966 
L 192.574629 69.802511 
L 192.378988 70.219076 
L 192.183347 70.219076 
L 191.987705 70.219076 
L 191.792064 70.239668 
L 191.596423 70.38569 
L 191.400782 70.38569 
L 191.205141 70.38569 
L 191.0095 70.695296 
L 190.813859 70.695296 
L 190.618218 70.695296 
L 190.422577 70.820546 
L 190.226936 70.820546 
L 190.031294 71.115605 
L 189.835653 71.115605 
L 189.640012 71.115605 
L 189.444371 71.115605 
L 189.24873 71.664873 
L 189.053089 71.742716 
L 188.857448 71.742716 
L 188.661807 71.742716 
L 188.466166 71.834916 
L 188.270525 71.834916 
L 188.074884 71.834916 
L 187.879242 71.834916 
L 187.683601 72.439678 
L 187.48796 72.439678 
L 187.292319 72.439678 
L 187.096678 72.801949 
L 186.901037 72.801949 
L 186.705396 72.801949 
L 186.509755 72.801949 
L 186.314114 72.922546 
L 186.118473 72.935221 
L 185.922831 72.935221 
L 185.72719 72.935467 
L 185.531549 72.935467 
L 185.335908 72.935467 
L 185.140267 73.099742 
L 184.944626 73.274572 
L 184.748985 73.284669 
L 184.553344 73.284669 
L 184.357703 73.75226 
L 184.162062 73.888846 
L 183.966421 73.888846 
L 183.770779 74.005876 
L 183.575138 74.216376 
L 183.379497 74.281825 
L 183.183856 74.481737 
L 182.988215 74.481737 
L 182.792574 74.815985 
L 182.596933 75.435038 
L 182.401292 75.672391 
L 182.205651 76.188682 
L 182.01001 76.188682 
L 181.814368 76.197295 
L 181.618727 76.235673 
L 181.423086 76.235673 
L 181.227445 76.235673 
L 181.031804 76.235673 
L 180.836163 76.401165 
L 180.640522 76.401165 
L 180.444881 76.413705 
L 180.24924 76.589743 
L 180.053599 76.589743 
L 179.857958 76.589743 
L 179.662316 76.594052 
L 179.466675 76.594052 
L 179.271034 76.789899 
L 179.075393 77.166214 
L 178.879752 77.481118 
L 178.684111 77.574972 
L 178.48847 77.983488 
L 178.292829 78.240827 
L 178.097188 78.240827 
L 177.901547 78.240827 
L 177.705905 78.325071 
L 177.510264 78.325071 
L 177.314623 78.325071 
L 177.118982 78.325071 
L 176.923341 78.549853 
L 176.7277 78.549853 
L 176.532059 78.549853 
L 176.336418 78.549853 
L 176.140777 79.603474 
L 175.945136 79.734192 
L 175.749494 79.734192 
L 175.553853 79.734192 
L 175.358212 79.734192 
L 175.162571 79.99205 
L 174.96693 79.99205 
L 174.771289 80.400573 
L 174.575648 80.400573 
L 174.380007 80.520588 
L 174.184366 80.630175 
L 173.988725 80.632907 
L 173.793084 80.632907 
L 173.597442 80.632907 
L 173.401801 81.466134 
L 173.20616 81.682168 
L 173.010519 81.687708 
L 172.814878 81.687708 
L 172.619237 81.687708 
L 172.423596 81.725577 
L 172.227955 81.882234 
L 172.032314 82.36001 
L 171.836673 82.548525 
L 171.641031 82.998197 
L 171.44539 83.080824 
L 171.249749 83.161623 
L 171.054108 83.239901 
L 170.858467 83.573135 
L 170.662826 83.573135 
L 170.467185 83.952341 
L 170.271544 83.962035 
L 170.075903 84.089326 
L 169.880262 84.32288 
L 169.684621 85.065052 
L 169.488979 85.154178 
L 169.293338 85.154178 
L 169.097697 85.154178 
L 168.902056 85.154178 
L 168.706415 85.154178 
L 168.510774 85.238385 
L 168.315133 85.238385 
L 168.119492 85.238385 
L 167.923851 85.317325 
L 167.72821 85.49587 
L 167.532568 85.573581 
L 167.336927 86.405048 
L 167.141286 86.405048 
L 166.945645 86.414464 
L 166.750004 86.414464 
L 166.554363 86.458271 
L 166.358722 86.458271 
L 166.163081 86.458271 
L 165.96744 86.671127 
L 165.771799 86.671127 
L 165.576158 86.7453 
L 165.380516 86.7453 
L 165.184875 87.159529 
L 164.989234 87.159529 
L 164.793593 87.159529 
L 164.597952 87.21077 
L 164.402311 87.21077 
L 164.20667 87.21077 
L 164.011029 87.21077 
L 163.815388 87.7486 
L 163.619747 88.009843 
L 163.424105 88.009843 
L 163.228464 88.009843 
L 163.032823 88.009843 
L 162.837182 88.024494 
L 162.641541 88.301955 
L 162.4459 88.301955 
L 162.250259 88.309064 
L 162.054618 88.581211 
L 161.858977 88.581211 
L 161.663336 88.82717 
L 161.467695 88.82717 
L 161.272053 88.910074 
L 161.076412 88.910074 
L 160.880771 88.910074 
L 160.68513 89.157199 
L 160.489489 89.157199 
L 160.293848 89.157199 
L 160.098207 89.157199 
L 159.902566 89.157199 
L 159.706925 89.385259 
L 159.511284 89.391076 
L 159.315642 89.546761 
L 159.120001 89.812961 
L 158.92436 89.812961 
L 158.728719 89.887912 
L 158.533078 90.09031 
L 158.337437 90.09031 
L 158.141796 90.09031 
L 157.946155 90.09031 
L 157.750514 90.449013 
L 157.554873 90.554442 
L 157.359232 91.160017 
L 157.16359 91.160017 
L 156.967949 91.160017 
L 156.772308 91.160017 
L 156.576667 91.160017 
L 156.381026 91.336454 
L 156.185385 91.691226 
L 155.989744 91.691226 
L 155.794103 91.691226 
L 155.598462 91.691226 
L 155.402821 91.691226 
L 155.207179 91.944115 
L 155.011538 91.944115 
L 154.815897 91.944115 
L 154.620256 91.944115 
L 154.424615 91.944115 
L 154.228974 91.959616 
L 154.033333 91.96771 
L 153.837692 92.398289 
L 153.642051 92.398289 
L 153.44641 92.398289 
L 153.250768 92.91218 
L 153.055127 92.91218 
L 152.859486 92.973013 
L 152.663845 92.973013 
L 152.468204 92.973013 
L 152.272563 92.973013 
L 152.076922 92.973013 
L 151.881281 93.089733 
L 151.68564 93.089733 
L 151.489999 93.089733 
L 151.294358 93.089733 
L 151.098716 93.341706 
L 150.903075 93.870708 
L 150.707434 93.991067 
L 150.511793 94.883691 
L 150.316152 94.893482 
L 150.120511 94.893482 
L 149.92487 95.136588 
L 149.729229 95.580182 
L 149.533588 95.629678 
L 149.337947 95.629678 
L 149.142305 95.629678 
L 148.946664 95.629678 
L 148.751023 95.930187 
L 148.555382 95.930187 
L 148.359741 95.930187 
L 148.1641 95.977525 
L 147.968459 95.977525 
L 147.772818 95.977525 
L 147.577177 96.006989 
L 147.381536 96.006989 
L 147.185895 96.006989 
L 146.990253 96.173135 
L 146.794612 96.915313 
L 146.598971 97.207802 
L 146.40333 97.526652 
L 146.207689 97.534636 
L 146.012048 97.84199 
L 145.816407 98.203524 
L 145.620766 98.222353 
L 145.425125 98.222353 
L 145.229484 98.485955 
L 145.033842 98.485955 
L 144.838201 98.545561 
L 144.64256 98.545561 
L 144.446919 98.545561 
L 144.251278 98.813589 
L 144.055637 98.813589 
L 143.859996 98.854345 
L 143.664355 99.065759 
L 143.468714 99.473244 
L 143.273073 99.883352 
L 143.077432 100.036675 
L 142.88179 100.036675 
L 142.686149 100.174054 
L 142.490508 101.717094 
L 142.294867 101.717094 
L 142.099226 101.719845 
L 141.903585 101.852385 
L 141.707944 101.852385 
L 141.512303 102.351954 
L 141.316662 102.351954 
L 141.121021 102.351954 
L 140.925379 102.544696 
L 140.729738 102.811254 
L 140.534097 102.816946 
L 140.338456 103.111246 
L 140.142815 103.111246 
L 139.947174 103.244194 
L 139.751533 103.244194 
L 139.555892 103.244194 
L 139.360251 103.891304 
L 139.16461 103.936427 
L 138.968969 104.133786 
L 138.773327 104.137523 
L 138.577686 104.154137 
L 138.382045 104.154137 
L 138.186404 104.514831 
L 137.990763 104.514831 
L 137.795122 104.514831 
L 137.599481 104.514831 
L 137.40384 104.514831 
L 137.208199 104.514831 
L 137.012558 104.696316 
L 136.816916 104.70097 
L 136.621275 104.70097 
L 136.425634 104.719652 
L 136.229993 104.719652 
L 136.034352 105.563354 
L 135.838711 105.563354 
L 135.64307 106.072684 
L 135.447429 106.072684 
L 135.251788 106.15522 
L 135.056147 106.15522 
L 134.860506 106.725821 
L 134.664864 107.163114 
L 134.469223 107.163114 
L 134.273582 107.163114 
L 134.077941 107.163114 
L 133.8823 107.426005 
L 133.686659 107.426005 
L 133.491018 107.426005 
L 133.295377 107.59056 
L 133.099736 107.59056 
L 132.904095 107.59056 
L 132.708453 108.037738 
L 132.512812 109.084964 
L 132.317171 109.233836 
L 132.12153 109.590877 
L 131.925889 109.830997 
L 131.730248 109.830997 
L 131.534607 109.830997 
L 131.338966 110.098987 
L 131.143325 110.385542 
L 130.947684 110.529851 
L 130.752042 111.213104 
L 130.556401 111.213104 
L 130.36076 111.213104 
L 130.165119 112.020504 
L 129.969478 112.020504 
L 129.773837 112.395963 
L 129.578196 112.395963 
L 129.382555 112.916217 
L 129.186914 113.352124 
L 128.991273 114.22033 
L 128.795632 114.27646 
L 128.59999 114.27646 
L 128.404349 114.709526 
L 128.208708 115.207174 
L 128.013067 115.207174 
L 127.817426 115.56822 
L 127.621785 115.680332 
L 127.426144 115.680332 
L 127.230503 116.01423 
L 127.034862 116.01423 
L 126.839221 116.21563 
L 126.643579 117.057625 
L 126.447938 117.057625 
L 126.252297 117.268479 
L 126.056656 117.412586 
L 125.861015 117.412586 
L 125.665374 117.722804 
L 125.469733 118.279579 
L 125.274092 118.47044 
L 125.078451 118.47044 
L 124.88281 118.970048 
L 124.687169 119.606519 
L 124.491527 119.606519 
L 124.295886 119.616925 
L 124.100245 120.203254 
L 123.904604 120.203254 
L 123.708963 120.203254 
L 123.513322 120.37911 
L 123.317681 121.456832 
L 123.12204 121.456832 
L 122.926399 121.456832 
L 122.730758 121.456832 
L 122.535116 122.274668 
L 122.339475 122.274668 
L 122.143834 122.274668 
L 121.948193 123.249756 
L 121.752552 123.320792 
L 121.556911 123.320792 
L 121.36127 123.72533 
L 121.165629 124.82242 
L 120.969988 124.82242 
L 120.774347 124.82242 
L 120.578706 124.82242 
L 120.383064 125.202057 
L 120.187423 125.959881 
L 119.991782 126.291052 
L 119.796141 126.587108 
L 119.6005 126.844852 
L 119.404859 126.851455 
L 119.209218 126.851455 
L 119.013577 127.615526 
L 118.817936 127.65399 
L 118.622295 127.901585 
L 118.426653 127.943932 
L 118.231012 128.149185 
L 118.035371 128.149185 
L 117.83973 128.198231 
L 117.644089 128.390771 
L 117.448448 128.390771 
L 117.252807 128.390771 
L 117.057166 128.676846 
L 116.861525 128.888283 
L 116.665884 128.921675 
L 116.470243 128.921675 
L 116.274601 129.371788 
L 116.07896 129.457394 
L 115.883319 129.457394 
L 115.687678 130.097245 
L 115.492037 130.223123 
L 115.296396 130.348822 
L 115.100755 130.544144 
L 114.905114 130.886502 
L 114.709473 131.159701 
L 114.513832 132.044607 
L 114.31819 132.228582 
L 114.122549 132.228582 
L 113.926908 132.242809 
L 113.731267 132.243053 
L 113.535626 132.251699 
L 113.339985 132.43122 
L 113.144344 132.43122 
L 112.948703 132.62732 
L 112.753062 132.62732 
L 112.557421 132.62732 
L 112.36178 133.356722 
L 112.166138 133.366303 
L 111.970497 133.366303 
L 111.774856 133.366303 
L 111.579215 133.486152 
L 111.383574 133.486152 
L 111.187933 133.486152 
L 110.992292 133.860533 
L 110.796651 133.860533 
L 110.60101 134.176358 
L 110.405369 134.437709 
L 110.209727 135.062654 
L 110.014086 135.062654 
L 109.818445 135.824044 
L 109.622804 135.968721 
L 109.427163 135.968721 
L 109.231522 135.972242 
L 109.035881 135.972242 
L 108.84024 135.972242 
L 108.644599 136.181508 
L 108.448958 136.241569 
L 108.253316 137.132488 
L 108.057675 137.132488 
L 107.862034 137.253852 
L 107.666393 137.253852 
L 107.470752 137.275212 
L 107.275111 137.275212 
L 107.07947 137.625666 
L 106.883829 138.359893 
L 106.688188 138.359893 
L 106.492547 138.359893 
L 106.296906 138.575541 
L 106.101264 138.575541 
L 105.905623 138.575541 
L 105.709982 138.578182 
L 105.514341 138.578182 
L 105.3187 138.578182 
L 105.123059 138.878867 
L 104.927418 138.878867 
L 104.731777 138.878867 
L 104.536136 138.878867 
L 104.340495 139.303749 
L 104.144853 139.314643 
L 103.949212 139.543321 
L 103.753571 139.543321 
L 103.55793 139.96473 
L 103.362289 139.96473 
L 103.166648 140.401823 
L 102.971007 140.412976 
L 102.775366 140.412976 
L 102.579725 140.641739 
L 102.384084 140.719923 
L 102.188443 140.719923 
L 101.992801 141.11369 
L 101.79716 141.11369 
L 101.601519 141.446428 
L 101.405878 141.9131 
L 101.210237 141.981273 
L 101.014596 141.981273 
L 100.818955 141.982716 
L 100.623314 142.315682 
L 100.427673 142.315682 
L 100.232032 143.13925 
L 100.03639 143.13925 
L 99.840749 143.13925 
L 99.645108 143.13925 
L 99.449467 143.596898 
L 99.253826 143.679541 
L 99.058185 143.679541 
L 98.862544 143.679541 
L 98.666903 143.753941 
L 98.471262 143.754845 
L 98.275621 143.754845 
L 98.07998 143.822612 
L 97.884338 144.360405 
L 97.688697 144.360405 
L 97.493056 145.036744 
L 97.297415 145.109746 
L 97.101774 145.688936 
L 96.906133 145.771796 
L 96.710492 145.771796 
L 96.514851 146.380439 
L 96.31921 146.380439 
L 96.123569 147.64968 
L 95.927927 147.64968 
L 95.732286 147.64968 
L 95.536645 147.790152 
L 95.341004 147.852985 
L 95.145363 147.852985 
L 94.949722 148.350846 
L 94.754081 148.350846 
L 94.55844 148.350846 
L 94.362799 149.042865 
L 94.167158 149.073335 
L 93.971517 149.073335 
L 93.775875 149.073335 
L 93.580234 149.146867 
L 93.384593 149.146867 
L 93.188952 149.146867 
L 92.993311 149.579516 
L 92.79767 149.8117 
L 92.602029 150.702743 
L 92.406388 150.702743 
L 92.210747 150.75192 
L 92.015106 150.807879 
L 91.819464 150.807879 
L 91.623823 150.807879 
L 91.428182 151.405169 
L 91.232541 151.742089 
L 91.0369 151.742089 
L 90.841259 154.208967 
L 90.645618 154.208967 
L 90.449977 154.42265 
L 90.254336 154.42265 
L 90.058695 155.003829 
L 89.863054 155.003829 
L 89.667412 155.162303 
L 89.471771 155.526297 
L 89.27613 155.526297 
L 89.080489 155.760894 
L 88.884848 155.760894 
L 88.689207 156.024036 
L 88.493566 156.811895 
L 88.297925 156.938572 
L 88.102284 156.938572 
L 87.906643 157.548744 
L 87.711001 157.564312 
L 87.51536 158.674142 
L 87.319719 159.196692 
L 87.124078 159.196692 
L 86.928437 159.196692 
L 86.732796 159.196692 
L 86.537155 159.375661 
L 86.341514 159.750835 
L 86.145873 160.158621 
L 85.950232 160.1772 
L 85.75459 161.097744 
L 85.558949 161.097744 
L 85.363308 161.479455 
L 85.167667 161.893236 
L 84.972026 162.05736 
L 84.776385 162.238392 
L 84.580744 162.238392 
L 84.385103 162.360745 
L 84.189462 163.036009 
L 83.993821 163.1979 
L 83.79818 163.720686 
L 83.602538 163.720686 
L 83.406897 163.720686 
L 83.211256 163.965797 
L 83.015615 163.965797 
L 82.819974 164.57713 
L 82.624333 165.137345 
L 82.428692 165.137345 
L 82.233051 165.410184 
L 82.03741 165.410184 
L 81.841769 165.676692 
L 81.646127 166.806325 
L 81.450486 166.806325 
L 81.254845 167.236657 
L 81.059204 167.236657 
L 80.863563 167.287322 
L 80.667922 167.335381 
L 80.472281 167.802728 
L 80.27664 167.968897 
L 80.080999 168.027822 
L 79.885358 168.027822 
L 79.689717 168.110089 
L 79.494075 168.273743 
L 79.298434 168.273743 
L 79.102793 168.539678 
L 78.907152 168.661298 
L 78.711511 168.661298 
L 78.51587 169.340913 
L 78.320229 169.340913 
L 78.124588 169.388618 
L 77.928947 169.784279 
L 77.733306 169.784279 
L 77.537664 171.59099 
L 77.342023 171.635645 
L 77.146382 171.635645 
L 76.950741 172.031852 
L 76.7551 172.031852 
L 76.559459 172.318975 
L 76.363818 172.680044 
L 76.168177 172.929986 
L 75.972536 172.929986 
L 75.776895 172.929986 
L 75.581254 173.044711 
L 75.385612 173.047653 
L 75.189971 173.047653 
L 74.99433 173.957938 
L 74.798689 174.139789 
L 74.603048 174.222329 
L 74.407407 174.314468 
L 74.211766 175.042719 
L 74.016125 175.632948 
L 73.820484 175.711035 
L 73.624843 175.779447 
L 73.429201 176.193719 
L 73.23356 176.308292 
L 73.037919 176.308292 
L 72.842278 176.362973 
L 72.646637 176.362973 
L 72.450996 177.602292 
L 72.255355 178.071168 
L 72.059714 178.071168 
L 71.864073 178.503583 
L 71.668432 178.514659 
L 71.472791 178.557711 
L 71.277149 178.557711 
L 71.081508 178.970242 
L 70.885867 179.870348 
L 70.690226 180.450067 
L 70.494585 180.450067 
L 70.298944 181.52044 
L 70.103303 181.52044 
L 69.907662 182.331149 
L 69.712021 182.53484 
L 69.51638 182.870673 
L 69.320738 182.956931 
L 69.125097 182.956931 
L 68.929456 182.956931 
L 68.733815 183.50483 
L 68.538174 184.182121 
L 68.342533 184.623998 
L 68.146892 185.478398 
L 67.951251 186.554309 
L 67.75561 187.204343 
L 67.559969 187.410915 
L 67.364328 187.504652 
L 67.168686 188.272288 
L 66.973045 188.683479 
L 66.777404 188.85484 
L 66.581763 188.85484 
L 66.386122 190.18784 
L 66.190481 191.744455 
L 65.99484 191.993552 
L 65.799199 192.614375 
L 65.603558 192.616209 
L 65.407917 192.748267 
L 65.212275 193.241394 
L 65.016634 193.249362 
L 64.820993 193.249362 
L 64.625352 193.780821 
L 64.429711 193.967756 
L 64.23407 195.594339 
L 64.038429 195.965001 
L 63.842788 196.227493 
L 63.647147 196.340295 
L 63.451506 196.651516 
L 63.255865 197.208199 
L 63.060223 197.208199 
L 62.864582 197.264026 
L 62.668941 197.639583 
L 62.4733 198.280347 
L 62.277659 198.690251 
L 62.082018 199.326393 
L 61.886377 200.263933 
L 61.690736 201.11692 
L 61.495095 201.365034 
L 61.299454 201.365034 
L 61.103812 201.567584 
L 60.908171 201.567584 
L 60.71253 201.567584 
L 60.516889 201.567584 
L 60.321248 201.567584 
L 60.125607 202.220939 
L 59.929966 204.018712 
L 59.734325 205.599778 
L 59.538684 207.14156 
L 59.343043 207.962155 
L 59.147401 207.962155 
L 58.95176 207.962155 
L 58.756119 207.962155 
L 58.560478 207.962155 
L 58.364837 207.962155 
L 58.169196 207.962155 
L 57.973555 207.962155 
L 57.777914 207.962155 
L 57.582273 207.962155 
z
" clip-path="url(#p201ae7c212)" style="fill: #1f77b4; fill-opacity: 0.5"/>
   </g>
   <g id="matplotlib.axis_1">
    <g id="xtick_1">
     <g id="line2d_1">
      <defs>
       <path id="m939929249b" d="M 0 0 
L 0 3.5 
" style="stroke: #000000; stroke-width: 0.8"/>
      </defs>
      <g>
       <use xlink:href="#m939929249b" x="57.582273" y="253.891" style="stroke: #000000; stroke-width: 0.8"/>
      </g>
     </g>
     <g id="text_1">
      <!-- 0.0 -->
      <g transform="translate(49.63071 268.489438) scale(0.1 -0.1)">
       <defs>
        <path id="DejaVuSans-30" d="M 2034 4250 
Q 1547 4250 1301 3770 
Q 1056 3291 1056 2328 
Q 1056 1369 1301 889 
Q 1547 409 2034 409 
Q 2525 409 2770 889 
Q 3016 1369 3016 2328 
Q 3016 3291 2770 3770 
Q 2525 4250 2034 4250 
z
M 2034 4750 
Q 2819 4750 3233 4129 
Q 3647 3509 3647 2328 
Q 3647 1150 3233 529 
Q 2819 -91 2034 -91 
Q 1250 -91 836 529 
Q 422 1150 422 2328 
Q 422 3509 836 4129 
Q 1250 4750 2034 4750 
z
" transform="scale(0.015625)"/>
        <path id="DejaVuSans-2e" d="M 684 794 
L 1344 794 
L 1344 0 
L 684 0 
L 684 794 
z
" transform="scale(0.015625)"/>
       </defs>
       <use xlink:href="#DejaVuSans-30"/>
       <use xlink:href="#DejaVuSans-2e" transform="translate(63.623047 0)"/>
       <use xlink:href="#DejaVuSans-30" transform="translate(95.410156 0)"/>
      </g>
     </g>
    </g>
    <g id="xtick_2">
     <g id="line2d_2">
      <g>
       <use xlink:href="#m939929249b" x="96.671364" y="253.891" style="stroke: #000000; stroke-width: 0.8"/>
      </g>
     </g>
     <g id="text_2">
      <!-- 0.2 -->
      <g transform="translate(88.719801 268.489438) scale(0.1 -0.1)">
       <defs>
        <path id="DejaVuSans-32" d="M 1228 531 
L 3431 531 
L 3431 0 
L 469 0 
L 469 531 
Q 828 903 1448 1529 
Q 2069 2156 2228 2338 
Q 2531 2678 2651 2914 
Q 2772 3150 2772 3378 
Q 2772 3750 2511 3984 
Q 2250 4219 1831 4219 
Q 1534 4219 1204 4116 
Q 875 4013 500 3803 
L 500 4441 
Q 881 4594 1212 4672 
Q 1544 4750 1819 4750 
Q 2544 4750 2975 4387 
Q 3406 4025 3406 3419 
Q 3406 3131 3298 2873 
Q 3191 2616 2906 2266 
Q 2828 2175 2409 1742 
Q 1991 1309 1228 531 
z
" transform="scale(0.015625)"/>
       </defs>
       <use xlink:href="#DejaVuSans-30"/>
       <use xlink:href="#DejaVuSans-2e" transform="translate(63.623047 0)"/>
       <use xlink:href="#DejaVuSans-32" transform="translate(95.410156 0)"/>
      </g>
     </g>
    </g>
    <g id="xtick_3">
     <g id="line2d_3">
      <g>
       <use xlink:href="#m939929249b" x="135.760455" y="253.891" style="stroke: #000000; stroke-width: 0.8"/>
      </g>
     </g>
     <g id="text_3">
      <!-- 0.4 -->
      <g transform="translate(127.808892 268.489438) scale(0.1 -0.1)">
       <defs>
        <path id="DejaVuSans-34" d="M 2419 4116 
L 825 1625 
L 2419 1625 
L 2419 4116 
z
M 2253 4666 
L 3047 4666 
L 3047 1625 
L 3713 1625 
L 3713 1100 
L 3047 1100 
L 3047 0 
L 2419 0 
L 2419 1100 
L 313 1100 
L 313 1709 
L 2253 4666 
z
" transform="scale(0.015625)"/>
       </defs>
       <use xlink:href="#DejaVuSans-30"/>
       <use xlink:href="#DejaVuSans-2e" transform="translate(63.623047 0)"/>
       <use xlink:href="#DejaVuSans-34" transform="translate(95.410156 0)"/>
      </g>
     </g>
    </g>
    <g id="xtick_4">
     <g id="line2d_4">
      <g>
       <use xlink:href="#m939929249b" x="174.849545" y="253.891" style="stroke: #000000; stroke-width: 0.8"/>
      </g>
     </g>
     <g id="text_4">
      <!-- 0.6 -->
      <g transform="translate(166.897983 268.489438) scale(0.1 -0.1)">
       <defs>
        <path id="DejaVuSans-36" d="M 2113 2584 
Q 1688 2584 1439 2293 
Q 1191 2003 1191 1497 
Q 1191 994 1439 701 
Q 1688 409 2113 409 
Q 2538 409 2786 701 
Q 3034 994 3034 1497 
Q 3034 2003 2786 2293 
Q 2538 2584 2113 2584 
z
M 3366 4563 
L 3366 3988 
Q 3128 4100 2886 4159 
Q 2644 4219 2406 4219 
Q 1781 4219 1451 3797 
Q 1122 3375 1075 2522 
Q 1259 2794 1537 2939 
Q 1816 3084 2150 3084 
Q 2853 3084 3261 2657 
Q 3669 2231 3669 1497 
Q 3669 778 3244 343 
Q 2819 -91 2113 -91 
Q 1303 -91 875 529 
Q 447 1150 447 2328 
Q 447 3434 972 4092 
Q 1497 4750 2381 4750 
Q 2619 4750 2861 4703 
Q 3103 4656 3366 4563 
z
" transform="scale(0.015625)"/>
       </defs>
       <use xlink:href="#DejaVuSans-30"/>
       <use xlink:href="#DejaVuSans-2e" transform="translate(63.623047 0)"/>
       <use xlink:href="#DejaVuSans-36" transform="translate(95.410156 0)"/>
      </g>
     </g>
    </g>
    <g id="xtick_5">
     <g id="line2d_5">
      <g>
       <use xlink:href="#m939929249b" x="213.938636" y="253.891" style="stroke: #000000; stroke-width: 0.8"/>
      </g>
     </g>
     <g id="text_5">
      <!-- 0.8 -->
      <g transform="translate(205.987074 268.489438) scale(0.1 -0.1)">
       <defs>
        <path id="DejaVuSans-38" d="M 2034 2216 
Q 1584 2216 1326 1975 
Q 1069 1734 1069 1313 
Q 1069 891 1326 650 
Q 1584 409 2034 409 
Q 2484 409 2743 651 
Q 3003 894 3003 1313 
Q 3003 1734 2745 1975 
Q 2488 2216 2034 2216 
z
M 1403 2484 
Q 997 2584 770 2862 
Q 544 3141 544 3541 
Q 544 4100 942 4425 
Q 1341 4750 2034 4750 
Q 2731 4750 3128 4425 
Q 3525 4100 3525 3541 
Q 3525 3141 3298 2862 
Q 3072 2584 2669 2484 
Q 3125 2378 3379 2068 
Q 3634 1759 3634 1313 
Q 3634 634 3220 271 
Q 2806 -91 2034 -91 
Q 1263 -91 848 271 
Q 434 634 434 1313 
Q 434 1759 690 2068 
Q 947 2378 1403 2484 
z
M 1172 3481 
Q 1172 3119 1398 2916 
Q 1625 2713 2034 2713 
Q 2441 2713 2670 2916 
Q 2900 3119 2900 3481 
Q 2900 3844 2670 4047 
Q 2441 4250 2034 4250 
Q 1625 4250 1398 4047 
Q 1172 3844 1172 3481 
z
" transform="scale(0.015625)"/>
       </defs>
       <use xlink:href="#DejaVuSans-30"/>
       <use xlink:href="#DejaVuSans-2e" transform="translate(63.623047 0)"/>
       <use xlink:href="#DejaVuSans-38" transform="translate(95.410156 0)"/>
      </g>
     </g>
    </g>
    <g id="xtick_6">
     <g id="line2d_6">
      <g>
       <use xlink:href="#m939929249b" x="253.027727" y="253.891" style="stroke: #000000; stroke-width: 0.8"/>
      </g>
     </g>
     <g id="text_6">
      <!-- 1.0 -->
      <g transform="translate(245.076165 268.489438) scale(0.1 -0.1)">
       <defs>
        <path id="DejaVuSans-31" d="M 794 531 
L 1825 531 
L 1825 4091 
L 703 3866 
L 703 4441 
L 1819 4666 
L 2450 4666 
L 2450 531 
L 3481 531 
L 3481 0 
L 794 0 
L 794 531 
z
" transform="scale(0.015625)"/>
       </defs>
       <use xlink:href="#DejaVuSans-31"/>
       <use xlink:href="#DejaVuSans-2e" transform="translate(63.623047 0)"/>
       <use xlink:href="#DejaVuSans-30" transform="translate(95.410156 0)"/>
      </g>
     </g>
    </g>
    <g id="text_7">
     <!-- False Positive Rate -->
     <g transform="translate(108.838594 282.167562) scale(0.1 -0.1)">
      <defs>
       <path id="DejaVuSans-46" d="M 628 4666 
L 3309 4666 
L 3309 4134 
L 1259 4134 
L 1259 2759 
L 3109 2759 
L 3109 2228 
L 1259 2228 
L 1259 0 
L 628 0 
L 628 4666 
z
" transform="scale(0.015625)"/>
       <path id="DejaVuSans-61" d="M 2194 1759 
Q 1497 1759 1228 1600 
Q 959 1441 959 1056 
Q 959 750 1161 570 
Q 1363 391 1709 391 
Q 2188 391 2477 730 
Q 2766 1069 2766 1631 
L 2766 1759 
L 2194 1759 
z
M 3341 1997 
L 3341 0 
L 2766 0 
L 2766 531 
Q 2569 213 2275 61 
Q 1981 -91 1556 -91 
Q 1019 -91 701 211 
Q 384 513 384 1019 
Q 384 1609 779 1909 
Q 1175 2209 1959 2209 
L 2766 2209 
L 2766 2266 
Q 2766 2663 2505 2880 
Q 2244 3097 1772 3097 
Q 1472 3097 1187 3025 
Q 903 2953 641 2809 
L 641 3341 
Q 956 3463 1253 3523 
Q 1550 3584 1831 3584 
Q 2591 3584 2966 3190 
Q 3341 2797 3341 1997 
z
" transform="scale(0.015625)"/>
       <path id="DejaVuSans-6c" d="M 603 4863 
L 1178 4863 
L 1178 0 
L 603 0 
L 603 4863 
z
" transform="scale(0.015625)"/>
       <path id="DejaVuSans-73" d="M 2834 3397 
L 2834 2853 
Q 2591 2978 2328 3040 
Q 2066 3103 1784 3103 
Q 1356 3103 1142 2972 
Q 928 2841 928 2578 
Q 928 2378 1081 2264 
Q 1234 2150 1697 2047 
L 1894 2003 
Q 2506 1872 2764 1633 
Q 3022 1394 3022 966 
Q 3022 478 2636 193 
Q 2250 -91 1575 -91 
Q 1294 -91 989 -36 
Q 684 19 347 128 
L 347 722 
Q 666 556 975 473 
Q 1284 391 1588 391 
Q 1994 391 2212 530 
Q 2431 669 2431 922 
Q 2431 1156 2273 1281 
Q 2116 1406 1581 1522 
L 1381 1569 
Q 847 1681 609 1914 
Q 372 2147 372 2553 
Q 372 3047 722 3315 
Q 1072 3584 1716 3584 
Q 2034 3584 2315 3537 
Q 2597 3491 2834 3397 
z
" transform="scale(0.015625)"/>
       <path id="DejaVuSans-65" d="M 3597 1894 
L 3597 1613 
L 953 1613 
Q 991 1019 1311 708 
Q 1631 397 2203 397 
Q 2534 397 2845 478 
Q 3156 559 3463 722 
L 3463 178 
Q 3153 47 2828 -22 
Q 2503 -91 2169 -91 
Q 1331 -91 842 396 
Q 353 884 353 1716 
Q 353 2575 817 3079 
Q 1281 3584 2069 3584 
Q 2775 3584 3186 3129 
Q 3597 2675 3597 1894 
z
M 3022 2063 
Q 3016 2534 2758 2815 
Q 2500 3097 2075 3097 
Q 1594 3097 1305 2825 
Q 1016 2553 972 2059 
L 3022 2063 
z
" transform="scale(0.015625)"/>
       <path id="DejaVuSans-20" transform="scale(0.015625)"/>
       <path id="DejaVuSans-50" d="M 1259 4147 
L 1259 2394 
L 2053 2394 
Q 2494 2394 2734 2622 
Q 2975 2850 2975 3272 
Q 2975 3691 2734 3919 
Q 2494 4147 2053 4147 
L 1259 4147 
z
M 628 4666 
L 2053 4666 
Q 2838 4666 3239 4311 
Q 3641 3956 3641 3272 
Q 3641 2581 3239 2228 
Q 2838 1875 2053 1875 
L 1259 1875 
L 1259 0 
L 628 0 
L 628 4666 
z
" transform="scale(0.015625)"/>
       <path id="DejaVuSans-6f" d="M 1959 3097 
Q 1497 3097 1228 2736 
Q 959 2375 959 1747 
Q 959 1119 1226 758 
Q 1494 397 1959 397 
Q 2419 397 2687 759 
Q 2956 1122 2956 1747 
Q 2956 2369 2687 2733 
Q 2419 3097 1959 3097 
z
M 1959 3584 
Q 2709 3584 3137 3096 
Q 3566 2609 3566 1747 
Q 3566 888 3137 398 
Q 2709 -91 1959 -91 
Q 1206 -91 779 398 
Q 353 888 353 1747 
Q 353 2609 779 3096 
Q 1206 3584 1959 3584 
z
" transform="scale(0.015625)"/>
       <path id="DejaVuSans-69" d="M 603 3500 
L 1178 3500 
L 1178 0 
L 603 0 
L 603 3500 
z
M 603 4863 
L 1178 4863 
L 1178 4134 
L 603 4134 
L 603 4863 
z
" transform="scale(0.015625)"/>
       <path id="DejaVuSans-74" d="M 1172 4494 
L 1172 3500 
L 2356 3500 
L 2356 3053 
L 1172 3053 
L 1172 1153 
Q 1172 725 1289 603 
Q 1406 481 1766 481 
L 2356 481 
L 2356 0 
L 1766 0 
Q 1100 0 847 248 
Q 594 497 594 1153 
L 594 3053 
L 172 3053 
L 172 3500 
L 594 3500 
L 594 4494 
L 1172 4494 
z
" transform="scale(0.015625)"/>
       <path id="DejaVuSans-76" d="M 191 3500 
L 800 3500 
L 1894 563 
L 2988 3500 
L 3597 3500 
L 2284 0 
L 1503 0 
L 191 3500 
z
" transform="scale(0.015625)"/>
       <path id="DejaVuSans-52" d="M 2841 2188 
Q 3044 2119 3236 1894 
Q 3428 1669 3622 1275 
L 4263 0 
L 3584 0 
L 2988 1197 
Q 2756 1666 2539 1819 
Q 2322 1972 1947 1972 
L 1259 1972 
L 1259 0 
L 628 0 
L 628 4666 
L 2053 4666 
Q 2853 4666 3247 4331 
Q 3641 3997 3641 3322 
Q 3641 2881 3436 2590 
Q 3231 2300 2841 2188 
z
M 1259 4147 
L 1259 2491 
L 2053 2491 
Q 2509 2491 2742 2702 
Q 2975 2913 2975 3322 
Q 2975 3731 2742 3939 
Q 2509 4147 2053 4147 
L 1259 4147 
z
" transform="scale(0.015625)"/>
      </defs>
      <use xlink:href="#DejaVuSans-46"/>
      <use xlink:href="#DejaVuSans-61" transform="translate(48.394531 0)"/>
      <use xlink:href="#DejaVuSans-6c" transform="translate(109.673828 0)"/>
      <use xlink:href="#DejaVuSans-73" transform="translate(137.457031 0)"/>
      <use xlink:href="#DejaVuSans-65" transform="translate(189.556641 0)"/>
      <use xlink:href="#DejaVuSans-20" transform="translate(251.080078 0)"/>
      <use xlink:href="#DejaVuSans-50" transform="translate(282.867188 0)"/>
      <use xlink:href="#DejaVuSans-6f" transform="translate(339.544922 0)"/>
      <use xlink:href="#DejaVuSans-73" transform="translate(400.726562 0)"/>
      <use xlink:href="#DejaVuSans-69" transform="translate(452.826172 0)"/>
      <use xlink:href="#DejaVuSans-74" transform="translate(480.609375 0)"/>
      <use xlink:href="#DejaVuSans-69" transform="translate(519.818359 0)"/>
      <use xlink:href="#DejaVuSans-76" transform="translate(547.601562 0)"/>
      <use xlink:href="#DejaVuSans-65" transform="translate(606.78125 0)"/>
      <use xlink:href="#DejaVuSans-20" transform="translate(668.304688 0)"/>
      <use xlink:href="#DejaVuSans-52" transform="translate(700.091797 0)"/>
      <use xlink:href="#DejaVuSans-61" transform="translate(767.324219 0)"/>
      <use xlink:href="#DejaVuSans-74" transform="translate(828.603516 0)"/>
      <use xlink:href="#DejaVuSans-65" transform="translate(867.8125 0)"/>
     </g>
    </g>
   </g>
   <g id="matplotlib.axis_2">
    <g id="ytick_1">
     <g id="line2d_7">
      <defs>
       <path id="m847a1ce43b" d="M 0 0 
L -3.5 0 
" style="stroke: #000000; stroke-width: 0.8"/>
      </defs>
      <g>
       <use xlink:href="#m847a1ce43b" x="47.81" y="244.118727" style="stroke: #000000; stroke-width: 0.8"/>
      </g>
     </g>
     <g id="text_8">
      <!-- 0.0 -->
      <g transform="translate(24.906875 247.917946) scale(0.1 -0.1)">
       <use xlink:href="#DejaVuSans-30"/>
       <use xlink:href="#DejaVuSans-2e" transform="translate(63.623047 0)"/>
       <use xlink:href="#DejaVuSans-30" transform="translate(95.410156 0)"/>
      </g>
     </g>
    </g>
    <g id="ytick_2">
     <g id="line2d_8">
      <g>
       <use xlink:href="#m847a1ce43b" x="47.81" y="205.029636" style="stroke: #000000; stroke-width: 0.8"/>
      </g>
     </g>
     <g id="text_9">
      <!-- 0.2 -->
      <g transform="translate(24.906875 208.828855) scale(0.1 -0.1)">
       <use xlink:href="#DejaVuSans-30"/>
       <use xlink:href="#DejaVuSans-2e" transform="translate(63.623047 0)"/>
       <use xlink:href="#DejaVuSans-32" transform="translate(95.410156 0)"/>
      </g>
     </g>
    </g>
    <g id="ytick_3">
     <g id="line2d_9">
      <g>
       <use xlink:href="#m847a1ce43b" x="47.81" y="165.940545" style="stroke: #000000; stroke-width: 0.8"/>
      </g>
     </g>
     <g id="text_10">
      <!-- 0.4 -->
      <g transform="translate(24.906875 169.739764) scale(0.1 -0.1)">
       <use xlink:href="#DejaVuSans-30"/>
       <use xlink:href="#DejaVuSans-2e" transform="translate(63.623047 0)"/>
       <use xlink:href="#DejaVuSans-34" transform="translate(95.410156 0)"/>
      </g>
     </g>
    </g>
    <g id="ytick_4">
     <g id="line2d_10">
      <g>
       <use xlink:href="#m847a1ce43b" x="47.81" y="126.851455" style="stroke: #000000; stroke-width: 0.8"/>
      </g>
     </g>
     <g id="text_11">
      <!-- 0.6 -->
      <g transform="translate(24.906875 130.650673) scale(0.1 -0.1)">
       <use xlink:href="#DejaVuSans-30"/>
       <use xlink:href="#DejaVuSans-2e" transform="translate(63.623047 0)"/>
       <use xlink:href="#DejaVuSans-36" transform="translate(95.410156 0)"/>
      </g>
     </g>
    </g>
    <g id="ytick_5">
     <g id="line2d_11">
      <g>
       <use xlink:href="#m847a1ce43b" x="47.81" y="87.762364" style="stroke: #000000; stroke-width: 0.8"/>
      </g>
     </g>
     <g id="text_12">
      <!-- 0.8 -->
      <g transform="translate(24.906875 91.561582) scale(0.1 -0.1)">
       <use xlink:href="#DejaVuSans-30"/>
       <use xlink:href="#DejaVuSans-2e" transform="translate(63.623047 0)"/>
       <use xlink:href="#DejaVuSans-38" transform="translate(95.410156 0)"/>
      </g>
     </g>
    </g>
    <g id="ytick_6">
     <g id="line2d_12">
      <g>
       <use xlink:href="#m847a1ce43b" x="47.81" y="48.673273" style="stroke: #000000; stroke-width: 0.8"/>
      </g>
     </g>
     <g id="text_13">
      <!-- 1.0 -->
      <g transform="translate(24.906875 52.472491) scale(0.1 -0.1)">
       <use xlink:href="#DejaVuSans-31"/>
       <use xlink:href="#DejaVuSans-2e" transform="translate(63.623047 0)"/>
       <use xlink:href="#DejaVuSans-30" transform="translate(95.410156 0)"/>
      </g>
     </g>
    </g>
    <g id="text_14">
     <!-- True Positive Rate -->
     <g transform="translate(18.827187 190.925687) rotate(-90) scale(0.1 -0.1)">
      <defs>
       <path id="DejaVuSans-54" d="M -19 4666 
L 3928 4666 
L 3928 4134 
L 2272 4134 
L 2272 0 
L 1638 0 
L 1638 4134 
L -19 4134 
L -19 4666 
z
" transform="scale(0.015625)"/>
       <path id="DejaVuSans-72" d="M 2631 2963 
Q 2534 3019 2420 3045 
Q 2306 3072 2169 3072 
Q 1681 3072 1420 2755 
Q 1159 2438 1159 1844 
L 1159 0 
L 581 0 
L 581 3500 
L 1159 3500 
L 1159 2956 
Q 1341 3275 1631 3429 
Q 1922 3584 2338 3584 
Q 2397 3584 2469 3576 
Q 2541 3569 2628 3553 
L 2631 2963 
z
" transform="scale(0.015625)"/>
       <path id="DejaVuSans-75" d="M 544 1381 
L 544 3500 
L 1119 3500 
L 1119 1403 
Q 1119 906 1312 657 
Q 1506 409 1894 409 
Q 2359 409 2629 706 
Q 2900 1003 2900 1516 
L 2900 3500 
L 3475 3500 
L 3475 0 
L 2900 0 
L 2900 538 
Q 2691 219 2414 64 
Q 2138 -91 1772 -91 
Q 1169 -91 856 284 
Q 544 659 544 1381 
z
M 1991 3584 
L 1991 3584 
z
" transform="scale(0.015625)"/>
      </defs>
      <use xlink:href="#DejaVuSans-54"/>
      <use xlink:href="#DejaVuSans-72" transform="translate(46.333984 0)"/>
      <use xlink:href="#DejaVuSans-75" transform="translate(87.447266 0)"/>
      <use xlink:href="#DejaVuSans-65" transform="translate(150.826172 0)"/>
      <use xlink:href="#DejaVuSans-20" transform="translate(212.349609 0)"/>
      <use xlink:href="#DejaVuSans-50" transform="translate(244.136719 0)"/>
      <use xlink:href="#DejaVuSans-6f" transform="translate(300.814453 0)"/>
      <use xlink:href="#DejaVuSans-73" transform="translate(361.996094 0)"/>
      <use xlink:href="#DejaVuSans-69" transform="translate(414.095703 0)"/>
      <use xlink:href="#DejaVuSans-74" transform="translate(441.878906 0)"/>
      <use xlink:href="#DejaVuSans-69" transform="translate(481.087891 0)"/>
      <use xlink:href="#DejaVuSans-76" transform="translate(508.871094 0)"/>
      <use xlink:href="#DejaVuSans-65" transform="translate(568.050781 0)"/>
      <use xlink:href="#DejaVuSans-20" transform="translate(629.574219 0)"/>
      <use xlink:href="#DejaVuSans-52" transform="translate(661.361328 0)"/>
      <use xlink:href="#DejaVuSans-61" transform="translate(728.59375 0)"/>
      <use xlink:href="#DejaVuSans-74" transform="translate(789.873047 0)"/>
      <use xlink:href="#DejaVuSans-65" transform="translate(829.082031 0)"/>
     </g>
    </g>
   </g>
   <g id="line2d_13">
    <path d="M 57.582273 244.118727 
L 57.582273 242.789166 
L 57.582273 236.141362 
L 59.828772 236.141362 
L 59.828772 220.186631 
L 62.075272 220.186631 
L 62.075272 218.85707 
L 64.321771 218.85707 
L 64.321771 210.879704 
L 66.568271 210.879704 
L 66.568271 208.220583 
L 71.06127 208.220583 
L 71.06127 206.891022 
L 73.307769 206.891022 
L 73.307769 204.2319 
L 75.554269 204.2319 
L 75.554269 198.913656 
L 77.800768 198.913656 
L 77.800768 190.936291 
L 82.293767 190.936291 
L 82.293767 186.947608 
L 84.540266 186.947608 
L 84.540266 182.958925 
L 86.786766 182.958925 
L 86.786766 181.629364 
L 91.279765 181.629364 
L 91.279765 180.299803 
L 93.526264 180.299803 
L 93.526264 177.640682 
L 95.772764 177.640682 
L 95.772764 173.651999 
L 98.019263 173.651999 
L 98.019263 169.663316 
L 100.265763 169.663316 
L 100.265763 165.674633 
L 102.512262 165.674633 
L 102.512262 164.345072 
L 107.005261 164.345072 
L 107.005261 161.685951 
L 109.251761 161.685951 
L 109.251761 160.35639 
L 111.49826 160.35639 
L 111.49826 152.379024 
L 113.74476 152.379024 
L 113.74476 151.049463 
L 115.991259 151.049463 
L 115.991259 149.719902 
L 122.730758 149.719902 
L 122.730758 148.390341 
L 124.977257 148.390341 
L 124.977257 145.73122 
L 129.470256 145.73122 
L 129.470256 140.412976 
L 131.716755 140.412976 
L 131.716755 139.083415 
L 136.209754 139.083415 
L 136.209754 136.424293 
L 138.456254 136.424293 
L 138.456254 135.094732 
L 140.702753 135.094732 
L 140.702753 124.458245 
L 142.949253 124.458245 
L 142.949253 123.128684 
L 147.442252 123.128684 
L 147.442252 117.81044 
L 149.688751 117.81044 
L 149.688751 116.480879 
L 151.935251 116.480879 
L 151.935251 115.151318 
L 156.42825 115.151318 
L 156.42825 112.492197 
L 158.674749 112.492197 
L 158.674749 111.162636 
L 160.921249 111.162636 
L 160.921249 107.173953 
L 163.167748 107.173953 
L 163.167748 104.514831 
L 165.414248 104.514831 
L 165.414248 103.18527 
L 167.660747 103.18527 
L 167.660747 101.855709 
L 169.907247 101.855709 
L 169.907247 100.526148 
L 178.893245 100.526148 
L 178.893245 96.537466 
L 185.632743 96.537466 
L 185.632743 93.878344 
L 187.879242 93.878344 
L 187.879242 91.219222 
L 190.125742 91.219222 
L 190.125742 89.889661 
L 192.372241 89.889661 
L 192.372241 85.900978 
L 194.618741 85.900978 
L 194.618741 84.571417 
L 199.11174 84.571417 
L 199.11174 80.582735 
L 201.358239 80.582735 
L 201.358239 79.253174 
L 203.604739 79.253174 
L 203.604739 76.594052 
L 208.097738 76.594052 
L 208.097738 73.93493 
L 210.344237 73.93493 
L 210.344237 72.605369 
L 214.837236 72.605369 
L 214.837236 69.946247 
L 217.083736 69.946247 
L 217.083736 67.287126 
L 221.576735 67.287126 
L 221.576735 63.298443 
L 226.069734 63.298443 
L 226.069734 60.639321 
L 230.562732 60.639321 
L 230.562732 59.30976 
L 235.055731 59.30976 
L 235.055731 55.321077 
L 237.302231 55.321077 
L 237.302231 53.991516 
L 239.54873 53.991516 
L 239.54873 52.661955 
L 241.79523 52.661955 
L 241.79523 50.002834 
L 250.781228 50.002834 
L 250.781228 48.673273 
L 253.027727 48.673273 
" clip-path="url(#p201ae7c212)" style="fill: none; stroke: #1f77b4; stroke-width: 1.5; stroke-linecap: square"/>
   </g>
   <g id="line2d_14">
    <path d="M 57.582273 244.118727 
L 253.027727 48.673273 
" clip-path="url(#p201ae7c212)" style="fill: none; stroke-dasharray: 5.55,2.4; stroke-dashoffset: 0; stroke: #ff0000; stroke-width: 1.5"/>
   </g>
   <g id="patch_3">
    <path d="M 47.81 253.891 
L 47.81 38.901 
" style="fill: none; stroke: #000000; stroke-width: 0.8; stroke-linejoin: miter; stroke-linecap: square"/>
   </g>
   <g id="patch_4">
    <path d="M 262.8 253.891 
L 262.8 38.901 
" style="fill: none; stroke: #000000; stroke-width: 0.8; stroke-linejoin: miter; stroke-linecap: square"/>
   </g>
   <g id="patch_5">
    <path d="M 47.81 253.891 
L 262.8 253.891 
" style="fill: none; stroke: #000000; stroke-width: 0.8; stroke-linejoin: miter; stroke-linecap: square"/>
   </g>
   <g id="patch_6">
    <path d="M 47.81 38.901 
L 262.8 38.901 
" style="fill: none; stroke: #000000; stroke-width: 0.8; stroke-linejoin: miter; stroke-linecap: square"/>
   </g>
   <g id="text_15">
    <!-- Early recurrence = 1 -->
    <g transform="translate(93.282812 19.463625) scale(0.12 -0.12)">
     <defs>
      <path id="DejaVuSans-45" d="M 628 4666 
L 3578 4666 
L 3578 4134 
L 1259 4134 
L 1259 2753 
L 3481 2753 
L 3481 2222 
L 1259 2222 
L 1259 531 
L 3634 531 
L 3634 0 
L 628 0 
L 628 4666 
z
" transform="scale(0.015625)"/>
      <path id="DejaVuSans-79" d="M 2059 -325 
Q 1816 -950 1584 -1140 
Q 1353 -1331 966 -1331 
L 506 -1331 
L 506 -850 
L 844 -850 
Q 1081 -850 1212 -737 
Q 1344 -625 1503 -206 
L 1606 56 
L 191 3500 
L 800 3500 
L 1894 763 
L 2988 3500 
L 3597 3500 
L 2059 -325 
z
" transform="scale(0.015625)"/>
      <path id="DejaVuSans-63" d="M 3122 3366 
L 3122 2828 
Q 2878 2963 2633 3030 
Q 2388 3097 2138 3097 
Q 1578 3097 1268 2742 
Q 959 2388 959 1747 
Q 959 1106 1268 751 
Q 1578 397 2138 397 
Q 2388 397 2633 464 
Q 2878 531 3122 666 
L 3122 134 
Q 2881 22 2623 -34 
Q 2366 -91 2075 -91 
Q 1284 -91 818 406 
Q 353 903 353 1747 
Q 353 2603 823 3093 
Q 1294 3584 2113 3584 
Q 2378 3584 2631 3529 
Q 2884 3475 3122 3366 
z
" transform="scale(0.015625)"/>
      <path id="DejaVuSans-6e" d="M 3513 2113 
L 3513 0 
L 2938 0 
L 2938 2094 
Q 2938 2591 2744 2837 
Q 2550 3084 2163 3084 
Q 1697 3084 1428 2787 
Q 1159 2491 1159 1978 
L 1159 0 
L 581 0 
L 581 3500 
L 1159 3500 
L 1159 2956 
Q 1366 3272 1645 3428 
Q 1925 3584 2291 3584 
Q 2894 3584 3203 3211 
Q 3513 2838 3513 2113 
z
" transform="scale(0.015625)"/>
      <path id="DejaVuSans-3d" d="M 678 2906 
L 4684 2906 
L 4684 2381 
L 678 2381 
L 678 2906 
z
M 678 1631 
L 4684 1631 
L 4684 1100 
L 678 1100 
L 678 1631 
z
" transform="scale(0.015625)"/>
     </defs>
     <use xlink:href="#DejaVuSans-45"/>
     <use xlink:href="#DejaVuSans-61" transform="translate(63.183594 0)"/>
     <use xlink:href="#DejaVuSans-72" transform="translate(124.462891 0)"/>
     <use xlink:href="#DejaVuSans-6c" transform="translate(165.576172 0)"/>
     <use xlink:href="#DejaVuSans-79" transform="translate(193.359375 0)"/>
     <use xlink:href="#DejaVuSans-20" transform="translate(252.539062 0)"/>
     <use xlink:href="#DejaVuSans-72" transform="translate(284.326172 0)"/>
     <use xlink:href="#DejaVuSans-65" transform="translate(323.189453 0)"/>
     <use xlink:href="#DejaVuSans-63" transform="translate(384.712891 0)"/>
     <use xlink:href="#DejaVuSans-75" transform="translate(439.693359 0)"/>
     <use xlink:href="#DejaVuSans-72" transform="translate(503.072266 0)"/>
     <use xlink:href="#DejaVuSans-72" transform="translate(542.435547 0)"/>
     <use xlink:href="#DejaVuSans-65" transform="translate(581.298828 0)"/>
     <use xlink:href="#DejaVuSans-6e" transform="translate(642.822266 0)"/>
     <use xlink:href="#DejaVuSans-63" transform="translate(706.201172 0)"/>
     <use xlink:href="#DejaVuSans-65" transform="translate(761.181641 0)"/>
     <use xlink:href="#DejaVuSans-20" transform="translate(822.705078 0)"/>
     <use xlink:href="#DejaVuSans-3d" transform="translate(854.492188 0)"/>
     <use xlink:href="#DejaVuSans-20" transform="translate(938.28125 0)"/>
     <use xlink:href="#DejaVuSans-31" transform="translate(970.068359 0)"/>
    </g>
    <!-- AUROC = 0.62 [0.55-0.70] -->
    <g transform="translate(76.054375 32.901) scale(0.12 -0.12)">
     <defs>
      <path id="DejaVuSans-41" d="M 2188 4044 
L 1331 1722 
L 3047 1722 
L 2188 4044 
z
M 1831 4666 
L 2547 4666 
L 4325 0 
L 3669 0 
L 3244 1197 
L 1141 1197 
L 716 0 
L 50 0 
L 1831 4666 
z
" transform="scale(0.015625)"/>
      <path id="DejaVuSans-55" d="M 556 4666 
L 1191 4666 
L 1191 1831 
Q 1191 1081 1462 751 
Q 1734 422 2344 422 
Q 2950 422 3222 751 
Q 3494 1081 3494 1831 
L 3494 4666 
L 4128 4666 
L 4128 1753 
Q 4128 841 3676 375 
Q 3225 -91 2344 -91 
Q 1459 -91 1007 375 
Q 556 841 556 1753 
L 556 4666 
z
" transform="scale(0.015625)"/>
      <path id="DejaVuSans-4f" d="M 2522 4238 
Q 1834 4238 1429 3725 
Q 1025 3213 1025 2328 
Q 1025 1447 1429 934 
Q 1834 422 2522 422 
Q 3209 422 3611 934 
Q 4013 1447 4013 2328 
Q 4013 3213 3611 3725 
Q 3209 4238 2522 4238 
z
M 2522 4750 
Q 3503 4750 4090 4092 
Q 4678 3434 4678 2328 
Q 4678 1225 4090 567 
Q 3503 -91 2522 -91 
Q 1538 -91 948 565 
Q 359 1222 359 2328 
Q 359 3434 948 4092 
Q 1538 4750 2522 4750 
z
" transform="scale(0.015625)"/>
      <path id="DejaVuSans-43" d="M 4122 4306 
L 4122 3641 
Q 3803 3938 3442 4084 
Q 3081 4231 2675 4231 
Q 1875 4231 1450 3742 
Q 1025 3253 1025 2328 
Q 1025 1406 1450 917 
Q 1875 428 2675 428 
Q 3081 428 3442 575 
Q 3803 722 4122 1019 
L 4122 359 
Q 3791 134 3420 21 
Q 3050 -91 2638 -91 
Q 1578 -91 968 557 
Q 359 1206 359 2328 
Q 359 3453 968 4101 
Q 1578 4750 2638 4750 
Q 3056 4750 3426 4639 
Q 3797 4528 4122 4306 
z
" transform="scale(0.015625)"/>
      <path id="DejaVuSans-5b" d="M 550 4863 
L 1875 4863 
L 1875 4416 
L 1125 4416 
L 1125 -397 
L 1875 -397 
L 1875 -844 
L 550 -844 
L 550 4863 
z
" transform="scale(0.015625)"/>
      <path id="DejaVuSans-35" d="M 691 4666 
L 3169 4666 
L 3169 4134 
L 1269 4134 
L 1269 2991 
Q 1406 3038 1543 3061 
Q 1681 3084 1819 3084 
Q 2600 3084 3056 2656 
Q 3513 2228 3513 1497 
Q 3513 744 3044 326 
Q 2575 -91 1722 -91 
Q 1428 -91 1123 -41 
Q 819 9 494 109 
L 494 744 
Q 775 591 1075 516 
Q 1375 441 1709 441 
Q 2250 441 2565 725 
Q 2881 1009 2881 1497 
Q 2881 1984 2565 2268 
Q 2250 2553 1709 2553 
Q 1456 2553 1204 2497 
Q 953 2441 691 2322 
L 691 4666 
z
" transform="scale(0.015625)"/>
      <path id="DejaVuSans-2d" d="M 313 2009 
L 1997 2009 
L 1997 1497 
L 313 1497 
L 313 2009 
z
" transform="scale(0.015625)"/>
      <path id="DejaVuSans-37" d="M 525 4666 
L 3525 4666 
L 3525 4397 
L 1831 0 
L 1172 0 
L 2766 4134 
L 525 4134 
L 525 4666 
z
" transform="scale(0.015625)"/>
      <path id="DejaVuSans-5d" d="M 1947 4863 
L 1947 -844 
L 622 -844 
L 622 -397 
L 1369 -397 
L 1369 4416 
L 622 4416 
L 622 4863 
L 1947 4863 
z
" transform="scale(0.015625)"/>
     </defs>
     <use xlink:href="#DejaVuSans-41"/>
     <use xlink:href="#DejaVuSans-55" transform="translate(68.408203 0)"/>
     <use xlink:href="#DejaVuSans-52" transform="translate(141.601562 0)"/>
     <use xlink:href="#DejaVuSans-4f" transform="translate(211.083984 0)"/>
     <use xlink:href="#DejaVuSans-43" transform="translate(289.794922 0)"/>
     <use xlink:href="#DejaVuSans-20" transform="translate(359.619141 0)"/>
     <use xlink:href="#DejaVuSans-3d" transform="translate(391.40625 0)"/>
     <use xlink:href="#DejaVuSans-20" transform="translate(475.195312 0)"/>
     <use xlink:href="#DejaVuSans-30" transform="translate(506.982422 0)"/>
     <use xlink:href="#DejaVuSans-2e" transform="translate(570.605469 0)"/>
     <use xlink:href="#DejaVuSans-36" transform="translate(602.392578 0)"/>
     <use xlink:href="#DejaVuSans-32" transform="translate(666.015625 0)"/>
     <use xlink:href="#DejaVuSans-20" transform="translate(729.638672 0)"/>
     <use xlink:href="#DejaVuSans-5b" transform="translate(761.425781 0)"/>
     <use xlink:href="#DejaVuSans-30" transform="translate(800.439453 0)"/>
     <use xlink:href="#DejaVuSans-2e" transform="translate(864.0625 0)"/>
     <use xlink:href="#DejaVuSans-35" transform="translate(895.849609 0)"/>
     <use xlink:href="#DejaVuSans-35" transform="translate(959.472656 0)"/>
     <use xlink:href="#DejaVuSans-2d" transform="translate(1023.095703 0)"/>
     <use xlink:href="#DejaVuSans-30" transform="translate(1059.179688 0)"/>
     <use xlink:href="#DejaVuSans-2e" transform="translate(1122.802734 0)"/>
     <use xlink:href="#DejaVuSans-37" transform="translate(1154.589844 0)"/>
     <use xlink:href="#DejaVuSans-30" transform="translate(1218.212891 0)"/>
     <use xlink:href="#DejaVuSans-5d" transform="translate(1281.835938 0)"/>
    </g>
   </g>
  </g>
 </g>
 <defs>
  <clipPath id="p201ae7c212">
   <rect x="47.81" y="38.901" width="214.99" height="214.99"/>
  </clipPath>
 </defs>
</svg>
